%TF.GenerationSoftware,KiCad,Pcbnew,6.0.0*%
%TF.CreationDate,2022-06-11T19:07:51+02:00*%
%TF.ProjectId,cowdin-3c-esp-ui,636f7764-696e-42d3-9363-2d6573702d75,1*%
%TF.SameCoordinates,Original*%
%TF.FileFunction,Copper,L2,Inr*%
%TF.FilePolarity,Positive*%
%FSLAX46Y46*%
G04 Gerber Fmt 4.6, Leading zero omitted, Abs format (unit mm)*
G04 Created by KiCad (PCBNEW 6.0.0) date 2022-06-11 19:07:51*
%MOMM*%
%LPD*%
G01*
G04 APERTURE LIST*
%TA.AperFunction,ViaPad*%
%ADD10C,0.711200*%
%TD*%
%TA.AperFunction,Conductor*%
%ADD11C,0.406400*%
%TD*%
%TA.AperFunction,Conductor*%
%ADD12C,0.711200*%
%TD*%
G04 APERTURE END LIST*
D10*
%TO.N,+3.3V*%
X159000000Y-122000000D03*
X164300000Y-101300000D03*
X165750000Y-105750000D03*
X156250000Y-106100000D03*
X152500000Y-123750000D03*
X133500000Y-110900000D03*
X141000000Y-122400000D03*
X151500000Y-124250000D03*
X171150000Y-123750000D03*
X151500000Y-123250000D03*
%TO.N,GND*%
X124600000Y-117000000D03*
X166500000Y-125400000D03*
X162750000Y-97150000D03*
X152500000Y-125400000D03*
X144750000Y-120875000D03*
X167500000Y-85750000D03*
X168400000Y-90500000D03*
X124600000Y-103000000D03*
X140500000Y-125400000D03*
X148500000Y-84600000D03*
X172400000Y-87000000D03*
X168500000Y-125400000D03*
X160500000Y-86600000D03*
X157250000Y-116250000D03*
X172400000Y-121000000D03*
X124600000Y-115000000D03*
X136500000Y-125400000D03*
X126500000Y-84600000D03*
X124600000Y-99000000D03*
X128500000Y-125400000D03*
X162750000Y-120100000D03*
X136500000Y-84600000D03*
X172400000Y-99000000D03*
X161350000Y-110000000D03*
X150500000Y-98150000D03*
X158500000Y-125400000D03*
X172400000Y-91000000D03*
X143750000Y-116000000D03*
X172400000Y-93000000D03*
X162500000Y-125400000D03*
X172400000Y-107000000D03*
X144500000Y-125400000D03*
X156500000Y-125400000D03*
X172400000Y-109000000D03*
X124600000Y-95000000D03*
X142500000Y-84600000D03*
X152750000Y-111900000D03*
X172400000Y-97000000D03*
X159002566Y-118004033D03*
X152500000Y-86600000D03*
X148500000Y-125400000D03*
X132500000Y-125400000D03*
X124600000Y-89000000D03*
X150500000Y-125400000D03*
X138500000Y-125400000D03*
X135500000Y-122400000D03*
X138500000Y-112500000D03*
X168500000Y-84600000D03*
X146500000Y-125400000D03*
X156500000Y-86600000D03*
X167250000Y-100000000D03*
X170500000Y-125400000D03*
X146850000Y-95500000D03*
X172400000Y-113000000D03*
X130500000Y-125400000D03*
X153250000Y-120875000D03*
X144500000Y-84600000D03*
X145750000Y-113150000D03*
X138500000Y-84600000D03*
X147250000Y-124000000D03*
X124600000Y-87000000D03*
X124600000Y-113000000D03*
X172400000Y-123000000D03*
X124600000Y-107000000D03*
X141000000Y-112700000D03*
X172400000Y-105000000D03*
X160500000Y-125400000D03*
X124600000Y-121000000D03*
X124600000Y-119000000D03*
X172400000Y-95000000D03*
X153800000Y-107250000D03*
X146500000Y-84600000D03*
X124600000Y-97000000D03*
X124600000Y-91000000D03*
X138500000Y-117250000D03*
X172400000Y-125000000D03*
X130500000Y-84600000D03*
X164500000Y-125400000D03*
X145500000Y-85750000D03*
X124600000Y-125000000D03*
X140500000Y-84600000D03*
X172400000Y-115000000D03*
X163500000Y-90500000D03*
X124600000Y-109000000D03*
X164500000Y-86600000D03*
X172400000Y-117000000D03*
X124600000Y-111000000D03*
X170500000Y-84600000D03*
X154500000Y-125400000D03*
X162500000Y-86600000D03*
X124600000Y-93000000D03*
X150500000Y-85600000D03*
X124600000Y-105000000D03*
X165650000Y-85600000D03*
X134500000Y-125400000D03*
X167250000Y-105750000D03*
X166500000Y-84600000D03*
X154500000Y-86600000D03*
X172400000Y-85000000D03*
X161400000Y-95750000D03*
X148450000Y-90500000D03*
X158500000Y-86600000D03*
X145750000Y-119000000D03*
X172400000Y-111000000D03*
X124600000Y-85000000D03*
X124600000Y-123000000D03*
X172400000Y-119000000D03*
X124600000Y-101000000D03*
X126500000Y-125400000D03*
X172400000Y-103000000D03*
X139000000Y-122400000D03*
X170000000Y-121300000D03*
X171250000Y-85750000D03*
X132500000Y-84600000D03*
X166500000Y-110000000D03*
X142500000Y-125400000D03*
X128500000Y-84600000D03*
X134500000Y-84600000D03*
X144500000Y-87000000D03*
X172400000Y-89000000D03*
X152000000Y-98150000D03*
X133500000Y-116250000D03*
X172400000Y-101000000D03*
%TO.N,SW1*%
X136500000Y-116250000D03*
X143750000Y-114750000D03*
X138500000Y-118750000D03*
%TO.N,SW2*%
X168000000Y-113000000D03*
%TO.N,SW3*%
X168750000Y-114750000D03*
%TO.N,SW4*%
X168750000Y-111250000D03*
%TO.N,SW5*%
X168750000Y-116500000D03*
%TO.N,DISP_SCK*%
X160250000Y-99000000D03*
X156492500Y-95250000D03*
%TO.N,DISP_MOSI*%
X160250000Y-100250000D03*
X156500000Y-96500000D03*
%TO.N,Net-(D1-Pad3)*%
X141635000Y-109000000D03*
%TO.N,Net-(D1-Pad1)*%
X140365000Y-109000000D03*
%TO.N,Net-(TP1-Pad1)*%
X168750000Y-108000000D03*
%TO.N,RST*%
X140000000Y-119000000D03*
X154750000Y-114500000D03*
%TO.N,SWCLK*%
X148500000Y-109000000D03*
%TO.N,SWDAT*%
X148500000Y-108050000D03*
%TO.N,+VUSB*%
X137500000Y-108050000D03*
X138500000Y-116000000D03*
%TO.N,Net-(D2-Pad1)*%
X133500000Y-107250000D03*
%TO.N,Net-(TP2-Pad1)*%
X170000000Y-108000000D03*
%TO.N,LED1*%
X148500000Y-111750000D03*
%TD*%
D11*
%TO.N,GND*%
X139450000Y-112700000D02*
X139250000Y-112500000D01*
D12*
X163500000Y-96400000D02*
X162750000Y-97150000D01*
X167250000Y-105750000D02*
X169600000Y-105750000D01*
X164350000Y-98750000D02*
X162750000Y-97150000D01*
D11*
X153250000Y-120875000D02*
X158225000Y-120875000D01*
D12*
X168400000Y-90500000D02*
X163500000Y-90500000D01*
D11*
X159002566Y-120097434D02*
X162747434Y-120097434D01*
D12*
X146850000Y-92100000D02*
X148450000Y-90500000D01*
D11*
X152875000Y-120500000D02*
X153250000Y-120875000D01*
X170000000Y-121300000D02*
X163950000Y-121300000D01*
X139250000Y-112500000D02*
X138500000Y-112500000D01*
X162747434Y-120097434D02*
X162750000Y-120100000D01*
X147250000Y-120500000D02*
X145750000Y-119000000D01*
D12*
X150500000Y-98150000D02*
X148350000Y-98150000D01*
D11*
X147250000Y-120500000D02*
X152875000Y-120500000D01*
D12*
X146850000Y-96650000D02*
X146850000Y-95500000D01*
X167250000Y-105750000D02*
X167250000Y-109250000D01*
X170850000Y-107000000D02*
X172400000Y-107000000D01*
D11*
X158225000Y-120875000D02*
X159002566Y-120097434D01*
D12*
X167250000Y-109250000D02*
X166500000Y-110000000D01*
X163500000Y-90500000D02*
X163500000Y-96400000D01*
X167250000Y-100000000D02*
X166000000Y-98750000D01*
D11*
X161350000Y-110000000D02*
X161350000Y-112150000D01*
X171250000Y-121300000D02*
X170000000Y-121300000D01*
D12*
X152000000Y-98150000D02*
X150500000Y-98150000D01*
X167250000Y-100000000D02*
X167250000Y-105750000D01*
X169600000Y-105750000D02*
X170850000Y-107000000D01*
D11*
X147250000Y-124000000D02*
X147250000Y-120500000D01*
X161350000Y-112150000D02*
X157250000Y-116250000D01*
X163950000Y-121300000D02*
X162750000Y-120100000D01*
D12*
X146850000Y-95500000D02*
X146850000Y-92100000D01*
D11*
X159002566Y-118004033D02*
X159002566Y-118002566D01*
X171550000Y-121000000D02*
X171250000Y-121300000D01*
X141000000Y-112700000D02*
X139450000Y-112700000D01*
D12*
X163500000Y-90500000D02*
X148450000Y-90500000D01*
X148350000Y-98150000D02*
X146850000Y-96650000D01*
D11*
X159002566Y-118002566D02*
X157250000Y-116250000D01*
X159002566Y-120097434D02*
X159002566Y-118004033D01*
X172400000Y-121000000D02*
X171550000Y-121000000D01*
D12*
X166000000Y-98750000D02*
X164350000Y-98750000D01*
X166500000Y-110000000D02*
X161350000Y-110000000D01*
%TD*%
%TA.AperFunction,Conductor*%
%TO.N,GND*%
G36*
X150583268Y-84274002D02*
G01*
X150627845Y-84323651D01*
X151500670Y-86069301D01*
X151504381Y-86077433D01*
X151508316Y-86086932D01*
X151510737Y-86099106D01*
X151525549Y-86121273D01*
X151527855Y-86125240D01*
X151527935Y-86125189D01*
X151531235Y-86130431D01*
X151534003Y-86135968D01*
X151541074Y-86145079D01*
X151546296Y-86152325D01*
X151559982Y-86172807D01*
X151566876Y-86183124D01*
X151574612Y-86188293D01*
X151580318Y-86195645D01*
X151591098Y-86201790D01*
X151591100Y-86201792D01*
X151612515Y-86214000D01*
X151620102Y-86218688D01*
X151650894Y-86239263D01*
X151660019Y-86241078D01*
X151668104Y-86245687D01*
X151702082Y-86249970D01*
X151704860Y-86250320D01*
X151713687Y-86251753D01*
X151716396Y-86252292D01*
X151724983Y-86254000D01*
X151731176Y-86254000D01*
X151737336Y-86254607D01*
X151737327Y-86254702D01*
X151741896Y-86254989D01*
X151768359Y-86258325D01*
X151780330Y-86255047D01*
X151790595Y-86254317D01*
X151799529Y-86254000D01*
X164700471Y-86254000D01*
X164709405Y-86254317D01*
X164719670Y-86255047D01*
X164731641Y-86258325D01*
X164743953Y-86256773D01*
X164758105Y-86254989D01*
X164762673Y-86254702D01*
X164762664Y-86254607D01*
X164768824Y-86254000D01*
X164775017Y-86254000D01*
X164783604Y-86252292D01*
X164786313Y-86251753D01*
X164795140Y-86250320D01*
X164797918Y-86249970D01*
X164831896Y-86245687D01*
X164839981Y-86241078D01*
X164849106Y-86239263D01*
X164879898Y-86218688D01*
X164887485Y-86214000D01*
X164908900Y-86201792D01*
X164908902Y-86201790D01*
X164919682Y-86195645D01*
X164925388Y-86188293D01*
X164933124Y-86183124D01*
X164940018Y-86172807D01*
X164953704Y-86152325D01*
X164958926Y-86145079D01*
X164965997Y-86135968D01*
X164968765Y-86130431D01*
X164972065Y-86125189D01*
X164972145Y-86125240D01*
X164974451Y-86121273D01*
X164989263Y-86099106D01*
X164991684Y-86086932D01*
X164995619Y-86077433D01*
X164999330Y-86069301D01*
X165872155Y-84323651D01*
X165920510Y-84271667D01*
X165984853Y-84254000D01*
X172620000Y-84254000D01*
X172688121Y-84274002D01*
X172734614Y-84327658D01*
X172746000Y-84380000D01*
X172746000Y-125620000D01*
X172725998Y-125688121D01*
X172672342Y-125734614D01*
X172620000Y-125746000D01*
X124380000Y-125746000D01*
X124311879Y-125725998D01*
X124265386Y-125672342D01*
X124254000Y-125620000D01*
X124254000Y-124243564D01*
X150885453Y-124243564D01*
X150901657Y-124390340D01*
X150952404Y-124529014D01*
X150956640Y-124535317D01*
X150956640Y-124535318D01*
X150968019Y-124552251D01*
X151034765Y-124651580D01*
X151143985Y-124750962D01*
X151273758Y-124821423D01*
X151416592Y-124858895D01*
X151493379Y-124860101D01*
X151556643Y-124861095D01*
X151556646Y-124861095D01*
X151564241Y-124861214D01*
X151616036Y-124849351D01*
X151700779Y-124829943D01*
X151700783Y-124829942D01*
X151708182Y-124828247D01*
X151728954Y-124817800D01*
X151833321Y-124765310D01*
X151833324Y-124765308D01*
X151840104Y-124761898D01*
X151952391Y-124665995D01*
X152038561Y-124546077D01*
X152093640Y-124409065D01*
X152094711Y-124401540D01*
X152094928Y-124400730D01*
X152131880Y-124340107D01*
X152195740Y-124309086D01*
X152263022Y-124316190D01*
X152267078Y-124317796D01*
X152273758Y-124321423D01*
X152416592Y-124358895D01*
X152493379Y-124360101D01*
X152556643Y-124361095D01*
X152556646Y-124361095D01*
X152564241Y-124361214D01*
X152616036Y-124349351D01*
X152700779Y-124329943D01*
X152700783Y-124329942D01*
X152708182Y-124328247D01*
X152746280Y-124309086D01*
X152833321Y-124265310D01*
X152833324Y-124265308D01*
X152840104Y-124261898D01*
X152952391Y-124165995D01*
X153038561Y-124046077D01*
X153093640Y-123909065D01*
X153110868Y-123788010D01*
X153113865Y-123766955D01*
X153113865Y-123766952D01*
X153114446Y-123762871D01*
X153114581Y-123750000D01*
X153113802Y-123743564D01*
X170535453Y-123743564D01*
X170551657Y-123890340D01*
X170602404Y-124029014D01*
X170606640Y-124035317D01*
X170606640Y-124035318D01*
X170618019Y-124052251D01*
X170684765Y-124151580D01*
X170793985Y-124250962D01*
X170923758Y-124321423D01*
X171066592Y-124358895D01*
X171143379Y-124360101D01*
X171206643Y-124361095D01*
X171206646Y-124361095D01*
X171214241Y-124361214D01*
X171266036Y-124349351D01*
X171350779Y-124329943D01*
X171350783Y-124329942D01*
X171358182Y-124328247D01*
X171396280Y-124309086D01*
X171483321Y-124265310D01*
X171483324Y-124265308D01*
X171490104Y-124261898D01*
X171602391Y-124165995D01*
X171688561Y-124046077D01*
X171743640Y-123909065D01*
X171760868Y-123788010D01*
X171763865Y-123766955D01*
X171763865Y-123766952D01*
X171764446Y-123762871D01*
X171764581Y-123750000D01*
X171746841Y-123603402D01*
X171694644Y-123465267D01*
X171611004Y-123343570D01*
X171500750Y-123245337D01*
X171493866Y-123241692D01*
X171376957Y-123179792D01*
X171376955Y-123179791D01*
X171370246Y-123176239D01*
X171323340Y-123164457D01*
X171234398Y-123142116D01*
X171234394Y-123142116D01*
X171227027Y-123140265D01*
X171219428Y-123140225D01*
X171219426Y-123140225D01*
X171157798Y-123139903D01*
X171079362Y-123139492D01*
X171071982Y-123141264D01*
X171071980Y-123141264D01*
X170943153Y-123172192D01*
X170943149Y-123172193D01*
X170935774Y-123173964D01*
X170804554Y-123241692D01*
X170693277Y-123338765D01*
X170608368Y-123459579D01*
X170605609Y-123466654D01*
X170605608Y-123466657D01*
X170584078Y-123521880D01*
X170554727Y-123597160D01*
X170553735Y-123604693D01*
X170553735Y-123604694D01*
X170538479Y-123720582D01*
X170535453Y-123743564D01*
X153113802Y-123743564D01*
X153096841Y-123603402D01*
X153044644Y-123465267D01*
X152961004Y-123343570D01*
X152850750Y-123245337D01*
X152843866Y-123241692D01*
X152726957Y-123179792D01*
X152726955Y-123179791D01*
X152720246Y-123176239D01*
X152673340Y-123164457D01*
X152584398Y-123142116D01*
X152584394Y-123142116D01*
X152577027Y-123140265D01*
X152569428Y-123140225D01*
X152569426Y-123140225D01*
X152507798Y-123139903D01*
X152429362Y-123139492D01*
X152421982Y-123141264D01*
X152421980Y-123141264D01*
X152293153Y-123172192D01*
X152293149Y-123172193D01*
X152285774Y-123173964D01*
X152279032Y-123177444D01*
X152279026Y-123177446D01*
X152274673Y-123179693D01*
X152204965Y-123193162D01*
X152139042Y-123166806D01*
X152097833Y-123108993D01*
X152097299Y-123107185D01*
X152096841Y-123103402D01*
X152094157Y-123096299D01*
X152094156Y-123096295D01*
X152047328Y-122972370D01*
X152044644Y-122965267D01*
X152004576Y-122906967D01*
X151965306Y-122849829D01*
X151965305Y-122849827D01*
X151961004Y-122843570D01*
X151935594Y-122820930D01*
X151856421Y-122750390D01*
X151850750Y-122745337D01*
X151843866Y-122741692D01*
X151726957Y-122679792D01*
X151726955Y-122679791D01*
X151720246Y-122676239D01*
X151673340Y-122664457D01*
X151584398Y-122642116D01*
X151584394Y-122642116D01*
X151577027Y-122640265D01*
X151569428Y-122640225D01*
X151569426Y-122640225D01*
X151507798Y-122639903D01*
X151429362Y-122639492D01*
X151421982Y-122641264D01*
X151421980Y-122641264D01*
X151293153Y-122672192D01*
X151293149Y-122672193D01*
X151285774Y-122673964D01*
X151154554Y-122741692D01*
X151148832Y-122746684D01*
X151148830Y-122746685D01*
X151085903Y-122801580D01*
X151043277Y-122838765D01*
X150958368Y-122959579D01*
X150955609Y-122966654D01*
X150955608Y-122966657D01*
X150938283Y-123011095D01*
X150904727Y-123097160D01*
X150903735Y-123104693D01*
X150903735Y-123104694D01*
X150893849Y-123179792D01*
X150885453Y-123243564D01*
X150901657Y-123390340D01*
X150952404Y-123529014D01*
X151034765Y-123651580D01*
X151040384Y-123656693D01*
X151045346Y-123662441D01*
X151044292Y-123663351D01*
X151076976Y-123717034D01*
X151075251Y-123788010D01*
X151048920Y-123833842D01*
X151043277Y-123838765D01*
X150958368Y-123959579D01*
X150955609Y-123966654D01*
X150955608Y-123966657D01*
X150924644Y-124046077D01*
X150904727Y-124097160D01*
X150903735Y-124104693D01*
X150903735Y-124104694D01*
X150888422Y-124221015D01*
X150885453Y-124243564D01*
X124254000Y-124243564D01*
X124254000Y-122393564D01*
X140385453Y-122393564D01*
X140401657Y-122540340D01*
X140404267Y-122547472D01*
X140438590Y-122641264D01*
X140452404Y-122679014D01*
X140456640Y-122685317D01*
X140456640Y-122685318D01*
X140468019Y-122702251D01*
X140534765Y-122801580D01*
X140540384Y-122806693D01*
X140540385Y-122806694D01*
X140587790Y-122849829D01*
X140643985Y-122900962D01*
X140773758Y-122971423D01*
X140916592Y-123008895D01*
X140993379Y-123010101D01*
X141056643Y-123011095D01*
X141056646Y-123011095D01*
X141064241Y-123011214D01*
X141116036Y-122999351D01*
X141200779Y-122979943D01*
X141200783Y-122979942D01*
X141208182Y-122978247D01*
X141228954Y-122967800D01*
X141333321Y-122915310D01*
X141333324Y-122915308D01*
X141340104Y-122911898D01*
X141452391Y-122815995D01*
X141538561Y-122696077D01*
X141573358Y-122609518D01*
X141590805Y-122566118D01*
X141590806Y-122566116D01*
X141593640Y-122559065D01*
X141614446Y-122412871D01*
X141614581Y-122400000D01*
X141596841Y-122253402D01*
X141544644Y-122115267D01*
X141466189Y-122001114D01*
X141465306Y-121999829D01*
X141465305Y-121999827D01*
X141461004Y-121993570D01*
X141460997Y-121993564D01*
X158385453Y-121993564D01*
X158401657Y-122140340D01*
X158404267Y-122147472D01*
X158445791Y-122260942D01*
X158452404Y-122279014D01*
X158456640Y-122285317D01*
X158456640Y-122285318D01*
X158468019Y-122302251D01*
X158534765Y-122401580D01*
X158540384Y-122406693D01*
X158540385Y-122406694D01*
X158550607Y-122415995D01*
X158643985Y-122500962D01*
X158773758Y-122571423D01*
X158916592Y-122608895D01*
X158993379Y-122610101D01*
X159056643Y-122611095D01*
X159056646Y-122611095D01*
X159064241Y-122611214D01*
X159116036Y-122599351D01*
X159200779Y-122579943D01*
X159200783Y-122579942D01*
X159208182Y-122578247D01*
X159261286Y-122551539D01*
X159333321Y-122515310D01*
X159333324Y-122515308D01*
X159340104Y-122511898D01*
X159452391Y-122415995D01*
X159538561Y-122296077D01*
X159593640Y-122159065D01*
X159614446Y-122012871D01*
X159614581Y-122000000D01*
X159613222Y-121988765D01*
X159602527Y-121900390D01*
X159596841Y-121853402D01*
X159544644Y-121715267D01*
X159461004Y-121593570D01*
X159350750Y-121495337D01*
X159343866Y-121491692D01*
X159226957Y-121429792D01*
X159226955Y-121429791D01*
X159220246Y-121426239D01*
X159173340Y-121414457D01*
X159084398Y-121392116D01*
X159084394Y-121392116D01*
X159077027Y-121390265D01*
X159069428Y-121390225D01*
X159069426Y-121390225D01*
X159007798Y-121389903D01*
X158929362Y-121389492D01*
X158921982Y-121391264D01*
X158921980Y-121391264D01*
X158793153Y-121422192D01*
X158793149Y-121422193D01*
X158785774Y-121423964D01*
X158654554Y-121491692D01*
X158543277Y-121588765D01*
X158458368Y-121709579D01*
X158455609Y-121716654D01*
X158455608Y-121716657D01*
X158411499Y-121829792D01*
X158404727Y-121847160D01*
X158403735Y-121854693D01*
X158403735Y-121854694D01*
X158386743Y-121983769D01*
X158385453Y-121993564D01*
X141460997Y-121993564D01*
X141350750Y-121895337D01*
X141343866Y-121891692D01*
X141226957Y-121829792D01*
X141226955Y-121829791D01*
X141220246Y-121826239D01*
X141173340Y-121814457D01*
X141084398Y-121792116D01*
X141084394Y-121792116D01*
X141077027Y-121790265D01*
X141069428Y-121790225D01*
X141069426Y-121790225D01*
X141007798Y-121789903D01*
X140929362Y-121789492D01*
X140921982Y-121791264D01*
X140921980Y-121791264D01*
X140793153Y-121822192D01*
X140793149Y-121822193D01*
X140785774Y-121823964D01*
X140654554Y-121891692D01*
X140543277Y-121988765D01*
X140458368Y-122109579D01*
X140455609Y-122116654D01*
X140455608Y-122116657D01*
X140446375Y-122140340D01*
X140404727Y-122247160D01*
X140403735Y-122254693D01*
X140403735Y-122254694D01*
X140399216Y-122289024D01*
X140385453Y-122393564D01*
X124254000Y-122393564D01*
X124254000Y-118743564D01*
X137885453Y-118743564D01*
X137901657Y-118890340D01*
X137904267Y-118897472D01*
X137946497Y-119012871D01*
X137952404Y-119029014D01*
X137956640Y-119035317D01*
X137956640Y-119035318D01*
X137968019Y-119052251D01*
X138034765Y-119151580D01*
X138143985Y-119250962D01*
X138273758Y-119321423D01*
X138416592Y-119358895D01*
X138493379Y-119360101D01*
X138556643Y-119361095D01*
X138556646Y-119361095D01*
X138564241Y-119361214D01*
X138616036Y-119349351D01*
X138700779Y-119329943D01*
X138700783Y-119329942D01*
X138708182Y-119328247D01*
X138772146Y-119296077D01*
X138833321Y-119265310D01*
X138833324Y-119265308D01*
X138840104Y-119261898D01*
X138952391Y-119165995D01*
X139038561Y-119046077D01*
X139059671Y-118993564D01*
X139385453Y-118993564D01*
X139401657Y-119140340D01*
X139404267Y-119147472D01*
X139442139Y-119250962D01*
X139452404Y-119279014D01*
X139456640Y-119285317D01*
X139456640Y-119285318D01*
X139468019Y-119302251D01*
X139534765Y-119401580D01*
X139643985Y-119500962D01*
X139773758Y-119571423D01*
X139916592Y-119608895D01*
X139993379Y-119610101D01*
X140056643Y-119611095D01*
X140056646Y-119611095D01*
X140064241Y-119611214D01*
X140116036Y-119599351D01*
X140200779Y-119579943D01*
X140200783Y-119579942D01*
X140208182Y-119578247D01*
X140228954Y-119567800D01*
X140333321Y-119515310D01*
X140333324Y-119515308D01*
X140340104Y-119511898D01*
X140452391Y-119415995D01*
X140538561Y-119296077D01*
X140566101Y-119227571D01*
X140590805Y-119166118D01*
X140590806Y-119166116D01*
X140593640Y-119159065D01*
X140610724Y-119039024D01*
X140613865Y-119016955D01*
X140613865Y-119016952D01*
X140614446Y-119012871D01*
X140614581Y-119000000D01*
X140596841Y-118853402D01*
X140544644Y-118715267D01*
X140536463Y-118703363D01*
X140465306Y-118599829D01*
X140465305Y-118599827D01*
X140461004Y-118593570D01*
X140350750Y-118495337D01*
X140343866Y-118491692D01*
X140226957Y-118429792D01*
X140226955Y-118429791D01*
X140220246Y-118426239D01*
X140173340Y-118414457D01*
X140084398Y-118392116D01*
X140084394Y-118392116D01*
X140077027Y-118390265D01*
X140069428Y-118390225D01*
X140069426Y-118390225D01*
X140007798Y-118389903D01*
X139929362Y-118389492D01*
X139921982Y-118391264D01*
X139921980Y-118391264D01*
X139793153Y-118422192D01*
X139793149Y-118422193D01*
X139785774Y-118423964D01*
X139779029Y-118427445D01*
X139779030Y-118427445D01*
X139691990Y-118472370D01*
X139654554Y-118491692D01*
X139543277Y-118588765D01*
X139458368Y-118709579D01*
X139455609Y-118716654D01*
X139455608Y-118716657D01*
X139435998Y-118766955D01*
X139404727Y-118847160D01*
X139403735Y-118854693D01*
X139403735Y-118854694D01*
X139395649Y-118916118D01*
X139385453Y-118993564D01*
X139059671Y-118993564D01*
X139093640Y-118909065D01*
X139114446Y-118762871D01*
X139114581Y-118750000D01*
X139096841Y-118603402D01*
X139044644Y-118465267D01*
X138992593Y-118389532D01*
X138965306Y-118349829D01*
X138965305Y-118349827D01*
X138961004Y-118343570D01*
X138850750Y-118245337D01*
X138843866Y-118241692D01*
X138726957Y-118179792D01*
X138726955Y-118179791D01*
X138720246Y-118176239D01*
X138673340Y-118164457D01*
X138584398Y-118142116D01*
X138584394Y-118142116D01*
X138577027Y-118140265D01*
X138569428Y-118140225D01*
X138569426Y-118140225D01*
X138507798Y-118139903D01*
X138429362Y-118139492D01*
X138421982Y-118141264D01*
X138421980Y-118141264D01*
X138293153Y-118172192D01*
X138293149Y-118172193D01*
X138285774Y-118173964D01*
X138154554Y-118241692D01*
X138043277Y-118338765D01*
X137958368Y-118459579D01*
X137955609Y-118466654D01*
X137955608Y-118466657D01*
X137908097Y-118588517D01*
X137904727Y-118597160D01*
X137903735Y-118604693D01*
X137903735Y-118604694D01*
X137902913Y-118610942D01*
X137885453Y-118743564D01*
X124254000Y-118743564D01*
X124254000Y-116243564D01*
X135885453Y-116243564D01*
X135901657Y-116390340D01*
X135904267Y-116397472D01*
X135946497Y-116512871D01*
X135952404Y-116529014D01*
X135956640Y-116535317D01*
X135956640Y-116535318D01*
X135968019Y-116552251D01*
X136034765Y-116651580D01*
X136143985Y-116750962D01*
X136273758Y-116821423D01*
X136416592Y-116858895D01*
X136493379Y-116860101D01*
X136556643Y-116861095D01*
X136556646Y-116861095D01*
X136564241Y-116861214D01*
X136616036Y-116849351D01*
X136700779Y-116829943D01*
X136700783Y-116829942D01*
X136708182Y-116828247D01*
X136772146Y-116796077D01*
X136833321Y-116765310D01*
X136833324Y-116765308D01*
X136840104Y-116761898D01*
X136952391Y-116665995D01*
X137038561Y-116546077D01*
X137066101Y-116477571D01*
X137090805Y-116416118D01*
X137090806Y-116416116D01*
X137093640Y-116409065D01*
X137110724Y-116289024D01*
X137113865Y-116266955D01*
X137113865Y-116266952D01*
X137114446Y-116262871D01*
X137114581Y-116250000D01*
X137096841Y-116103402D01*
X137055337Y-115993564D01*
X137885453Y-115993564D01*
X137901657Y-116140340D01*
X137904267Y-116147472D01*
X137946497Y-116262871D01*
X137952404Y-116279014D01*
X137956640Y-116285317D01*
X137956640Y-116285318D01*
X137968019Y-116302251D01*
X138034765Y-116401580D01*
X138143985Y-116500962D01*
X138273758Y-116571423D01*
X138416592Y-116608895D01*
X138493379Y-116610101D01*
X138556643Y-116611095D01*
X138556646Y-116611095D01*
X138564241Y-116611214D01*
X138616036Y-116599351D01*
X138700779Y-116579943D01*
X138700783Y-116579942D01*
X138708182Y-116578247D01*
X138772146Y-116546077D01*
X138833321Y-116515310D01*
X138833324Y-116515308D01*
X138840104Y-116511898D01*
X138861570Y-116493564D01*
X168135453Y-116493564D01*
X168151657Y-116640340D01*
X168154267Y-116647472D01*
X168192139Y-116750962D01*
X168202404Y-116779014D01*
X168206640Y-116785317D01*
X168206640Y-116785318D01*
X168218019Y-116802251D01*
X168284765Y-116901580D01*
X168393985Y-117000962D01*
X168523758Y-117071423D01*
X168666592Y-117108895D01*
X168743379Y-117110101D01*
X168806643Y-117111095D01*
X168806646Y-117111095D01*
X168814241Y-117111214D01*
X168866036Y-117099351D01*
X168950779Y-117079943D01*
X168950783Y-117079942D01*
X168958182Y-117078247D01*
X168978954Y-117067800D01*
X169083321Y-117015310D01*
X169083324Y-117015308D01*
X169090104Y-117011898D01*
X169202391Y-116915995D01*
X169288561Y-116796077D01*
X169316101Y-116727571D01*
X169340805Y-116666118D01*
X169340806Y-116666116D01*
X169343640Y-116659065D01*
X169351054Y-116606967D01*
X169363865Y-116516955D01*
X169363865Y-116516952D01*
X169364446Y-116512871D01*
X169364581Y-116500000D01*
X169346841Y-116353402D01*
X169294644Y-116215267D01*
X169260865Y-116166118D01*
X169215306Y-116099829D01*
X169215305Y-116099827D01*
X169211004Y-116093570D01*
X169100750Y-115995337D01*
X169093866Y-115991692D01*
X168976957Y-115929792D01*
X168976955Y-115929791D01*
X168970246Y-115926239D01*
X168923340Y-115914457D01*
X168834398Y-115892116D01*
X168834394Y-115892116D01*
X168827027Y-115890265D01*
X168819428Y-115890225D01*
X168819426Y-115890225D01*
X168757798Y-115889903D01*
X168679362Y-115889492D01*
X168671982Y-115891264D01*
X168671980Y-115891264D01*
X168543153Y-115922192D01*
X168543149Y-115922193D01*
X168535774Y-115923964D01*
X168529029Y-115927445D01*
X168529030Y-115927445D01*
X168441990Y-115972370D01*
X168404554Y-115991692D01*
X168398832Y-115996684D01*
X168398830Y-115996685D01*
X168380276Y-116012871D01*
X168293277Y-116088765D01*
X168208368Y-116209579D01*
X168205609Y-116216654D01*
X168205608Y-116216657D01*
X168174644Y-116296077D01*
X168154727Y-116347160D01*
X168153735Y-116354693D01*
X168153735Y-116354694D01*
X168145649Y-116416118D01*
X168135453Y-116493564D01*
X138861570Y-116493564D01*
X138952391Y-116415995D01*
X139038561Y-116296077D01*
X139073333Y-116209579D01*
X139090805Y-116166118D01*
X139090806Y-116166116D01*
X139093640Y-116159065D01*
X139114446Y-116012871D01*
X139114581Y-116000000D01*
X139096841Y-115853402D01*
X139044644Y-115715267D01*
X138992593Y-115639532D01*
X138965306Y-115599829D01*
X138965305Y-115599827D01*
X138961004Y-115593570D01*
X138850750Y-115495337D01*
X138843866Y-115491692D01*
X138726957Y-115429792D01*
X138726955Y-115429791D01*
X138720246Y-115426239D01*
X138673340Y-115414457D01*
X138584398Y-115392116D01*
X138584394Y-115392116D01*
X138577027Y-115390265D01*
X138569428Y-115390225D01*
X138569426Y-115390225D01*
X138507798Y-115389903D01*
X138429362Y-115389492D01*
X138421982Y-115391264D01*
X138421980Y-115391264D01*
X138293153Y-115422192D01*
X138293149Y-115422193D01*
X138285774Y-115423964D01*
X138154554Y-115491692D01*
X138043277Y-115588765D01*
X137958368Y-115709579D01*
X137955609Y-115716654D01*
X137955608Y-115716657D01*
X137908097Y-115838517D01*
X137904727Y-115847160D01*
X137903735Y-115854693D01*
X137903735Y-115854694D01*
X137893849Y-115929792D01*
X137885453Y-115993564D01*
X137055337Y-115993564D01*
X137044644Y-115965267D01*
X136992593Y-115889532D01*
X136965306Y-115849829D01*
X136965305Y-115849827D01*
X136961004Y-115843570D01*
X136850750Y-115745337D01*
X136843866Y-115741692D01*
X136726957Y-115679792D01*
X136726955Y-115679791D01*
X136720246Y-115676239D01*
X136673340Y-115664457D01*
X136584398Y-115642116D01*
X136584394Y-115642116D01*
X136577027Y-115640265D01*
X136569428Y-115640225D01*
X136569426Y-115640225D01*
X136507798Y-115639903D01*
X136429362Y-115639492D01*
X136421982Y-115641264D01*
X136421980Y-115641264D01*
X136293153Y-115672192D01*
X136293149Y-115672193D01*
X136285774Y-115673964D01*
X136279029Y-115677445D01*
X136279030Y-115677445D01*
X136191990Y-115722370D01*
X136154554Y-115741692D01*
X136043277Y-115838765D01*
X135958368Y-115959579D01*
X135955609Y-115966654D01*
X135955608Y-115966657D01*
X135908097Y-116088517D01*
X135904727Y-116097160D01*
X135903735Y-116104693D01*
X135903735Y-116104694D01*
X135895649Y-116166118D01*
X135885453Y-116243564D01*
X124254000Y-116243564D01*
X124254000Y-114743564D01*
X143135453Y-114743564D01*
X143151657Y-114890340D01*
X143154267Y-114897472D01*
X143192139Y-115000962D01*
X143202404Y-115029014D01*
X143206640Y-115035317D01*
X143206640Y-115035318D01*
X143218019Y-115052251D01*
X143284765Y-115151580D01*
X143393985Y-115250962D01*
X143523758Y-115321423D01*
X143666592Y-115358895D01*
X143743379Y-115360101D01*
X143806643Y-115361095D01*
X143806646Y-115361095D01*
X143814241Y-115361214D01*
X143866036Y-115349351D01*
X143950779Y-115329943D01*
X143950783Y-115329942D01*
X143958182Y-115328247D01*
X143978954Y-115317800D01*
X144083321Y-115265310D01*
X144083324Y-115265308D01*
X144090104Y-115261898D01*
X144202391Y-115165995D01*
X144288561Y-115046077D01*
X144316101Y-114977571D01*
X144340805Y-114916118D01*
X144340806Y-114916116D01*
X144343640Y-114909065D01*
X144360724Y-114789024D01*
X144363865Y-114766955D01*
X144363865Y-114766952D01*
X144364446Y-114762871D01*
X144364581Y-114750000D01*
X144346841Y-114603402D01*
X144305337Y-114493564D01*
X154135453Y-114493564D01*
X154151657Y-114640340D01*
X154154267Y-114647472D01*
X154196497Y-114762871D01*
X154202404Y-114779014D01*
X154206640Y-114785317D01*
X154206640Y-114785318D01*
X154218019Y-114802251D01*
X154284765Y-114901580D01*
X154393985Y-115000962D01*
X154523758Y-115071423D01*
X154666592Y-115108895D01*
X154743379Y-115110101D01*
X154806643Y-115111095D01*
X154806646Y-115111095D01*
X154814241Y-115111214D01*
X154866036Y-115099351D01*
X154950779Y-115079943D01*
X154950783Y-115079942D01*
X154958182Y-115078247D01*
X155022146Y-115046077D01*
X155083321Y-115015310D01*
X155083324Y-115015308D01*
X155090104Y-115011898D01*
X155202391Y-114915995D01*
X155288561Y-114796077D01*
X155309671Y-114743564D01*
X168135453Y-114743564D01*
X168151657Y-114890340D01*
X168154267Y-114897472D01*
X168192139Y-115000962D01*
X168202404Y-115029014D01*
X168206640Y-115035317D01*
X168206640Y-115035318D01*
X168218019Y-115052251D01*
X168284765Y-115151580D01*
X168393985Y-115250962D01*
X168523758Y-115321423D01*
X168666592Y-115358895D01*
X168743379Y-115360101D01*
X168806643Y-115361095D01*
X168806646Y-115361095D01*
X168814241Y-115361214D01*
X168866036Y-115349351D01*
X168950779Y-115329943D01*
X168950783Y-115329942D01*
X168958182Y-115328247D01*
X168978954Y-115317800D01*
X169083321Y-115265310D01*
X169083324Y-115265308D01*
X169090104Y-115261898D01*
X169202391Y-115165995D01*
X169288561Y-115046077D01*
X169316101Y-114977571D01*
X169340805Y-114916118D01*
X169340806Y-114916116D01*
X169343640Y-114909065D01*
X169360724Y-114789024D01*
X169363865Y-114766955D01*
X169363865Y-114766952D01*
X169364446Y-114762871D01*
X169364581Y-114750000D01*
X169346841Y-114603402D01*
X169294644Y-114465267D01*
X169286463Y-114453363D01*
X169215306Y-114349829D01*
X169215305Y-114349827D01*
X169211004Y-114343570D01*
X169100750Y-114245337D01*
X169093866Y-114241692D01*
X168976957Y-114179792D01*
X168976955Y-114179791D01*
X168970246Y-114176239D01*
X168923340Y-114164457D01*
X168834398Y-114142116D01*
X168834394Y-114142116D01*
X168827027Y-114140265D01*
X168819428Y-114140225D01*
X168819426Y-114140225D01*
X168757798Y-114139903D01*
X168679362Y-114139492D01*
X168671982Y-114141264D01*
X168671980Y-114141264D01*
X168543153Y-114172192D01*
X168543149Y-114172193D01*
X168535774Y-114173964D01*
X168529029Y-114177445D01*
X168529030Y-114177445D01*
X168441990Y-114222370D01*
X168404554Y-114241692D01*
X168293277Y-114338765D01*
X168208368Y-114459579D01*
X168205609Y-114466654D01*
X168205608Y-114466657D01*
X168185998Y-114516955D01*
X168154727Y-114597160D01*
X168153735Y-114604693D01*
X168153735Y-114604694D01*
X168145649Y-114666118D01*
X168135453Y-114743564D01*
X155309671Y-114743564D01*
X155343640Y-114659065D01*
X155364446Y-114512871D01*
X155364581Y-114500000D01*
X155346841Y-114353402D01*
X155294644Y-114215267D01*
X155242593Y-114139532D01*
X155215306Y-114099829D01*
X155215305Y-114099827D01*
X155211004Y-114093570D01*
X155100750Y-113995337D01*
X155093866Y-113991692D01*
X154976957Y-113929792D01*
X154976955Y-113929791D01*
X154970246Y-113926239D01*
X154923340Y-113914457D01*
X154834398Y-113892116D01*
X154834394Y-113892116D01*
X154827027Y-113890265D01*
X154819428Y-113890225D01*
X154819426Y-113890225D01*
X154757798Y-113889903D01*
X154679362Y-113889492D01*
X154671982Y-113891264D01*
X154671980Y-113891264D01*
X154543153Y-113922192D01*
X154543149Y-113922193D01*
X154535774Y-113923964D01*
X154404554Y-113991692D01*
X154293277Y-114088765D01*
X154208368Y-114209579D01*
X154205609Y-114216654D01*
X154205608Y-114216657D01*
X154158097Y-114338517D01*
X154154727Y-114347160D01*
X154153735Y-114354693D01*
X154153735Y-114354694D01*
X154152913Y-114360942D01*
X154135453Y-114493564D01*
X144305337Y-114493564D01*
X144294644Y-114465267D01*
X144286463Y-114453363D01*
X144215306Y-114349829D01*
X144215305Y-114349827D01*
X144211004Y-114343570D01*
X144100750Y-114245337D01*
X144093866Y-114241692D01*
X143976957Y-114179792D01*
X143976955Y-114179791D01*
X143970246Y-114176239D01*
X143923340Y-114164457D01*
X143834398Y-114142116D01*
X143834394Y-114142116D01*
X143827027Y-114140265D01*
X143819428Y-114140225D01*
X143819426Y-114140225D01*
X143757798Y-114139903D01*
X143679362Y-114139492D01*
X143671982Y-114141264D01*
X143671980Y-114141264D01*
X143543153Y-114172192D01*
X143543149Y-114172193D01*
X143535774Y-114173964D01*
X143529029Y-114177445D01*
X143529030Y-114177445D01*
X143441990Y-114222370D01*
X143404554Y-114241692D01*
X143293277Y-114338765D01*
X143208368Y-114459579D01*
X143205609Y-114466654D01*
X143205608Y-114466657D01*
X143185998Y-114516955D01*
X143154727Y-114597160D01*
X143153735Y-114604693D01*
X143153735Y-114604694D01*
X143145649Y-114666118D01*
X143135453Y-114743564D01*
X124254000Y-114743564D01*
X124254000Y-112993564D01*
X167385453Y-112993564D01*
X167401657Y-113140340D01*
X167452404Y-113279014D01*
X167456640Y-113285317D01*
X167456640Y-113285318D01*
X167468019Y-113302251D01*
X167534765Y-113401580D01*
X167643985Y-113500962D01*
X167773758Y-113571423D01*
X167916592Y-113608895D01*
X167993379Y-113610101D01*
X168056643Y-113611095D01*
X168056646Y-113611095D01*
X168064241Y-113611214D01*
X168116036Y-113599351D01*
X168200779Y-113579943D01*
X168200783Y-113579942D01*
X168208182Y-113578247D01*
X168228954Y-113567800D01*
X168333321Y-113515310D01*
X168333324Y-113515308D01*
X168340104Y-113511898D01*
X168452391Y-113415995D01*
X168538561Y-113296077D01*
X168593640Y-113159065D01*
X168614446Y-113012871D01*
X168614581Y-113000000D01*
X168596841Y-112853402D01*
X168544644Y-112715267D01*
X168461004Y-112593570D01*
X168350750Y-112495337D01*
X168343866Y-112491692D01*
X168226957Y-112429792D01*
X168226955Y-112429791D01*
X168220246Y-112426239D01*
X168173340Y-112414457D01*
X168084398Y-112392116D01*
X168084394Y-112392116D01*
X168077027Y-112390265D01*
X168069428Y-112390225D01*
X168069426Y-112390225D01*
X168007798Y-112389903D01*
X167929362Y-112389492D01*
X167921982Y-112391264D01*
X167921980Y-112391264D01*
X167793153Y-112422192D01*
X167793149Y-112422193D01*
X167785774Y-112423964D01*
X167654554Y-112491692D01*
X167543277Y-112588765D01*
X167458368Y-112709579D01*
X167404727Y-112847160D01*
X167403735Y-112854693D01*
X167403735Y-112854694D01*
X167402913Y-112860942D01*
X167385453Y-112993564D01*
X124254000Y-112993564D01*
X124254000Y-111580607D01*
X139234222Y-111580607D01*
X139235462Y-111587823D01*
X139235462Y-111587825D01*
X139236918Y-111596299D01*
X139263673Y-111752004D01*
X139266538Y-111758738D01*
X139266539Y-111758740D01*
X139310143Y-111861214D01*
X139331765Y-111912029D01*
X139434843Y-112052097D01*
X139567380Y-112164695D01*
X139573895Y-112168022D01*
X139573897Y-112168023D01*
X139650988Y-112207387D01*
X139722265Y-112243783D01*
X139729374Y-112245523D01*
X139729378Y-112245524D01*
X139848711Y-112274724D01*
X139891190Y-112285119D01*
X139896789Y-112285466D01*
X139896793Y-112285467D01*
X139900228Y-112285680D01*
X139900237Y-112285680D01*
X139902167Y-112285800D01*
X140027547Y-112285800D01*
X140117922Y-112275263D01*
X140149467Y-112271586D01*
X140149469Y-112271586D01*
X140156739Y-112270738D01*
X140163616Y-112268242D01*
X140163619Y-112268241D01*
X140313333Y-112213897D01*
X140320212Y-112211400D01*
X140465650Y-112116047D01*
X140585251Y-111989793D01*
X140672599Y-111839412D01*
X140677015Y-111824834D01*
X140720888Y-111679975D01*
X140723010Y-111672969D01*
X140728740Y-111580607D01*
X141266222Y-111580607D01*
X141267462Y-111587823D01*
X141267462Y-111587825D01*
X141268918Y-111596299D01*
X141295673Y-111752004D01*
X141298538Y-111758738D01*
X141298539Y-111758740D01*
X141342143Y-111861214D01*
X141363765Y-111912029D01*
X141466843Y-112052097D01*
X141599380Y-112164695D01*
X141605895Y-112168022D01*
X141605897Y-112168023D01*
X141682988Y-112207387D01*
X141754265Y-112243783D01*
X141761374Y-112245523D01*
X141761378Y-112245524D01*
X141880711Y-112274724D01*
X141923190Y-112285119D01*
X141928789Y-112285466D01*
X141928793Y-112285467D01*
X141932228Y-112285680D01*
X141932237Y-112285680D01*
X141934167Y-112285800D01*
X142059547Y-112285800D01*
X142149922Y-112275263D01*
X142181467Y-112271586D01*
X142181469Y-112271586D01*
X142188739Y-112270738D01*
X142195616Y-112268242D01*
X142195619Y-112268241D01*
X142345333Y-112213897D01*
X142352212Y-112211400D01*
X142497650Y-112116047D01*
X142617251Y-111989793D01*
X142704599Y-111839412D01*
X142709015Y-111824834D01*
X142733629Y-111743564D01*
X147885453Y-111743564D01*
X147901657Y-111890340D01*
X147952404Y-112029014D01*
X147956640Y-112035317D01*
X147956640Y-112035318D01*
X147968019Y-112052251D01*
X148034765Y-112151580D01*
X148040384Y-112156693D01*
X148040385Y-112156694D01*
X148056030Y-112170930D01*
X148143985Y-112250962D01*
X148273758Y-112321423D01*
X148416592Y-112358895D01*
X148493379Y-112360101D01*
X148556643Y-112361095D01*
X148556646Y-112361095D01*
X148564241Y-112361214D01*
X148616036Y-112349351D01*
X148700779Y-112329943D01*
X148700783Y-112329942D01*
X148708182Y-112328247D01*
X148792580Y-112285800D01*
X148833321Y-112265310D01*
X148833324Y-112265308D01*
X148840104Y-112261898D01*
X148952391Y-112165995D01*
X149038561Y-112046077D01*
X149066101Y-111977571D01*
X149090805Y-111916118D01*
X149090806Y-111916116D01*
X149093640Y-111909065D01*
X149104550Y-111832404D01*
X149113865Y-111766955D01*
X149113865Y-111766952D01*
X149114446Y-111762871D01*
X149114581Y-111750000D01*
X149096841Y-111603402D01*
X149044644Y-111465267D01*
X149007965Y-111411898D01*
X148965306Y-111349829D01*
X148965305Y-111349827D01*
X148961004Y-111343570D01*
X148935594Y-111320930D01*
X148875013Y-111266955D01*
X148850750Y-111245337D01*
X148847401Y-111243564D01*
X168135453Y-111243564D01*
X168151657Y-111390340D01*
X168154267Y-111397472D01*
X168195847Y-111511095D01*
X168202404Y-111529014D01*
X168206640Y-111535317D01*
X168206640Y-111535318D01*
X168218019Y-111552251D01*
X168284765Y-111651580D01*
X168393985Y-111750962D01*
X168523758Y-111821423D01*
X168666592Y-111858895D01*
X168743379Y-111860101D01*
X168806643Y-111861095D01*
X168806646Y-111861095D01*
X168814241Y-111861214D01*
X168881795Y-111845742D01*
X168950779Y-111829943D01*
X168950783Y-111829942D01*
X168958182Y-111828247D01*
X168978954Y-111817800D01*
X169083321Y-111765310D01*
X169083324Y-111765308D01*
X169090104Y-111761898D01*
X169202391Y-111665995D01*
X169288561Y-111546077D01*
X169318572Y-111471423D01*
X169340805Y-111416118D01*
X169340806Y-111416116D01*
X169343640Y-111409065D01*
X169364446Y-111262871D01*
X169364581Y-111250000D01*
X169346841Y-111103402D01*
X169294644Y-110965267D01*
X169228207Y-110868600D01*
X169215306Y-110849829D01*
X169215305Y-110849827D01*
X169211004Y-110843570D01*
X169202752Y-110836217D01*
X169144332Y-110784167D01*
X169100750Y-110745337D01*
X169093866Y-110741692D01*
X168976957Y-110679792D01*
X168976955Y-110679791D01*
X168970246Y-110676239D01*
X168923340Y-110664457D01*
X168834398Y-110642116D01*
X168834394Y-110642116D01*
X168827027Y-110640265D01*
X168819428Y-110640225D01*
X168819426Y-110640225D01*
X168757798Y-110639903D01*
X168679362Y-110639492D01*
X168671982Y-110641264D01*
X168671980Y-110641264D01*
X168543153Y-110672192D01*
X168543149Y-110672193D01*
X168535774Y-110673964D01*
X168404554Y-110741692D01*
X168398832Y-110746684D01*
X168398830Y-110746685D01*
X168299004Y-110833769D01*
X168293277Y-110838765D01*
X168208368Y-110959579D01*
X168205609Y-110966654D01*
X168205608Y-110966657D01*
X168159510Y-111084893D01*
X168154727Y-111097160D01*
X168153735Y-111104693D01*
X168153735Y-111104694D01*
X168140892Y-111202251D01*
X168135453Y-111243564D01*
X148847401Y-111243564D01*
X148841781Y-111240588D01*
X148726957Y-111179792D01*
X148726955Y-111179791D01*
X148720246Y-111176239D01*
X148663857Y-111162075D01*
X148584398Y-111142116D01*
X148584394Y-111142116D01*
X148577027Y-111140265D01*
X148569428Y-111140225D01*
X148569426Y-111140225D01*
X148507798Y-111139903D01*
X148429362Y-111139492D01*
X148421982Y-111141264D01*
X148421980Y-111141264D01*
X148293153Y-111172192D01*
X148293149Y-111172193D01*
X148285774Y-111173964D01*
X148154554Y-111241692D01*
X148148832Y-111246684D01*
X148148830Y-111246685D01*
X148085903Y-111301580D01*
X148043277Y-111338765D01*
X147958368Y-111459579D01*
X147955609Y-111466654D01*
X147955608Y-111466657D01*
X147908367Y-111587825D01*
X147904727Y-111597160D01*
X147903735Y-111604693D01*
X147903735Y-111604694D01*
X147894747Y-111672969D01*
X147885453Y-111743564D01*
X142733629Y-111743564D01*
X142752888Y-111679975D01*
X142755010Y-111672969D01*
X142765778Y-111499393D01*
X142760350Y-111467800D01*
X142750257Y-111409065D01*
X142736327Y-111327996D01*
X142733461Y-111321260D01*
X142671102Y-111174708D01*
X142671101Y-111174706D01*
X142668235Y-111167971D01*
X142565157Y-111027903D01*
X142516708Y-110986742D01*
X142478411Y-110928409D01*
X142441373Y-110921228D01*
X142435554Y-110917798D01*
X142432620Y-110915305D01*
X142277735Y-110836217D01*
X142270626Y-110834477D01*
X142270622Y-110834476D01*
X142151289Y-110805276D01*
X142108810Y-110794881D01*
X142103211Y-110794534D01*
X142103207Y-110794533D01*
X142099772Y-110794320D01*
X142099763Y-110794320D01*
X142097833Y-110794200D01*
X141972453Y-110794200D01*
X141882078Y-110804737D01*
X141850533Y-110808414D01*
X141850531Y-110808414D01*
X141843261Y-110809262D01*
X141836384Y-110811758D01*
X141836381Y-110811759D01*
X141734333Y-110848801D01*
X141679788Y-110868600D01*
X141610351Y-110914125D01*
X141554551Y-110950709D01*
X141534350Y-110963953D01*
X141414749Y-111090207D01*
X141327401Y-111240588D01*
X141325280Y-111247592D01*
X141325278Y-111247596D01*
X141295783Y-111344983D01*
X141276990Y-111407031D01*
X141266222Y-111580607D01*
X140728740Y-111580607D01*
X140733778Y-111499393D01*
X140728350Y-111467800D01*
X140718257Y-111409065D01*
X140704327Y-111327996D01*
X140701461Y-111321260D01*
X140639102Y-111174708D01*
X140639101Y-111174706D01*
X140636235Y-111167971D01*
X140533157Y-111027903D01*
X140400620Y-110915305D01*
X140394105Y-110911978D01*
X140394103Y-110911977D01*
X140304263Y-110866103D01*
X140245735Y-110836217D01*
X140238626Y-110834477D01*
X140238622Y-110834476D01*
X140119289Y-110805276D01*
X140076810Y-110794881D01*
X140071211Y-110794534D01*
X140071207Y-110794533D01*
X140067772Y-110794320D01*
X140067763Y-110794320D01*
X140065833Y-110794200D01*
X139940453Y-110794200D01*
X139850078Y-110804737D01*
X139818533Y-110808414D01*
X139818531Y-110808414D01*
X139811261Y-110809262D01*
X139804384Y-110811758D01*
X139804381Y-110811759D01*
X139702333Y-110848801D01*
X139647788Y-110868600D01*
X139578351Y-110914125D01*
X139544929Y-110936037D01*
X139496598Y-110950709D01*
X139477652Y-110990023D01*
X139387787Y-111084888D01*
X139387784Y-111084892D01*
X139382749Y-111090207D01*
X139295401Y-111240588D01*
X139293280Y-111247592D01*
X139293278Y-111247596D01*
X139263783Y-111344983D01*
X139244990Y-111407031D01*
X139234222Y-111580607D01*
X124254000Y-111580607D01*
X124254000Y-110550000D01*
X127365500Y-110550000D01*
X127385416Y-110701280D01*
X127443808Y-110842250D01*
X127484969Y-110895892D01*
X127527032Y-110950709D01*
X127536696Y-110963304D01*
X127543242Y-110968327D01*
X127548511Y-110972370D01*
X127657750Y-111056192D01*
X127798720Y-111114584D01*
X127912020Y-111129500D01*
X127987980Y-111129500D01*
X128101280Y-111114584D01*
X128242250Y-111056192D01*
X128351489Y-110972370D01*
X128356758Y-110968327D01*
X128363304Y-110963304D01*
X128372969Y-110950709D01*
X128415031Y-110895892D01*
X128416817Y-110893564D01*
X132885453Y-110893564D01*
X132901657Y-111040340D01*
X132904267Y-111047472D01*
X132938590Y-111141264D01*
X132952404Y-111179014D01*
X132956640Y-111185317D01*
X132956640Y-111185318D01*
X133008754Y-111262871D01*
X133034765Y-111301580D01*
X133040384Y-111306693D01*
X133040385Y-111306694D01*
X133138369Y-111395852D01*
X133143985Y-111400962D01*
X133273758Y-111471423D01*
X133416592Y-111508895D01*
X133493379Y-111510101D01*
X133556643Y-111511095D01*
X133556646Y-111511095D01*
X133564241Y-111511214D01*
X133616036Y-111499351D01*
X133700779Y-111479943D01*
X133700783Y-111479942D01*
X133708182Y-111478247D01*
X133728954Y-111467800D01*
X133833321Y-111415310D01*
X133833324Y-111415308D01*
X133840104Y-111411898D01*
X133928117Y-111336727D01*
X133946613Y-111320930D01*
X133952391Y-111315995D01*
X134038561Y-111196077D01*
X134075297Y-111104694D01*
X134090805Y-111066118D01*
X134090806Y-111066116D01*
X134093640Y-111059065D01*
X134107176Y-110963953D01*
X134113865Y-110916955D01*
X134113865Y-110916952D01*
X134114446Y-110912871D01*
X134114581Y-110900000D01*
X134096841Y-110753402D01*
X134044644Y-110615267D01*
X133961004Y-110493570D01*
X133850750Y-110395337D01*
X133842731Y-110391091D01*
X133726957Y-110329792D01*
X133726955Y-110329791D01*
X133720246Y-110326239D01*
X133673340Y-110314457D01*
X133584398Y-110292116D01*
X133584394Y-110292116D01*
X133577027Y-110290265D01*
X133569428Y-110290225D01*
X133569426Y-110290225D01*
X133507798Y-110289903D01*
X133429362Y-110289492D01*
X133421982Y-110291264D01*
X133421980Y-110291264D01*
X133293153Y-110322192D01*
X133293149Y-110322193D01*
X133285774Y-110323964D01*
X133154554Y-110391692D01*
X133148832Y-110396684D01*
X133148830Y-110396685D01*
X133049004Y-110483769D01*
X133043277Y-110488765D01*
X132958368Y-110609579D01*
X132955609Y-110616654D01*
X132955608Y-110616657D01*
X132908217Y-110738209D01*
X132904727Y-110747160D01*
X132903735Y-110754693D01*
X132903735Y-110754694D01*
X132891211Y-110849829D01*
X132885453Y-110893564D01*
X128416817Y-110893564D01*
X128456192Y-110842250D01*
X128514584Y-110701280D01*
X128534500Y-110550000D01*
X128514584Y-110398720D01*
X128456192Y-110257750D01*
X128363304Y-110136696D01*
X128242250Y-110043808D01*
X128101280Y-109985416D01*
X127987980Y-109970500D01*
X127912020Y-109970500D01*
X127798720Y-109985416D01*
X127657750Y-110043808D01*
X127536696Y-110136696D01*
X127443808Y-110257750D01*
X127385416Y-110398720D01*
X127365500Y-110550000D01*
X124254000Y-110550000D01*
X124254000Y-108043564D01*
X136885453Y-108043564D01*
X136901657Y-108190340D01*
X136904267Y-108197472D01*
X136948091Y-108317227D01*
X136952404Y-108329014D01*
X136956640Y-108335317D01*
X136956640Y-108335318D01*
X137017737Y-108426239D01*
X137034765Y-108451580D01*
X137040384Y-108456693D01*
X137040385Y-108456694D01*
X137084335Y-108496685D01*
X137143985Y-108550962D01*
X137246697Y-108606730D01*
X137297017Y-108656811D01*
X137312274Y-108726149D01*
X137285456Y-108795552D01*
X137254853Y-108834302D01*
X137140261Y-109041886D01*
X137138537Y-109046755D01*
X137138535Y-109046759D01*
X137063307Y-109259197D01*
X137061111Y-109265398D01*
X137060204Y-109270491D01*
X137060203Y-109270494D01*
X137053862Y-109306095D01*
X137019529Y-109498835D01*
X137019466Y-109503998D01*
X137017607Y-109656229D01*
X137016633Y-109735930D01*
X137052498Y-109970314D01*
X137054106Y-109975233D01*
X137054106Y-109975234D01*
X137106881Y-110136696D01*
X137126164Y-110195693D01*
X137128553Y-110200282D01*
X137227882Y-110391091D01*
X137235650Y-110406014D01*
X137238753Y-110410147D01*
X137238755Y-110410150D01*
X137343757Y-110550000D01*
X137378017Y-110595630D01*
X137381755Y-110599202D01*
X137529176Y-110740080D01*
X137549441Y-110759446D01*
X137553713Y-110762360D01*
X137553714Y-110762361D01*
X137601011Y-110794625D01*
X137745319Y-110893065D01*
X137750008Y-110895241D01*
X137750014Y-110895245D01*
X137955696Y-110990719D01*
X137955700Y-110990720D01*
X137960391Y-110992898D01*
X138188879Y-111056264D01*
X138194013Y-111056813D01*
X138194015Y-111056813D01*
X138379112Y-111076594D01*
X138379119Y-111076594D01*
X138382447Y-111076950D01*
X138520110Y-111076950D01*
X138522683Y-111076738D01*
X138522694Y-111076738D01*
X138691164Y-111062887D01*
X138691170Y-111062886D01*
X138696315Y-111062463D01*
X138833905Y-111027903D01*
X138921273Y-111005958D01*
X138921277Y-111005957D01*
X138926284Y-111004699D01*
X138931017Y-111002641D01*
X138931020Y-111002640D01*
X139138993Y-110912211D01*
X139138996Y-110912209D01*
X139143730Y-110910151D01*
X139148065Y-110907347D01*
X139148068Y-110907345D01*
X139211818Y-110866103D01*
X139317741Y-110797578D01*
X139364405Y-110783724D01*
X139379871Y-110749025D01*
X139391036Y-110737480D01*
X139518190Y-110621778D01*
X139521389Y-110617727D01*
X139521393Y-110617723D01*
X139661945Y-110439753D01*
X139661947Y-110439749D01*
X139665147Y-110435698D01*
X139779739Y-110228114D01*
X139843226Y-110048835D01*
X139857163Y-110009477D01*
X139857164Y-110009473D01*
X139858889Y-110004602D01*
X139862499Y-109984338D01*
X139899565Y-109776253D01*
X139899565Y-109776249D01*
X139900471Y-109771165D01*
X139901913Y-109653069D01*
X139922746Y-109585199D01*
X139976965Y-109539365D01*
X140047357Y-109530120D01*
X140088027Y-109543878D01*
X140138758Y-109571423D01*
X140281592Y-109608895D01*
X140358379Y-109610101D01*
X140421643Y-109611095D01*
X140421646Y-109611095D01*
X140429241Y-109611214D01*
X140481036Y-109599351D01*
X140565779Y-109579943D01*
X140565783Y-109579942D01*
X140573182Y-109578247D01*
X140616557Y-109556432D01*
X140698321Y-109515310D01*
X140698324Y-109515308D01*
X140705104Y-109511898D01*
X140817391Y-109415995D01*
X140868386Y-109345028D01*
X140898698Y-109302845D01*
X140954692Y-109259197D01*
X141025396Y-109252751D01*
X141088360Y-109285554D01*
X141105600Y-109306093D01*
X141169765Y-109401580D01*
X141278985Y-109500962D01*
X141408758Y-109571423D01*
X141551592Y-109608895D01*
X141628379Y-109610101D01*
X141691643Y-109611095D01*
X141691646Y-109611095D01*
X141699241Y-109611214D01*
X141751036Y-109599351D01*
X141835779Y-109579943D01*
X141835783Y-109579942D01*
X141843182Y-109578247D01*
X141915002Y-109542126D01*
X141984846Y-109529388D01*
X142050489Y-109556432D01*
X142091091Y-109614673D01*
X142097606Y-109656229D01*
X142096696Y-109730759D01*
X142096633Y-109735930D01*
X142132498Y-109970314D01*
X142134106Y-109975233D01*
X142134106Y-109975234D01*
X142186881Y-110136696D01*
X142206164Y-110195693D01*
X142208553Y-110200282D01*
X142307882Y-110391091D01*
X142315650Y-110406014D01*
X142318753Y-110410147D01*
X142318755Y-110410150D01*
X142423757Y-110550000D01*
X142458017Y-110595630D01*
X142560006Y-110693092D01*
X142586285Y-110718205D01*
X142616817Y-110771223D01*
X142649510Y-110775599D01*
X142669283Y-110786625D01*
X142825319Y-110893065D01*
X142830008Y-110895241D01*
X142830014Y-110895245D01*
X143035696Y-110990719D01*
X143035700Y-110990720D01*
X143040391Y-110992898D01*
X143268879Y-111056264D01*
X143274013Y-111056813D01*
X143274015Y-111056813D01*
X143459112Y-111076594D01*
X143459119Y-111076594D01*
X143462447Y-111076950D01*
X143600110Y-111076950D01*
X143602683Y-111076738D01*
X143602694Y-111076738D01*
X143771164Y-111062887D01*
X143771170Y-111062886D01*
X143776315Y-111062463D01*
X143913905Y-111027903D01*
X144001273Y-111005958D01*
X144001277Y-111005957D01*
X144006284Y-111004699D01*
X144011017Y-111002641D01*
X144011020Y-111002640D01*
X144218993Y-110912211D01*
X144218996Y-110912209D01*
X144223730Y-110910151D01*
X144422814Y-110781358D01*
X144433953Y-110771223D01*
X144594368Y-110625256D01*
X144594375Y-110625249D01*
X144598190Y-110621778D01*
X144601389Y-110617727D01*
X144601393Y-110617723D01*
X144741945Y-110439753D01*
X144741947Y-110439749D01*
X144745147Y-110435698D01*
X144859739Y-110228114D01*
X144923226Y-110048835D01*
X144937163Y-110009477D01*
X144937164Y-110009473D01*
X144938889Y-110004602D01*
X144942499Y-109984338D01*
X144979565Y-109776253D01*
X144979565Y-109776249D01*
X144980471Y-109771165D01*
X144981875Y-109656229D01*
X144983304Y-109539241D01*
X144983304Y-109539239D01*
X144983367Y-109534070D01*
X144947502Y-109299686D01*
X144938414Y-109271880D01*
X144875442Y-109079220D01*
X144875441Y-109079218D01*
X144873836Y-109074307D01*
X144831804Y-108993564D01*
X147885453Y-108993564D01*
X147901657Y-109140340D01*
X147952404Y-109279014D01*
X147956640Y-109285317D01*
X147956640Y-109285318D01*
X147969736Y-109304806D01*
X148034765Y-109401580D01*
X148143985Y-109500962D01*
X148273758Y-109571423D01*
X148416592Y-109608895D01*
X148493379Y-109610101D01*
X148556643Y-109611095D01*
X148556646Y-109611095D01*
X148564241Y-109611214D01*
X148616036Y-109599351D01*
X148700779Y-109579943D01*
X148700783Y-109579942D01*
X148708182Y-109578247D01*
X148751557Y-109556432D01*
X148833321Y-109515310D01*
X148833324Y-109515308D01*
X148840104Y-109511898D01*
X148952391Y-109415995D01*
X149038561Y-109296077D01*
X149093640Y-109159065D01*
X149114446Y-109012871D01*
X149114581Y-109000000D01*
X149096841Y-108853402D01*
X149044644Y-108715267D01*
X149014081Y-108670798D01*
X148962135Y-108595215D01*
X148940035Y-108527745D01*
X148957921Y-108459039D01*
X148963653Y-108450322D01*
X148967280Y-108445275D01*
X149038561Y-108346077D01*
X149093640Y-108209065D01*
X149104495Y-108132791D01*
X149113865Y-108066955D01*
X149113865Y-108066952D01*
X149114446Y-108062871D01*
X149114581Y-108050000D01*
X149107752Y-107993564D01*
X168135453Y-107993564D01*
X168151657Y-108140340D01*
X168154267Y-108147472D01*
X168198057Y-108267134D01*
X168202404Y-108279014D01*
X168206640Y-108285317D01*
X168206640Y-108285318D01*
X168277162Y-108390265D01*
X168284765Y-108401580D01*
X168290384Y-108406693D01*
X168290385Y-108406694D01*
X168380445Y-108488642D01*
X168393985Y-108500962D01*
X168523758Y-108571423D01*
X168666592Y-108608895D01*
X168743379Y-108610101D01*
X168806643Y-108611095D01*
X168806646Y-108611095D01*
X168814241Y-108611214D01*
X168871024Y-108598209D01*
X168950779Y-108579943D01*
X168950783Y-108579942D01*
X168958182Y-108578247D01*
X168978954Y-108567800D01*
X169083321Y-108515310D01*
X169083324Y-108515308D01*
X169090104Y-108511898D01*
X169202391Y-108415995D01*
X169273363Y-108317227D01*
X169329358Y-108273580D01*
X169400061Y-108267134D01*
X169463025Y-108299937D01*
X169480267Y-108320478D01*
X169527162Y-108390265D01*
X169534765Y-108401580D01*
X169540384Y-108406693D01*
X169540385Y-108406694D01*
X169630445Y-108488642D01*
X169643985Y-108500962D01*
X169773758Y-108571423D01*
X169916592Y-108608895D01*
X169993379Y-108610101D01*
X170056643Y-108611095D01*
X170056646Y-108611095D01*
X170064241Y-108611214D01*
X170121024Y-108598209D01*
X170200779Y-108579943D01*
X170200783Y-108579942D01*
X170208182Y-108578247D01*
X170228954Y-108567800D01*
X170333321Y-108515310D01*
X170333324Y-108515308D01*
X170340104Y-108511898D01*
X170452391Y-108415995D01*
X170538561Y-108296077D01*
X170575010Y-108205409D01*
X170590805Y-108166118D01*
X170590806Y-108166116D01*
X170593640Y-108159065D01*
X170607917Y-108058746D01*
X170613865Y-108016955D01*
X170613865Y-108016952D01*
X170614446Y-108012871D01*
X170614581Y-108000000D01*
X170596841Y-107853402D01*
X170544644Y-107715267D01*
X170461004Y-107593570D01*
X170454036Y-107587361D01*
X170398868Y-107538209D01*
X170350750Y-107495337D01*
X170343866Y-107491692D01*
X170226957Y-107429792D01*
X170226955Y-107429791D01*
X170220246Y-107426239D01*
X170173340Y-107414457D01*
X170084398Y-107392116D01*
X170084394Y-107392116D01*
X170077027Y-107390265D01*
X170069428Y-107390225D01*
X170069426Y-107390225D01*
X170007798Y-107389903D01*
X169929362Y-107389492D01*
X169921982Y-107391264D01*
X169921980Y-107391264D01*
X169793153Y-107422192D01*
X169793149Y-107422193D01*
X169785774Y-107423964D01*
X169703489Y-107466434D01*
X169684494Y-107476239D01*
X169654554Y-107491692D01*
X169648832Y-107496684D01*
X169648830Y-107496685D01*
X169592211Y-107546077D01*
X169543277Y-107588765D01*
X169477858Y-107681848D01*
X169422324Y-107726079D01*
X169351692Y-107733265D01*
X169288387Y-107701124D01*
X169270931Y-107680764D01*
X169215306Y-107599829D01*
X169215305Y-107599827D01*
X169211004Y-107593570D01*
X169204036Y-107587361D01*
X169148868Y-107538209D01*
X169100750Y-107495337D01*
X169093866Y-107491692D01*
X168976957Y-107429792D01*
X168976955Y-107429791D01*
X168970246Y-107426239D01*
X168923340Y-107414457D01*
X168834398Y-107392116D01*
X168834394Y-107392116D01*
X168827027Y-107390265D01*
X168819428Y-107390225D01*
X168819426Y-107390225D01*
X168757798Y-107389903D01*
X168679362Y-107389492D01*
X168671982Y-107391264D01*
X168671980Y-107391264D01*
X168543153Y-107422192D01*
X168543149Y-107422193D01*
X168535774Y-107423964D01*
X168453489Y-107466434D01*
X168434494Y-107476239D01*
X168404554Y-107491692D01*
X168398832Y-107496684D01*
X168398830Y-107496685D01*
X168342211Y-107546077D01*
X168293277Y-107588765D01*
X168208368Y-107709579D01*
X168205609Y-107716654D01*
X168205608Y-107716657D01*
X168161440Y-107829943D01*
X168154727Y-107847160D01*
X168153735Y-107854693D01*
X168153735Y-107854694D01*
X168147153Y-107904694D01*
X168135453Y-107993564D01*
X149107752Y-107993564D01*
X149096841Y-107903402D01*
X149044644Y-107765267D01*
X148979808Y-107670930D01*
X148965306Y-107649829D01*
X148965305Y-107649827D01*
X148961004Y-107643570D01*
X148850750Y-107545337D01*
X148838827Y-107539024D01*
X148726957Y-107479792D01*
X148726955Y-107479791D01*
X148720246Y-107476239D01*
X148673340Y-107464457D01*
X148584398Y-107442116D01*
X148584394Y-107442116D01*
X148577027Y-107440265D01*
X148569428Y-107440225D01*
X148569426Y-107440225D01*
X148507798Y-107439903D01*
X148429362Y-107439492D01*
X148421982Y-107441264D01*
X148421980Y-107441264D01*
X148293153Y-107472192D01*
X148293149Y-107472193D01*
X148285774Y-107473964D01*
X148154554Y-107541692D01*
X148148832Y-107546684D01*
X148148830Y-107546685D01*
X148100877Y-107588517D01*
X148043277Y-107638765D01*
X147958368Y-107759579D01*
X147955609Y-107766654D01*
X147955608Y-107766657D01*
X147908508Y-107887463D01*
X147904727Y-107897160D01*
X147903735Y-107904693D01*
X147903735Y-107904694D01*
X147889494Y-108012871D01*
X147885453Y-108043564D01*
X147901657Y-108190340D01*
X147904267Y-108197472D01*
X147948091Y-108317227D01*
X147952404Y-108329014D01*
X147956640Y-108335317D01*
X147956640Y-108335318D01*
X148034765Y-108451580D01*
X148033135Y-108452675D01*
X148058303Y-108508064D01*
X148048066Y-108578319D01*
X148036639Y-108598209D01*
X147962737Y-108703362D01*
X147962736Y-108703364D01*
X147958368Y-108709579D01*
X147955609Y-108716654D01*
X147955608Y-108716657D01*
X147907977Y-108838825D01*
X147904727Y-108847160D01*
X147903735Y-108854693D01*
X147903735Y-108854694D01*
X147902913Y-108860942D01*
X147885453Y-108993564D01*
X144831804Y-108993564D01*
X144764350Y-108863986D01*
X144757374Y-108854694D01*
X144625088Y-108678505D01*
X144625086Y-108678502D01*
X144621983Y-108674370D01*
X144487496Y-108545852D01*
X144454296Y-108514125D01*
X144454295Y-108514124D01*
X144450559Y-108510554D01*
X144422909Y-108491692D01*
X144276935Y-108392116D01*
X144254681Y-108376935D01*
X144249992Y-108374759D01*
X144249986Y-108374755D01*
X144044304Y-108279281D01*
X144044300Y-108279280D01*
X144039609Y-108277102D01*
X143811121Y-108213736D01*
X143805987Y-108213187D01*
X143805985Y-108213187D01*
X143620888Y-108193406D01*
X143620881Y-108193406D01*
X143617553Y-108193050D01*
X143479890Y-108193050D01*
X143477317Y-108193262D01*
X143477306Y-108193262D01*
X143308836Y-108207113D01*
X143308830Y-108207114D01*
X143303685Y-108207537D01*
X143188701Y-108236419D01*
X143078727Y-108264042D01*
X143078723Y-108264043D01*
X143073716Y-108265301D01*
X143068983Y-108267359D01*
X143068980Y-108267360D01*
X142861007Y-108357789D01*
X142861004Y-108357791D01*
X142856270Y-108359849D01*
X142657186Y-108488642D01*
X142653363Y-108492121D01*
X142653360Y-108492123D01*
X142485632Y-108644744D01*
X142481810Y-108648222D01*
X142478611Y-108652273D01*
X142478607Y-108652277D01*
X142398324Y-108753934D01*
X142340407Y-108794997D01*
X142269484Y-108798229D01*
X142208073Y-108762604D01*
X142186755Y-108728632D01*
X142185849Y-108729105D01*
X142182328Y-108722370D01*
X142179644Y-108715267D01*
X142115147Y-108621423D01*
X142100306Y-108599829D01*
X142100305Y-108599827D01*
X142096004Y-108593570D01*
X142080710Y-108579943D01*
X142019502Y-108525409D01*
X141985750Y-108495337D01*
X141978866Y-108491692D01*
X141861957Y-108429792D01*
X141861955Y-108429791D01*
X141855246Y-108426239D01*
X141777434Y-108406694D01*
X141719398Y-108392116D01*
X141719394Y-108392116D01*
X141712027Y-108390265D01*
X141704428Y-108390225D01*
X141704426Y-108390225D01*
X141642798Y-108389903D01*
X141564362Y-108389492D01*
X141556982Y-108391264D01*
X141556980Y-108391264D01*
X141428153Y-108422192D01*
X141428149Y-108422193D01*
X141420774Y-108423964D01*
X141414029Y-108427445D01*
X141414030Y-108427445D01*
X141300906Y-108485833D01*
X141289554Y-108491692D01*
X141283832Y-108496684D01*
X141283830Y-108496685D01*
X141195949Y-108573349D01*
X141178277Y-108588765D01*
X141102746Y-108696236D01*
X141047212Y-108740467D01*
X140976580Y-108747653D01*
X140913275Y-108715512D01*
X140895819Y-108695152D01*
X140830306Y-108599829D01*
X140830305Y-108599827D01*
X140826004Y-108593570D01*
X140810710Y-108579943D01*
X140749502Y-108525409D01*
X140715750Y-108495337D01*
X140708866Y-108491692D01*
X140591957Y-108429792D01*
X140591955Y-108429791D01*
X140585246Y-108426239D01*
X140507434Y-108406694D01*
X140449398Y-108392116D01*
X140449394Y-108392116D01*
X140442027Y-108390265D01*
X140434428Y-108390225D01*
X140434426Y-108390225D01*
X140372798Y-108389903D01*
X140294362Y-108389492D01*
X140286982Y-108391264D01*
X140286980Y-108391264D01*
X140158153Y-108422192D01*
X140158149Y-108422193D01*
X140150774Y-108423964D01*
X140144029Y-108427445D01*
X140144030Y-108427445D01*
X140030906Y-108485833D01*
X140019554Y-108491692D01*
X140013832Y-108496684D01*
X140013830Y-108496685D01*
X139925949Y-108573349D01*
X139908277Y-108588765D01*
X139823368Y-108709579D01*
X139818460Y-108722167D01*
X139775081Y-108778368D01*
X139708202Y-108802196D01*
X139639058Y-108786084D01*
X139600306Y-108752050D01*
X139591610Y-108740467D01*
X139541983Y-108674370D01*
X139407496Y-108545852D01*
X139374296Y-108514125D01*
X139374295Y-108514124D01*
X139370559Y-108510554D01*
X139342909Y-108491692D01*
X139196935Y-108392116D01*
X139174681Y-108376935D01*
X139169992Y-108374759D01*
X139169986Y-108374755D01*
X138964304Y-108279281D01*
X138964300Y-108279280D01*
X138959609Y-108277102D01*
X138731121Y-108213736D01*
X138725987Y-108213187D01*
X138725985Y-108213187D01*
X138540888Y-108193406D01*
X138540881Y-108193406D01*
X138537553Y-108193050D01*
X138399890Y-108193050D01*
X138397315Y-108193262D01*
X138397308Y-108193262D01*
X138346105Y-108197472D01*
X138249572Y-108205409D01*
X138180043Y-108191056D01*
X138129310Y-108141391D01*
X138113612Y-108070274D01*
X138113864Y-108066960D01*
X138114446Y-108062871D01*
X138114581Y-108050000D01*
X138111950Y-108028262D01*
X138123625Y-107958234D01*
X138171307Y-107905632D01*
X138239858Y-107887160D01*
X138250417Y-107887840D01*
X138317769Y-107895038D01*
X138379112Y-107901594D01*
X138379119Y-107901594D01*
X138382447Y-107901950D01*
X138520110Y-107901950D01*
X138522683Y-107901738D01*
X138522694Y-107901738D01*
X138691164Y-107887887D01*
X138691170Y-107887886D01*
X138696315Y-107887463D01*
X138817725Y-107856967D01*
X138921273Y-107830958D01*
X138921277Y-107830957D01*
X138926284Y-107829699D01*
X138931017Y-107827641D01*
X138931020Y-107827640D01*
X139138993Y-107737211D01*
X139138996Y-107737209D01*
X139143730Y-107735151D01*
X139342814Y-107606358D01*
X139349990Y-107599829D01*
X139514368Y-107450256D01*
X139514370Y-107450254D01*
X139518190Y-107446778D01*
X139521389Y-107442727D01*
X139521393Y-107442723D01*
X139661945Y-107264753D01*
X139661947Y-107264749D01*
X139665147Y-107260698D01*
X139674606Y-107243564D01*
X139751265Y-107104694D01*
X139779739Y-107053114D01*
X139783269Y-107043148D01*
X139857163Y-106834477D01*
X139857164Y-106834473D01*
X139858889Y-106829602D01*
X139859797Y-106824506D01*
X139899565Y-106601253D01*
X139899565Y-106601249D01*
X139900471Y-106596165D01*
X139901635Y-106500824D01*
X140246201Y-106500824D01*
X140275810Y-106673141D01*
X140278676Y-106679875D01*
X140278676Y-106679877D01*
X140327796Y-106795314D01*
X140344267Y-106834024D01*
X140447898Y-106974843D01*
X140581146Y-107088045D01*
X140736862Y-107167558D01*
X140743967Y-107169297D01*
X140743971Y-107169298D01*
X140825084Y-107189146D01*
X140906693Y-107209115D01*
X140912295Y-107209463D01*
X140912298Y-107209463D01*
X140915795Y-107209680D01*
X140915805Y-107209680D01*
X140917734Y-107209800D01*
X141043779Y-107209800D01*
X141135182Y-107199144D01*
X141166393Y-107195505D01*
X141166395Y-107195505D01*
X141173665Y-107194657D01*
X141180543Y-107192161D01*
X141180545Y-107192160D01*
X141331136Y-107137498D01*
X141338015Y-107135001D01*
X141484233Y-107039136D01*
X141604475Y-106912205D01*
X141608150Y-106905878D01*
X141608153Y-106905874D01*
X141688615Y-106767347D01*
X141692292Y-106761017D01*
X141698118Y-106741784D01*
X141740851Y-106600688D01*
X141742973Y-106593682D01*
X141745005Y-106560930D01*
X142096633Y-106560930D01*
X142132498Y-106795314D01*
X142134106Y-106800233D01*
X142134106Y-106800234D01*
X142204520Y-107015662D01*
X142206164Y-107020693D01*
X142315650Y-107231014D01*
X142318753Y-107235147D01*
X142318755Y-107235150D01*
X142454629Y-107416118D01*
X142458017Y-107420630D01*
X142629441Y-107584446D01*
X142633713Y-107587360D01*
X142633714Y-107587361D01*
X142748987Y-107665995D01*
X142825319Y-107718065D01*
X142830008Y-107720241D01*
X142830014Y-107720245D01*
X143035696Y-107815719D01*
X143035700Y-107815720D01*
X143040391Y-107817898D01*
X143268879Y-107881264D01*
X143274013Y-107881813D01*
X143274015Y-107881813D01*
X143459112Y-107901594D01*
X143459119Y-107901594D01*
X143462447Y-107901950D01*
X143600110Y-107901950D01*
X143602683Y-107901738D01*
X143602694Y-107901738D01*
X143771164Y-107887887D01*
X143771170Y-107887886D01*
X143776315Y-107887463D01*
X143897725Y-107856967D01*
X144001273Y-107830958D01*
X144001277Y-107830957D01*
X144006284Y-107829699D01*
X144011017Y-107827641D01*
X144011020Y-107827640D01*
X144218993Y-107737211D01*
X144218996Y-107737209D01*
X144223730Y-107735151D01*
X144422814Y-107606358D01*
X144429990Y-107599829D01*
X144594368Y-107450256D01*
X144594370Y-107450254D01*
X144598190Y-107446778D01*
X144601389Y-107442727D01*
X144601393Y-107442723D01*
X144741945Y-107264753D01*
X144741947Y-107264749D01*
X144745147Y-107260698D01*
X144754606Y-107243564D01*
X144831265Y-107104694D01*
X144859739Y-107053114D01*
X144863269Y-107043148D01*
X144937163Y-106834477D01*
X144937164Y-106834473D01*
X144938889Y-106829602D01*
X144939797Y-106824506D01*
X144979565Y-106601253D01*
X144979565Y-106601249D01*
X144980471Y-106596165D01*
X144983001Y-106389024D01*
X144983304Y-106364241D01*
X144983304Y-106364239D01*
X144983367Y-106359070D01*
X144947502Y-106124686D01*
X144940785Y-106104135D01*
X144937330Y-106093564D01*
X155635453Y-106093564D01*
X155651657Y-106240340D01*
X155654267Y-106247472D01*
X155695847Y-106361095D01*
X155702404Y-106379014D01*
X155706640Y-106385317D01*
X155706640Y-106385318D01*
X155750105Y-106450000D01*
X155784765Y-106501580D01*
X155790384Y-106506693D01*
X155790385Y-106506694D01*
X155877956Y-106586377D01*
X155893985Y-106600962D01*
X156023758Y-106671423D01*
X156166592Y-106708895D01*
X156243379Y-106710101D01*
X156306643Y-106711095D01*
X156306646Y-106711095D01*
X156314241Y-106711214D01*
X156366036Y-106699351D01*
X156450779Y-106679943D01*
X156450783Y-106679942D01*
X156458182Y-106678247D01*
X156482676Y-106665928D01*
X156583321Y-106615310D01*
X156583324Y-106615308D01*
X156590104Y-106611898D01*
X156702391Y-106515995D01*
X156788561Y-106396077D01*
X156819648Y-106318747D01*
X156840805Y-106266118D01*
X156840806Y-106266116D01*
X156843640Y-106259065D01*
X156857764Y-106159821D01*
X156863865Y-106116955D01*
X156863865Y-106116952D01*
X156864446Y-106112871D01*
X156864581Y-106100000D01*
X156862171Y-106080080D01*
X156857202Y-106039024D01*
X156846841Y-105953402D01*
X156794644Y-105815267D01*
X156786463Y-105803363D01*
X156745364Y-105743564D01*
X165135453Y-105743564D01*
X165151657Y-105890340D01*
X165155755Y-105901539D01*
X165196956Y-106014126D01*
X165202404Y-106029014D01*
X165206640Y-106035317D01*
X165206640Y-106035318D01*
X165258754Y-106112871D01*
X165284765Y-106151580D01*
X165290384Y-106156693D01*
X165290385Y-106156694D01*
X165388369Y-106245852D01*
X165393985Y-106250962D01*
X165523758Y-106321423D01*
X165666592Y-106358895D01*
X165743379Y-106360101D01*
X165806643Y-106361095D01*
X165806646Y-106361095D01*
X165814241Y-106361214D01*
X165866036Y-106349351D01*
X165950779Y-106329943D01*
X165950783Y-106329942D01*
X165958182Y-106328247D01*
X165973264Y-106320662D01*
X166083321Y-106265310D01*
X166083324Y-106265308D01*
X166090104Y-106261898D01*
X166202391Y-106165995D01*
X166288561Y-106046077D01*
X166325297Y-105954694D01*
X166340805Y-105916118D01*
X166340806Y-105916116D01*
X166343640Y-105909065D01*
X166364446Y-105762871D01*
X166364509Y-105756820D01*
X166364538Y-105754135D01*
X166364538Y-105754129D01*
X166364581Y-105750000D01*
X166346841Y-105603402D01*
X166294644Y-105465267D01*
X166211004Y-105343570D01*
X166198736Y-105332639D01*
X166106421Y-105250390D01*
X166100750Y-105245337D01*
X166093866Y-105241692D01*
X165976957Y-105179792D01*
X165976955Y-105179791D01*
X165970246Y-105176239D01*
X165923340Y-105164457D01*
X165834398Y-105142116D01*
X165834394Y-105142116D01*
X165827027Y-105140265D01*
X165819428Y-105140225D01*
X165819426Y-105140225D01*
X165757798Y-105139903D01*
X165679362Y-105139492D01*
X165671982Y-105141264D01*
X165671980Y-105141264D01*
X165543153Y-105172192D01*
X165543149Y-105172193D01*
X165535774Y-105173964D01*
X165404554Y-105241692D01*
X165293277Y-105338765D01*
X165208368Y-105459579D01*
X165205609Y-105466654D01*
X165205608Y-105466657D01*
X165158217Y-105588209D01*
X165154727Y-105597160D01*
X165153735Y-105604693D01*
X165153735Y-105604694D01*
X165137852Y-105725343D01*
X165135453Y-105743564D01*
X156745364Y-105743564D01*
X156715306Y-105699829D01*
X156715305Y-105699827D01*
X156711004Y-105693570D01*
X156600750Y-105595337D01*
X156593866Y-105591692D01*
X156476957Y-105529792D01*
X156476955Y-105529791D01*
X156470246Y-105526239D01*
X156423340Y-105514457D01*
X156334398Y-105492116D01*
X156334394Y-105492116D01*
X156327027Y-105490265D01*
X156319428Y-105490225D01*
X156319426Y-105490225D01*
X156257798Y-105489903D01*
X156179362Y-105489492D01*
X156171982Y-105491264D01*
X156171980Y-105491264D01*
X156043153Y-105522192D01*
X156043149Y-105522193D01*
X156035774Y-105523964D01*
X155904554Y-105591692D01*
X155898832Y-105596684D01*
X155898830Y-105596685D01*
X155882487Y-105610942D01*
X155793277Y-105688765D01*
X155708368Y-105809579D01*
X155705609Y-105816654D01*
X155705608Y-105816657D01*
X155666830Y-105916118D01*
X155654727Y-105947160D01*
X155653735Y-105954693D01*
X155653735Y-105954694D01*
X155636512Y-106085523D01*
X155635453Y-106093564D01*
X144937330Y-106093564D01*
X144875442Y-105904220D01*
X144875441Y-105904218D01*
X144873836Y-105899307D01*
X144764350Y-105688986D01*
X144739019Y-105655247D01*
X144625088Y-105503505D01*
X144625086Y-105503502D01*
X144621983Y-105499370D01*
X144450559Y-105335554D01*
X144414320Y-105310833D01*
X144258960Y-105204854D01*
X144258961Y-105204854D01*
X144254681Y-105201935D01*
X144249992Y-105199759D01*
X144249986Y-105199755D01*
X144044304Y-105104281D01*
X144044300Y-105104280D01*
X144039609Y-105102102D01*
X143811121Y-105038736D01*
X143805987Y-105038187D01*
X143805985Y-105038187D01*
X143620888Y-105018406D01*
X143620881Y-105018406D01*
X143617553Y-105018050D01*
X143479890Y-105018050D01*
X143477317Y-105018262D01*
X143477306Y-105018262D01*
X143308836Y-105032113D01*
X143308830Y-105032114D01*
X143303685Y-105032537D01*
X143188700Y-105061419D01*
X143078727Y-105089042D01*
X143078723Y-105089043D01*
X143073716Y-105090301D01*
X143068983Y-105092359D01*
X143068980Y-105092360D01*
X142861007Y-105182789D01*
X142861004Y-105182791D01*
X142856270Y-105184849D01*
X142657186Y-105313642D01*
X142653363Y-105317121D01*
X142653360Y-105317123D01*
X142497430Y-105459009D01*
X142481810Y-105473222D01*
X142478611Y-105477273D01*
X142478607Y-105477277D01*
X142373045Y-105610942D01*
X142334853Y-105659302D01*
X142332357Y-105663823D01*
X142332356Y-105663825D01*
X142318589Y-105688765D01*
X142220261Y-105866886D01*
X142218537Y-105871755D01*
X142218535Y-105871759D01*
X142142837Y-106085523D01*
X142141111Y-106090398D01*
X142140204Y-106095491D01*
X142140203Y-106095494D01*
X142104003Y-106298720D01*
X142099529Y-106323835D01*
X142099161Y-106353954D01*
X142097122Y-106520930D01*
X142096633Y-106560930D01*
X141745005Y-106560930D01*
X141753799Y-106419176D01*
X141743840Y-106361214D01*
X141741891Y-106349877D01*
X141724190Y-106246859D01*
X141686798Y-106158983D01*
X141658600Y-106092713D01*
X141658599Y-106092711D01*
X141655733Y-106085976D01*
X141552102Y-105945157D01*
X141418854Y-105831955D01*
X141263138Y-105752442D01*
X141256033Y-105750703D01*
X141256029Y-105750702D01*
X141162597Y-105727840D01*
X141093307Y-105710885D01*
X141087705Y-105710537D01*
X141087702Y-105710537D01*
X141084205Y-105710320D01*
X141084195Y-105710320D01*
X141082266Y-105710200D01*
X140956221Y-105710200D01*
X140864818Y-105720856D01*
X140833607Y-105724495D01*
X140833605Y-105724495D01*
X140826335Y-105725343D01*
X140819457Y-105727839D01*
X140819455Y-105727840D01*
X140668864Y-105782502D01*
X140661985Y-105784999D01*
X140515767Y-105880864D01*
X140395525Y-106007795D01*
X140391850Y-106014122D01*
X140391847Y-106014126D01*
X140350377Y-106085523D01*
X140307708Y-106158983D01*
X140305587Y-106165987D01*
X140305585Y-106165991D01*
X140275260Y-106266118D01*
X140257027Y-106326318D01*
X140246201Y-106500824D01*
X139901635Y-106500824D01*
X139903001Y-106389024D01*
X139903304Y-106364241D01*
X139903304Y-106364239D01*
X139903367Y-106359070D01*
X139867502Y-106124686D01*
X139860785Y-106104135D01*
X139795442Y-105904220D01*
X139795441Y-105904218D01*
X139793836Y-105899307D01*
X139684350Y-105688986D01*
X139659019Y-105655247D01*
X139545088Y-105503505D01*
X139545086Y-105503502D01*
X139541983Y-105499370D01*
X139370559Y-105335554D01*
X139334320Y-105310833D01*
X139178960Y-105204854D01*
X139178961Y-105204854D01*
X139174681Y-105201935D01*
X139169992Y-105199759D01*
X139169986Y-105199755D01*
X138964304Y-105104281D01*
X138964300Y-105104280D01*
X138959609Y-105102102D01*
X138731121Y-105038736D01*
X138725987Y-105038187D01*
X138725985Y-105038187D01*
X138540888Y-105018406D01*
X138540881Y-105018406D01*
X138537553Y-105018050D01*
X138399890Y-105018050D01*
X138397317Y-105018262D01*
X138397306Y-105018262D01*
X138228836Y-105032113D01*
X138228830Y-105032114D01*
X138223685Y-105032537D01*
X138108700Y-105061419D01*
X137998727Y-105089042D01*
X137998723Y-105089043D01*
X137993716Y-105090301D01*
X137988983Y-105092359D01*
X137988980Y-105092360D01*
X137781007Y-105182789D01*
X137781004Y-105182791D01*
X137776270Y-105184849D01*
X137577186Y-105313642D01*
X137573363Y-105317121D01*
X137573360Y-105317123D01*
X137417430Y-105459009D01*
X137401810Y-105473222D01*
X137398611Y-105477273D01*
X137398607Y-105477277D01*
X137293045Y-105610942D01*
X137254853Y-105659302D01*
X137252357Y-105663823D01*
X137252356Y-105663825D01*
X137238589Y-105688765D01*
X137140261Y-105866886D01*
X137138537Y-105871755D01*
X137138535Y-105871759D01*
X137062837Y-106085523D01*
X137061111Y-106090398D01*
X137060204Y-106095491D01*
X137060203Y-106095494D01*
X137024003Y-106298720D01*
X137019529Y-106323835D01*
X137019161Y-106353954D01*
X137017122Y-106520930D01*
X137016633Y-106560930D01*
X137052498Y-106795314D01*
X137054106Y-106800233D01*
X137054106Y-106800234D01*
X137124520Y-107015662D01*
X137126164Y-107020693D01*
X137235650Y-107231014D01*
X137291593Y-107305523D01*
X137316497Y-107372006D01*
X137301504Y-107441402D01*
X137248621Y-107493140D01*
X137192939Y-107521880D01*
X137154554Y-107541692D01*
X137148832Y-107546684D01*
X137148830Y-107546685D01*
X137100877Y-107588517D01*
X137043277Y-107638765D01*
X136958368Y-107759579D01*
X136955609Y-107766654D01*
X136955608Y-107766657D01*
X136908508Y-107887463D01*
X136904727Y-107897160D01*
X136903735Y-107904693D01*
X136903735Y-107904694D01*
X136889494Y-108012871D01*
X136885453Y-108043564D01*
X124254000Y-108043564D01*
X124254000Y-107243564D01*
X132885453Y-107243564D01*
X132901657Y-107390340D01*
X132904267Y-107397472D01*
X132937472Y-107488209D01*
X132952404Y-107529014D01*
X132956640Y-107535317D01*
X132956640Y-107535318D01*
X133026154Y-107638765D01*
X133034765Y-107651580D01*
X133040384Y-107656693D01*
X133040385Y-107656694D01*
X133116639Y-107726079D01*
X133143985Y-107750962D01*
X133273758Y-107821423D01*
X133416592Y-107858895D01*
X133493379Y-107860101D01*
X133556643Y-107861095D01*
X133556646Y-107861095D01*
X133564241Y-107861214D01*
X133629363Y-107846299D01*
X133700779Y-107829943D01*
X133700783Y-107829942D01*
X133708182Y-107828247D01*
X133728954Y-107817800D01*
X133833321Y-107765310D01*
X133833324Y-107765308D01*
X133840104Y-107761898D01*
X133952391Y-107665995D01*
X134038561Y-107546077D01*
X134078970Y-107445557D01*
X134090805Y-107416118D01*
X134090806Y-107416116D01*
X134093640Y-107409065D01*
X134114446Y-107262871D01*
X134114581Y-107250000D01*
X134112284Y-107231014D01*
X134104815Y-107169298D01*
X134096841Y-107103402D01*
X134044644Y-106965267D01*
X133961004Y-106843570D01*
X133950799Y-106834477D01*
X133856421Y-106750390D01*
X133850750Y-106745337D01*
X133843866Y-106741692D01*
X133726957Y-106679792D01*
X133726955Y-106679791D01*
X133720246Y-106676239D01*
X133673340Y-106664457D01*
X133584398Y-106642116D01*
X133584394Y-106642116D01*
X133577027Y-106640265D01*
X133569428Y-106640225D01*
X133569426Y-106640225D01*
X133507798Y-106639903D01*
X133429362Y-106639492D01*
X133421982Y-106641264D01*
X133421980Y-106641264D01*
X133293153Y-106672192D01*
X133293149Y-106672193D01*
X133285774Y-106673964D01*
X133154554Y-106741692D01*
X133148832Y-106746684D01*
X133148830Y-106746685D01*
X133132401Y-106761017D01*
X133043277Y-106838765D01*
X132958368Y-106959579D01*
X132955609Y-106966654D01*
X132955608Y-106966657D01*
X132908281Y-107088045D01*
X132904727Y-107097160D01*
X132903735Y-107104693D01*
X132903735Y-107104694D01*
X132886561Y-107235150D01*
X132885453Y-107243564D01*
X124254000Y-107243564D01*
X124254000Y-106450000D01*
X131465500Y-106450000D01*
X131485416Y-106601280D01*
X131543808Y-106742250D01*
X131636696Y-106863304D01*
X131757750Y-106956192D01*
X131898720Y-107014584D01*
X131906908Y-107015662D01*
X131979981Y-107025282D01*
X132012020Y-107029500D01*
X132087980Y-107029500D01*
X132120020Y-107025282D01*
X132193092Y-107015662D01*
X132201280Y-107014584D01*
X132342250Y-106956192D01*
X132463304Y-106863304D01*
X132556192Y-106742250D01*
X132614584Y-106601280D01*
X132634500Y-106450000D01*
X132614584Y-106298720D01*
X132556192Y-106157750D01*
X132463304Y-106036696D01*
X132342250Y-105943808D01*
X132201280Y-105885416D01*
X132136229Y-105876852D01*
X132092067Y-105871038D01*
X132092066Y-105871038D01*
X132087980Y-105870500D01*
X132012020Y-105870500D01*
X132007934Y-105871038D01*
X132007933Y-105871038D01*
X131963771Y-105876852D01*
X131898720Y-105885416D01*
X131757750Y-105943808D01*
X131636696Y-106036696D01*
X131543808Y-106157750D01*
X131485416Y-106298720D01*
X131465500Y-106450000D01*
X124254000Y-106450000D01*
X124254000Y-103600000D01*
X126241024Y-103600000D01*
X126246000Y-103625017D01*
X126260737Y-103699106D01*
X126316876Y-103783124D01*
X126400894Y-103839263D01*
X126500000Y-103858976D01*
X126512847Y-103856421D01*
X126537425Y-103854000D01*
X143462575Y-103854000D01*
X143487153Y-103856421D01*
X143500000Y-103858976D01*
X143599106Y-103839263D01*
X143683124Y-103783124D01*
X143739263Y-103699106D01*
X143754000Y-103625017D01*
X143758976Y-103600000D01*
X143756421Y-103587153D01*
X143754000Y-103562575D01*
X143754000Y-101293564D01*
X163685453Y-101293564D01*
X163701657Y-101440340D01*
X163752404Y-101579014D01*
X163756640Y-101585317D01*
X163756640Y-101585318D01*
X163768019Y-101602251D01*
X163834765Y-101701580D01*
X163943985Y-101800962D01*
X164073758Y-101871423D01*
X164216592Y-101908895D01*
X164293379Y-101910101D01*
X164356643Y-101911095D01*
X164356646Y-101911095D01*
X164364241Y-101911214D01*
X164416036Y-101899351D01*
X164500779Y-101879943D01*
X164500783Y-101879942D01*
X164508182Y-101878247D01*
X164528954Y-101867800D01*
X164633321Y-101815310D01*
X164633324Y-101815308D01*
X164640104Y-101811898D01*
X164752391Y-101715995D01*
X164838561Y-101596077D01*
X164893640Y-101459065D01*
X164914446Y-101312871D01*
X164914581Y-101300000D01*
X164896841Y-101153402D01*
X164844644Y-101015267D01*
X164761004Y-100893570D01*
X164650750Y-100795337D01*
X164643866Y-100791692D01*
X164526957Y-100729792D01*
X164526955Y-100729791D01*
X164520246Y-100726239D01*
X164473340Y-100714457D01*
X164384398Y-100692116D01*
X164384394Y-100692116D01*
X164377027Y-100690265D01*
X164369428Y-100690225D01*
X164369426Y-100690225D01*
X164307798Y-100689903D01*
X164229362Y-100689492D01*
X164221982Y-100691264D01*
X164221980Y-100691264D01*
X164093153Y-100722192D01*
X164093149Y-100722193D01*
X164085774Y-100723964D01*
X163954554Y-100791692D01*
X163948832Y-100796684D01*
X163948830Y-100796685D01*
X163874996Y-100861095D01*
X163843277Y-100888765D01*
X163758368Y-101009579D01*
X163704727Y-101147160D01*
X163703735Y-101154693D01*
X163703735Y-101154694D01*
X163702913Y-101160942D01*
X163685453Y-101293564D01*
X143754000Y-101293564D01*
X143754000Y-100243564D01*
X159635453Y-100243564D01*
X159651657Y-100390340D01*
X159702404Y-100529014D01*
X159706640Y-100535317D01*
X159706640Y-100535318D01*
X159718019Y-100552251D01*
X159784765Y-100651580D01*
X159790384Y-100656693D01*
X159790385Y-100656694D01*
X159868140Y-100727445D01*
X159893985Y-100750962D01*
X160023758Y-100821423D01*
X160166592Y-100858895D01*
X160243379Y-100860101D01*
X160306643Y-100861095D01*
X160306646Y-100861095D01*
X160314241Y-100861214D01*
X160366036Y-100849351D01*
X160450779Y-100829943D01*
X160450783Y-100829942D01*
X160458182Y-100828247D01*
X160478954Y-100817800D01*
X160583321Y-100765310D01*
X160583324Y-100765308D01*
X160590104Y-100761898D01*
X160702391Y-100665995D01*
X160788561Y-100546077D01*
X160843640Y-100409065D01*
X160864446Y-100262871D01*
X160864581Y-100250000D01*
X160846841Y-100103402D01*
X160794644Y-99965267D01*
X160711004Y-99843570D01*
X160600750Y-99745337D01*
X160594041Y-99741785D01*
X160594037Y-99741782D01*
X160585200Y-99737103D01*
X160534357Y-99687549D01*
X160518376Y-99618375D01*
X160542331Y-99551541D01*
X160578108Y-99521196D01*
X160576991Y-99519515D01*
X160583320Y-99515310D01*
X160590104Y-99511898D01*
X160702391Y-99415995D01*
X160788561Y-99296077D01*
X160843640Y-99159065D01*
X160864446Y-99012871D01*
X160864581Y-99000000D01*
X160846841Y-98853402D01*
X160794644Y-98715267D01*
X160711004Y-98593570D01*
X160600750Y-98495337D01*
X160593866Y-98491692D01*
X160476957Y-98429792D01*
X160476955Y-98429791D01*
X160470246Y-98426239D01*
X160423340Y-98414457D01*
X160334398Y-98392116D01*
X160334394Y-98392116D01*
X160327027Y-98390265D01*
X160319428Y-98390225D01*
X160319426Y-98390225D01*
X160257798Y-98389903D01*
X160179362Y-98389492D01*
X160171982Y-98391264D01*
X160171980Y-98391264D01*
X160043153Y-98422192D01*
X160043149Y-98422193D01*
X160035774Y-98423964D01*
X159904554Y-98491692D01*
X159793277Y-98588765D01*
X159708368Y-98709579D01*
X159654727Y-98847160D01*
X159653735Y-98854693D01*
X159653735Y-98854694D01*
X159652913Y-98860942D01*
X159635453Y-98993564D01*
X159651657Y-99140340D01*
X159702404Y-99279014D01*
X159706640Y-99285317D01*
X159706640Y-99285318D01*
X159718019Y-99302251D01*
X159784765Y-99401580D01*
X159893985Y-99500962D01*
X159917298Y-99513620D01*
X159967620Y-99563701D01*
X159982877Y-99633039D01*
X159958226Y-99699618D01*
X159914971Y-99736315D01*
X159911303Y-99738208D01*
X159911300Y-99738210D01*
X159904554Y-99741692D01*
X159793277Y-99838765D01*
X159708368Y-99959579D01*
X159654727Y-100097160D01*
X159653735Y-100104693D01*
X159653735Y-100104694D01*
X159652913Y-100110942D01*
X159635453Y-100243564D01*
X143754000Y-100243564D01*
X143754000Y-95243564D01*
X155877953Y-95243564D01*
X155894157Y-95390340D01*
X155944904Y-95529014D01*
X155949140Y-95535317D01*
X155949140Y-95535318D01*
X155960519Y-95552251D01*
X156027265Y-95651580D01*
X156136485Y-95750962D01*
X156143158Y-95754585D01*
X156163454Y-95765605D01*
X156213776Y-95815688D01*
X156229032Y-95885026D01*
X156204380Y-95951605D01*
X156167105Y-95983226D01*
X156167588Y-95983937D01*
X156161301Y-95988209D01*
X156154554Y-95991692D01*
X156043277Y-96088765D01*
X155958368Y-96209579D01*
X155904727Y-96347160D01*
X155903735Y-96354693D01*
X155903735Y-96354694D01*
X155902913Y-96360942D01*
X155885453Y-96493564D01*
X155901657Y-96640340D01*
X155952404Y-96779014D01*
X155956640Y-96785317D01*
X155956640Y-96785318D01*
X155968019Y-96802251D01*
X156034765Y-96901580D01*
X156143985Y-97000962D01*
X156273758Y-97071423D01*
X156416592Y-97108895D01*
X156493379Y-97110101D01*
X156556643Y-97111095D01*
X156556646Y-97111095D01*
X156564241Y-97111214D01*
X156616036Y-97099351D01*
X156700779Y-97079943D01*
X156700783Y-97079942D01*
X156708182Y-97078247D01*
X156728954Y-97067800D01*
X156833321Y-97015310D01*
X156833324Y-97015308D01*
X156840104Y-97011898D01*
X156952391Y-96915995D01*
X157038561Y-96796077D01*
X157093640Y-96659065D01*
X157114446Y-96512871D01*
X157114581Y-96500000D01*
X157096841Y-96353402D01*
X157044644Y-96215267D01*
X156961004Y-96093570D01*
X156850750Y-95995337D01*
X156831376Y-95985079D01*
X156780531Y-95935527D01*
X156764548Y-95866353D01*
X156788500Y-95799519D01*
X156820605Y-95768775D01*
X156825821Y-95765310D01*
X156832604Y-95761898D01*
X156944891Y-95665995D01*
X157031061Y-95546077D01*
X157086140Y-95409065D01*
X157106946Y-95262871D01*
X157107081Y-95250000D01*
X157089341Y-95103402D01*
X157037144Y-94965267D01*
X156953504Y-94843570D01*
X156843250Y-94745337D01*
X156836366Y-94741692D01*
X156719457Y-94679792D01*
X156719455Y-94679791D01*
X156712746Y-94676239D01*
X156665840Y-94664457D01*
X156576898Y-94642116D01*
X156576894Y-94642116D01*
X156569527Y-94640265D01*
X156561928Y-94640225D01*
X156561926Y-94640225D01*
X156500298Y-94639903D01*
X156421862Y-94639492D01*
X156414482Y-94641264D01*
X156414480Y-94641264D01*
X156285653Y-94672192D01*
X156285649Y-94672193D01*
X156278274Y-94673964D01*
X156147054Y-94741692D01*
X156035777Y-94838765D01*
X155950868Y-94959579D01*
X155897227Y-95097160D01*
X155896235Y-95104693D01*
X155896235Y-95104694D01*
X155895413Y-95110942D01*
X155877953Y-95243564D01*
X143754000Y-95243564D01*
X143754000Y-85937425D01*
X143756421Y-85912844D01*
X143756555Y-85912170D01*
X143758976Y-85900000D01*
X143739263Y-85800894D01*
X143683124Y-85716876D01*
X143599106Y-85660737D01*
X143525017Y-85646000D01*
X143512172Y-85643445D01*
X143500000Y-85641024D01*
X143487153Y-85643579D01*
X143462575Y-85646000D01*
X126537425Y-85646000D01*
X126512847Y-85643579D01*
X126500000Y-85641024D01*
X126487828Y-85643445D01*
X126474983Y-85646000D01*
X126400894Y-85660737D01*
X126316876Y-85716876D01*
X126260737Y-85800894D01*
X126241024Y-85900000D01*
X126243445Y-85912170D01*
X126243579Y-85912844D01*
X126246000Y-85937425D01*
X126246000Y-103562575D01*
X126243579Y-103587153D01*
X126241024Y-103600000D01*
X124254000Y-103600000D01*
X124254000Y-84380000D01*
X124274002Y-84311879D01*
X124327658Y-84265386D01*
X124380000Y-84254000D01*
X150515147Y-84254000D01*
X150583268Y-84274002D01*
G37*
%TD.AperFunction*%
%TD*%
M02*
