M48
; DRILL file {KiCad 6.0.0} date sam. 11 juin 2022 19:07:55
; FORMAT={-:-/ absolute / inch / decimal}
; #@! TF.CreationDate,2022-06-11T19:07:55+02:00
; #@! TF.GenerationSoftware,Kicad,Pcbnew,6.0.0
; #@! TF.FileFunction,Plated,1,4,PTH
FMAT,2
INCH
; #@! TA.AperFunction,Plated,PTH,ViaDrill
T1C0.0120
%
G90
G05
T1
X4.9055Y-3.3465
X4.9055Y-3.4252
X4.9055Y-3.5039
X4.9055Y-3.5827
X4.9055Y-3.6614
X4.9055Y-3.7402
X4.9055Y-3.8189
X4.9055Y-3.8976
X4.9055Y-3.9764
X4.9055Y-4.0551
X4.9055Y-4.1339
X4.9055Y-4.2126
X4.9055Y-4.2913
X4.9055Y-4.3701
X4.9055Y-4.4488
X4.9055Y-4.5276
X4.9055Y-4.6063
X4.9055Y-4.685
X4.9055Y-4.7638
X4.9055Y-4.8425
X4.9055Y-4.9213
X4.9803Y-3.3307
X4.9803Y-4.937
X5.0591Y-3.3307
X5.0591Y-4.937
X5.1378Y-3.3307
X5.1378Y-4.937
X5.2165Y-3.3307
X5.2165Y-4.937
X5.2559Y-4.2224
X5.2559Y-4.3661
X5.2559Y-4.5768
X5.2953Y-3.3307
X5.2953Y-4.937
X5.3346Y-4.8189
X5.374Y-3.3307
X5.374Y-4.5768
X5.374Y-4.937
X5.4134Y-4.2539
X5.4528Y-3.3307
X5.4528Y-4.4291
X5.4528Y-4.5669
X5.4528Y-4.6161
X5.4528Y-4.6752
X5.4528Y-4.937
X5.4724Y-4.8189
X5.5118Y-4.685
X5.5262Y-4.2913
X5.5315Y-3.3307
X5.5315Y-4.937
X5.5512Y-4.437
X5.5512Y-4.8189
X5.5762Y-4.2913
X5.6102Y-3.3307
X5.6102Y-4.937
X5.6594Y-4.5177
X5.6594Y-4.5669
X5.689Y-3.3307
X5.689Y-3.4252
X5.689Y-4.937
X5.6988Y-4.7589
X5.7283Y-3.376
X5.7382Y-4.4547
X5.7382Y-4.685
X5.7677Y-3.3307
X5.7677Y-4.937
X5.7815Y-3.7598
X5.7972Y-4.8819
X5.8445Y-3.563
X5.8465Y-3.3307
X5.8465Y-4.2539
X5.8465Y-4.2913
X5.8465Y-4.3996
X5.8465Y-4.937
X5.9252Y-3.3701
X5.9252Y-3.8642
X5.9252Y-4.937
X5.9646Y-4.8524
X5.9646Y-4.8917
X5.9843Y-3.8642
X6.0039Y-3.4094
X6.0039Y-4.872
X6.0039Y-4.937
X6.0138Y-4.4055
X6.0335Y-4.7589
X6.0551Y-4.2224
X6.0827Y-3.4094
X6.0827Y-4.937
X6.0925Y-4.5079
X6.1516Y-4.1772
X6.1611Y-3.75
X6.1614Y-3.4094
X6.1614Y-3.7992
X6.1614Y-4.937
X6.1909Y-4.5768
X6.2402Y-3.4094
X6.2402Y-4.937
X6.2598Y-4.8031
X6.2599Y-4.6458
X6.3091Y-3.8976
X6.3091Y-3.9469
X6.3189Y-3.4094
X6.3189Y-4.937
X6.3524Y-4.3307
X6.3543Y-3.7697
X6.3976Y-3.4094
X6.3976Y-4.937
X6.4075Y-3.8248
X6.4075Y-4.7283
X6.437Y-3.563
X6.4685Y-3.9882
X6.4764Y-3.4094
X6.4764Y-4.937
X6.5217Y-3.3701
X6.5256Y-4.1634
X6.5551Y-3.3307
X6.5551Y-4.3307
X6.5551Y-4.937
X6.5846Y-3.937
X6.5846Y-4.1634
X6.5945Y-3.376
X6.6142Y-4.4488
X6.6299Y-3.563
X6.6339Y-3.3307
X6.6339Y-4.937
X6.6437Y-4.252
X6.6437Y-4.3799
X6.6437Y-4.5177
X6.6437Y-4.5866
X6.6929Y-4.252
X6.6929Y-4.7756
X6.7126Y-3.3307
X6.7126Y-4.937
X6.7382Y-4.872
X6.7421Y-3.376
X6.7874Y-3.3465
X6.7874Y-3.4252
X6.7874Y-3.5039
X6.7874Y-3.5827
X6.7874Y-3.6614
X6.7874Y-3.7402
X6.7874Y-3.8189
X6.7874Y-3.8976
X6.7874Y-3.9764
X6.7874Y-4.0551
X6.7874Y-4.1339
X6.7874Y-4.2126
X6.7874Y-4.2913
X6.7874Y-4.3701
X6.7874Y-4.4488
X6.7874Y-4.5276
X6.7874Y-4.6063
X6.7874Y-4.685
X6.7874Y-4.7638
X6.7874Y-4.8425
X6.7874Y-4.9213
T0
M30
