%TF.GenerationSoftware,KiCad,Pcbnew,6.0.0*%
%TF.CreationDate,2022-06-11T19:07:52+02:00*%
%TF.ProjectId,cowdin-3c-esp-ui,636f7764-696e-42d3-9363-2d6573702d75,1*%
%TF.SameCoordinates,Original*%
%TF.FileFunction,Legend,Top*%
%TF.FilePolarity,Positive*%
%FSLAX46Y46*%
G04 Gerber Fmt 4.6, Leading zero omitted, Abs format (unit mm)*
G04 Created by KiCad (PCBNEW 6.0.0) date 2022-06-11 19:07:52*
%MOMM*%
%LPD*%
G01*
G04 APERTURE LIST*
%ADD10C,0.100000*%
%ADD11C,0.101600*%
%ADD12C,0.150000*%
%ADD13C,0.027940*%
%ADD14C,2.374900*%
%ADD15C,0.990600*%
G04 APERTURE END LIST*
D10*
X144900000Y-86240000D02*
X144900000Y-105500000D01*
X144900000Y-105500000D02*
X171600000Y-105500000D01*
X171600000Y-86240000D02*
X165750000Y-86240000D01*
X171600000Y-86240000D02*
X171600000Y-105500000D01*
X144900000Y-86240000D02*
X150750000Y-86240000D01*
D11*
X164319428Y-109069000D02*
X164246857Y-109032714D01*
X164138000Y-109032714D01*
X164029142Y-109069000D01*
X163956571Y-109141571D01*
X163920285Y-109214142D01*
X163884000Y-109359285D01*
X163884000Y-109468142D01*
X163920285Y-109613285D01*
X163956571Y-109685857D01*
X164029142Y-109758428D01*
X164138000Y-109794714D01*
X164210571Y-109794714D01*
X164319428Y-109758428D01*
X164355714Y-109722142D01*
X164355714Y-109468142D01*
X164210571Y-109468142D01*
X164682285Y-109794714D02*
X164682285Y-109032714D01*
X165117714Y-109794714D01*
X165117714Y-109032714D01*
X165480571Y-109794714D02*
X165480571Y-109032714D01*
X165662000Y-109032714D01*
X165770857Y-109069000D01*
X165843428Y-109141571D01*
X165879714Y-109214142D01*
X165916000Y-109359285D01*
X165916000Y-109468142D01*
X165879714Y-109613285D01*
X165843428Y-109685857D01*
X165770857Y-109758428D01*
X165662000Y-109794714D01*
X165480571Y-109794714D01*
X166869428Y-109082714D02*
X167304857Y-109082714D01*
X167087142Y-109844714D02*
X167087142Y-109082714D01*
X167486285Y-109082714D02*
X167994285Y-109844714D01*
X167994285Y-109082714D02*
X167486285Y-109844714D01*
X169873000Y-109844714D02*
X169619000Y-109481857D01*
X169437571Y-109844714D02*
X169437571Y-109082714D01*
X169727857Y-109082714D01*
X169800428Y-109119000D01*
X169836714Y-109155285D01*
X169873000Y-109227857D01*
X169873000Y-109336714D01*
X169836714Y-109409285D01*
X169800428Y-109445571D01*
X169727857Y-109481857D01*
X169437571Y-109481857D01*
X170127000Y-109082714D02*
X170635000Y-109844714D01*
X170635000Y-109082714D02*
X170127000Y-109844714D01*
%TO.C,SW4*%
X157234000Y-113308428D02*
X157342857Y-113344714D01*
X157524285Y-113344714D01*
X157596857Y-113308428D01*
X157633142Y-113272142D01*
X157669428Y-113199571D01*
X157669428Y-113127000D01*
X157633142Y-113054428D01*
X157596857Y-113018142D01*
X157524285Y-112981857D01*
X157379142Y-112945571D01*
X157306571Y-112909285D01*
X157270285Y-112873000D01*
X157234000Y-112800428D01*
X157234000Y-112727857D01*
X157270285Y-112655285D01*
X157306571Y-112619000D01*
X157379142Y-112582714D01*
X157560571Y-112582714D01*
X157669428Y-112619000D01*
X157923428Y-112582714D02*
X158104857Y-113344714D01*
X158250000Y-112800428D01*
X158395142Y-113344714D01*
X158576571Y-112582714D01*
X159193428Y-112836714D02*
X159193428Y-113344714D01*
X159012000Y-112546428D02*
X158830571Y-113090714D01*
X159302285Y-113090714D01*
%TO.C,SW3*%
X171308428Y-117266000D02*
X171344714Y-117157142D01*
X171344714Y-116975714D01*
X171308428Y-116903142D01*
X171272142Y-116866857D01*
X171199571Y-116830571D01*
X171127000Y-116830571D01*
X171054428Y-116866857D01*
X171018142Y-116903142D01*
X170981857Y-116975714D01*
X170945571Y-117120857D01*
X170909285Y-117193428D01*
X170873000Y-117229714D01*
X170800428Y-117266000D01*
X170727857Y-117266000D01*
X170655285Y-117229714D01*
X170619000Y-117193428D01*
X170582714Y-117120857D01*
X170582714Y-116939428D01*
X170619000Y-116830571D01*
X170582714Y-116576571D02*
X171344714Y-116395142D01*
X170800428Y-116250000D01*
X171344714Y-116104857D01*
X170582714Y-115923428D01*
X170582714Y-115705714D02*
X170582714Y-115234000D01*
X170873000Y-115488000D01*
X170873000Y-115379142D01*
X170909285Y-115306571D01*
X170945571Y-115270285D01*
X171018142Y-115234000D01*
X171199571Y-115234000D01*
X171272142Y-115270285D01*
X171308428Y-115306571D01*
X171344714Y-115379142D01*
X171344714Y-115596857D01*
X171308428Y-115669428D01*
X171272142Y-115705714D01*
%TO.C,SW1*%
X132308428Y-117266000D02*
X132344714Y-117157142D01*
X132344714Y-116975714D01*
X132308428Y-116903142D01*
X132272142Y-116866857D01*
X132199571Y-116830571D01*
X132127000Y-116830571D01*
X132054428Y-116866857D01*
X132018142Y-116903142D01*
X131981857Y-116975714D01*
X131945571Y-117120857D01*
X131909285Y-117193428D01*
X131873000Y-117229714D01*
X131800428Y-117266000D01*
X131727857Y-117266000D01*
X131655285Y-117229714D01*
X131619000Y-117193428D01*
X131582714Y-117120857D01*
X131582714Y-116939428D01*
X131619000Y-116830571D01*
X131582714Y-116576571D02*
X132344714Y-116395142D01*
X131800428Y-116250000D01*
X132344714Y-116104857D01*
X131582714Y-115923428D01*
X132344714Y-115234000D02*
X132344714Y-115669428D01*
X132344714Y-115451714D02*
X131582714Y-115451714D01*
X131691571Y-115524285D01*
X131764142Y-115596857D01*
X131800428Y-115669428D01*
%TO.C,D2*%
X129437571Y-111994714D02*
X129437571Y-111232714D01*
X129619000Y-111232714D01*
X129727857Y-111269000D01*
X129800428Y-111341571D01*
X129836714Y-111414142D01*
X129873000Y-111559285D01*
X129873000Y-111668142D01*
X129836714Y-111813285D01*
X129800428Y-111885857D01*
X129727857Y-111958428D01*
X129619000Y-111994714D01*
X129437571Y-111994714D01*
X130163285Y-111305285D02*
X130199571Y-111269000D01*
X130272142Y-111232714D01*
X130453571Y-111232714D01*
X130526142Y-111269000D01*
X130562428Y-111305285D01*
X130598714Y-111377857D01*
X130598714Y-111450428D01*
X130562428Y-111559285D01*
X130127000Y-111994714D01*
X130598714Y-111994714D01*
%TO.C,SW2*%
X145808428Y-117266000D02*
X145844714Y-117157142D01*
X145844714Y-116975714D01*
X145808428Y-116903142D01*
X145772142Y-116866857D01*
X145699571Y-116830571D01*
X145627000Y-116830571D01*
X145554428Y-116866857D01*
X145518142Y-116903142D01*
X145481857Y-116975714D01*
X145445571Y-117120857D01*
X145409285Y-117193428D01*
X145373000Y-117229714D01*
X145300428Y-117266000D01*
X145227857Y-117266000D01*
X145155285Y-117229714D01*
X145119000Y-117193428D01*
X145082714Y-117120857D01*
X145082714Y-116939428D01*
X145119000Y-116830571D01*
X145082714Y-116576571D02*
X145844714Y-116395142D01*
X145300428Y-116250000D01*
X145844714Y-116104857D01*
X145082714Y-115923428D01*
X145155285Y-115669428D02*
X145119000Y-115633142D01*
X145082714Y-115560571D01*
X145082714Y-115379142D01*
X145119000Y-115306571D01*
X145155285Y-115270285D01*
X145227857Y-115234000D01*
X145300428Y-115234000D01*
X145409285Y-115270285D01*
X145844714Y-115705714D01*
X145844714Y-115234000D01*
%TO.C,SW5*%
X157234000Y-119808428D02*
X157342857Y-119844714D01*
X157524285Y-119844714D01*
X157596857Y-119808428D01*
X157633142Y-119772142D01*
X157669428Y-119699571D01*
X157669428Y-119627000D01*
X157633142Y-119554428D01*
X157596857Y-119518142D01*
X157524285Y-119481857D01*
X157379142Y-119445571D01*
X157306571Y-119409285D01*
X157270285Y-119373000D01*
X157234000Y-119300428D01*
X157234000Y-119227857D01*
X157270285Y-119155285D01*
X157306571Y-119119000D01*
X157379142Y-119082714D01*
X157560571Y-119082714D01*
X157669428Y-119119000D01*
X157923428Y-119082714D02*
X158104857Y-119844714D01*
X158250000Y-119300428D01*
X158395142Y-119844714D01*
X158576571Y-119082714D01*
X159229714Y-119082714D02*
X158866857Y-119082714D01*
X158830571Y-119445571D01*
X158866857Y-119409285D01*
X158939428Y-119373000D01*
X159120857Y-119373000D01*
X159193428Y-119409285D01*
X159229714Y-119445571D01*
X159266000Y-119518142D01*
X159266000Y-119699571D01*
X159229714Y-119772142D01*
X159193428Y-119808428D01*
X159120857Y-119844714D01*
X158939428Y-119844714D01*
X158866857Y-119808428D01*
X158830571Y-119772142D01*
%TO.C,P2*%
X142037571Y-113294714D02*
X142037571Y-112532714D01*
X142327857Y-112532714D01*
X142400428Y-112569000D01*
X142436714Y-112605285D01*
X142473000Y-112677857D01*
X142473000Y-112786714D01*
X142436714Y-112859285D01*
X142400428Y-112895571D01*
X142327857Y-112931857D01*
X142037571Y-112931857D01*
X142763285Y-112605285D02*
X142799571Y-112569000D01*
X142872142Y-112532714D01*
X143053571Y-112532714D01*
X143126142Y-112569000D01*
X143162428Y-112605285D01*
X143198714Y-112677857D01*
X143198714Y-112750428D01*
X143162428Y-112859285D01*
X142727000Y-113294714D01*
X143198714Y-113294714D01*
D12*
%TO.C,SW4*%
X156000000Y-107750000D02*
X160500000Y-107750000D01*
X160500000Y-112250000D02*
X156000000Y-112250000D01*
D13*
%TO.C,agilack-11.5*%
X128028320Y-119229360D02*
X128028320Y-118162560D01*
X127291720Y-117425960D02*
X127291720Y-117171960D01*
X127774320Y-122632960D02*
X127774320Y-121820160D01*
X127723520Y-122556760D02*
X127723520Y-121820160D01*
X127520320Y-123877560D02*
X127520320Y-123471160D01*
X128155320Y-113031760D02*
X128155320Y-112676160D01*
X127494920Y-123090160D02*
X127494920Y-122607560D01*
X127240920Y-119407160D02*
X127240920Y-119102360D01*
X127342520Y-113565160D02*
X127342520Y-113234960D01*
X127774320Y-113844560D02*
X127774320Y-113590560D01*
X127367920Y-113565160D02*
X127367920Y-113260360D01*
X127825120Y-123267960D02*
X127825120Y-122988560D01*
X126834520Y-117425960D02*
X126834520Y-117171960D01*
X127088520Y-123877560D02*
X127088520Y-122963160D01*
X128053720Y-119229360D02*
X128053720Y-118187960D01*
X128129920Y-123572760D02*
X128129920Y-121896360D01*
X127977520Y-119280160D02*
X127977520Y-118162560D01*
X128155320Y-114936760D02*
X128155320Y-114327160D01*
X126936120Y-113844560D02*
X126936120Y-113590560D01*
X127444120Y-118797560D02*
X127444120Y-118162560D01*
X127418720Y-118797560D02*
X127418720Y-118162560D01*
X127393320Y-120067560D02*
X127393320Y-119686560D01*
X127672720Y-119915160D02*
X127672720Y-119559560D01*
X127926720Y-123369560D02*
X127926720Y-121820160D01*
X128079120Y-117425960D02*
X128079120Y-116359160D01*
X126961520Y-116232160D02*
X126961520Y-115800360D01*
X127698120Y-123471160D02*
X127698120Y-123293360D01*
X126910720Y-113844560D02*
X126910720Y-113590560D01*
X127088520Y-122759960D02*
X127088520Y-122429760D01*
X127037720Y-117425960D02*
X127037720Y-117171960D01*
X126910720Y-120524760D02*
X126910720Y-119940560D01*
X127977520Y-115216160D02*
X127977520Y-114225560D01*
X126885320Y-124131560D02*
X126885320Y-123953760D01*
X127113920Y-122302760D02*
X127113920Y-122099560D01*
X127672720Y-123445760D02*
X127672720Y-123267960D01*
X127012320Y-120575560D02*
X127012320Y-119889760D01*
X126986920Y-120550160D02*
X126986920Y-119915160D01*
X127393320Y-115368560D02*
X127393320Y-115089160D01*
X127444120Y-115901960D02*
X127444120Y-115622560D01*
X127647320Y-124131560D02*
X127647320Y-123953760D01*
X127418720Y-120042160D02*
X127418720Y-119686560D01*
X127444120Y-119432560D02*
X127444120Y-119153160D01*
X126834520Y-113844560D02*
X126834520Y-113590560D01*
X128155320Y-119686560D02*
X128155320Y-119305560D01*
X126453520Y-120296160D02*
X126453520Y-120169160D01*
X127342520Y-120727960D02*
X127342520Y-120372360D01*
X128053720Y-115698760D02*
X128053720Y-115419360D01*
X127088520Y-116282960D02*
X127088520Y-115774960D01*
X127926720Y-115749560D02*
X127926720Y-115444760D01*
X127571120Y-124131560D02*
X127571120Y-123953760D01*
X128231520Y-123877560D02*
X128231520Y-123826760D01*
X127723520Y-113412760D02*
X127723520Y-113057160D01*
X127240920Y-120143760D02*
X127240920Y-119788160D01*
X127444120Y-124131560D02*
X127444120Y-123953760D01*
X127774320Y-120956560D02*
X127774320Y-120016760D01*
X127291720Y-124131560D02*
X127291720Y-123953760D01*
X126986920Y-123877560D02*
X126986920Y-122328160D01*
X127545720Y-117425960D02*
X127545720Y-117171960D01*
X127367920Y-117425960D02*
X127367920Y-117171960D01*
X127012320Y-117857760D02*
X127012320Y-117603760D01*
X127926720Y-113234960D02*
X127926720Y-112879360D01*
X126936120Y-113209560D02*
X126936120Y-112853960D01*
X127545720Y-123318760D02*
X127545720Y-123242560D01*
X127571120Y-116460760D02*
X127571120Y-116181360D01*
X128206120Y-123877560D02*
X128206120Y-123801360D01*
X126834520Y-116181360D02*
X126834520Y-115851160D01*
X127291720Y-113844560D02*
X127291720Y-113590560D01*
X127317120Y-115952760D02*
X127317120Y-115673360D01*
X127825120Y-116536960D02*
X127825120Y-116257560D01*
X127647320Y-119940560D02*
X127647320Y-119559560D01*
X127113920Y-122683760D02*
X127113920Y-122455160D01*
X127393320Y-123877560D02*
X127393320Y-123344160D01*
X126250320Y-123648960D02*
X126250320Y-121972560D01*
X127571120Y-119965960D02*
X127571120Y-119610360D01*
X127672720Y-122531360D02*
X127672720Y-121820160D01*
X127190120Y-116003560D02*
X127190120Y-115724160D01*
X126631320Y-124029960D02*
X126631320Y-123725160D01*
X126809120Y-117857760D02*
X126809120Y-117603760D01*
X127215520Y-119407160D02*
X127215520Y-119076960D01*
X127799720Y-113336560D02*
X127799720Y-113006360D01*
X126859920Y-116181360D02*
X126859920Y-115851160D01*
X127444120Y-113844560D02*
X127444120Y-113311160D01*
X126986920Y-115216160D02*
X126986920Y-114250960D01*
X128434720Y-121362960D02*
X128434720Y-119889760D01*
X127215520Y-122556760D02*
X127215520Y-122531360D01*
X127875920Y-116562360D02*
X127875920Y-116282960D01*
X126732920Y-120423160D02*
X126732920Y-120042160D01*
X128028320Y-115698760D02*
X128028320Y-115419360D01*
X127748920Y-117857760D02*
X127748920Y-117603760D01*
X127901320Y-115749560D02*
X127901320Y-115470160D01*
X126834520Y-119026160D02*
X126834520Y-118416560D01*
X128079120Y-123521960D02*
X128079120Y-121845560D01*
X127113920Y-116282960D02*
X127113920Y-115749560D01*
X127469520Y-115368560D02*
X127469520Y-115089160D01*
X127367920Y-122455160D02*
X127367920Y-122378960D01*
X126809120Y-113082560D02*
X126809120Y-112726960D01*
X128333120Y-119584960D02*
X128333120Y-119229360D01*
X126859920Y-124131560D02*
X126859920Y-123940000D01*
X127012320Y-117425960D02*
X127012320Y-117171960D01*
X127266320Y-113844560D02*
X127266320Y-113590560D01*
X127621920Y-124131560D02*
X127621920Y-123953760D01*
X126859920Y-122048760D02*
X126859920Y-121820160D01*
X127723520Y-120931160D02*
X127723520Y-120550160D01*
X127317120Y-113844560D02*
X127317120Y-113590560D01*
X126555120Y-120346960D02*
X126555120Y-120118360D01*
X128129920Y-119686560D02*
X128129920Y-119330960D01*
X127698120Y-113438160D02*
X127698120Y-113082560D01*
X127520320Y-122378960D02*
X127520320Y-121820160D01*
X127367920Y-123090160D02*
X127367920Y-122632960D01*
X128155320Y-115647960D02*
X128155320Y-115368560D01*
X127469520Y-116409960D02*
X127469520Y-116155960D01*
X128231520Y-119635760D02*
X128231520Y-119280160D01*
X127063120Y-117425960D02*
X127063120Y-117171960D01*
X127672720Y-117425960D02*
X127672720Y-117171960D01*
X127571120Y-115368560D02*
X127571120Y-115089160D01*
X127291720Y-120118360D02*
X127291720Y-119737360D01*
X127672720Y-119432560D02*
X127672720Y-119127760D01*
X128028320Y-113844560D02*
X128028320Y-113590560D01*
X127291720Y-120702560D02*
X127291720Y-120346960D01*
X127088520Y-120219960D02*
X127088520Y-119864360D01*
X127215520Y-120143760D02*
X127215520Y-119788160D01*
X126555120Y-123572760D02*
X126555120Y-121896360D01*
X127723520Y-123877560D02*
X127723520Y-123648960D01*
X126936120Y-117857760D02*
X126936120Y-117603760D01*
X127317120Y-117425960D02*
X127317120Y-117171960D01*
X127240920Y-123877560D02*
X127240920Y-123191760D01*
X127850520Y-113311160D02*
X127850520Y-112955560D01*
X127088520Y-117425960D02*
X127088520Y-117171960D01*
X128663320Y-119432560D02*
X128663320Y-119051560D01*
X126986920Y-113844560D02*
X126986920Y-113590560D01*
X127825120Y-119381760D02*
X127825120Y-119026160D01*
X127063120Y-113844560D02*
X127063120Y-113590560D01*
X127748920Y-117425960D02*
X127748920Y-117171960D01*
X127723520Y-113844560D02*
X127723520Y-113590560D01*
X128002920Y-113158760D02*
X128002920Y-112803160D01*
X128104520Y-113082560D02*
X128104520Y-112726960D01*
X127012320Y-115216160D02*
X127012320Y-114250960D01*
X127291720Y-115952760D02*
X127291720Y-115698760D01*
X128104520Y-119711960D02*
X128104520Y-119330960D01*
X126301120Y-123699760D02*
X126301120Y-121972560D01*
X127037720Y-121896360D02*
X127037720Y-121820160D01*
X128358520Y-121362960D02*
X128358520Y-119889760D01*
X126707520Y-124106160D02*
X126707520Y-123801360D01*
X128434720Y-119534160D02*
X128434720Y-119153160D01*
X127342520Y-117425960D02*
X127342520Y-117171960D01*
X127698120Y-122556760D02*
X127698120Y-121820160D01*
X127698120Y-117857760D02*
X127698120Y-117603760D01*
X127037720Y-124131560D02*
X127037720Y-123953760D01*
X127317120Y-123064760D02*
X127317120Y-122632960D01*
X127774320Y-119407160D02*
X127774320Y-119076960D01*
X127799720Y-123877560D02*
X127799720Y-123725160D01*
X127825120Y-123598160D02*
X127825120Y-123420360D01*
X127621920Y-116460760D02*
X127621920Y-115571760D01*
X128053720Y-121083560D02*
X128053720Y-119889760D01*
X127748920Y-123191760D02*
X127748920Y-123115560D01*
X127190120Y-122582160D02*
X127190120Y-122531360D01*
X127444120Y-123877560D02*
X127444120Y-123394960D01*
X127418720Y-123877560D02*
X127418720Y-123369560D01*
X128129920Y-115673360D02*
X128129920Y-115393960D01*
X127266320Y-115978160D02*
X127266320Y-115698760D01*
X127723520Y-123496560D02*
X127723520Y-123318760D01*
X127596520Y-117857760D02*
X127596520Y-117603760D01*
X127418720Y-117857760D02*
X127418720Y-117603760D01*
X126859920Y-120499360D02*
X126859920Y-119965960D01*
X127952120Y-113209560D02*
X127952120Y-112853960D01*
X127875920Y-121007360D02*
X127875920Y-119965960D01*
X126885320Y-113844560D02*
X126885320Y-113590560D01*
X127367920Y-120753360D02*
X127367920Y-120372360D01*
X127342520Y-124131560D02*
X127342520Y-123953760D01*
X127571120Y-119432560D02*
X127571120Y-119153160D01*
X127621920Y-115368560D02*
X127621920Y-115063760D01*
X126961520Y-119229360D02*
X126961520Y-118213360D01*
X128612520Y-119457960D02*
X128612520Y-119076960D01*
X127164720Y-122607560D02*
X127164720Y-122505960D01*
X127723520Y-123166360D02*
X127723520Y-123140960D01*
X127190120Y-122378960D02*
X127190120Y-122175760D01*
X127393320Y-116384560D02*
X127393320Y-116130560D01*
X127063120Y-120600960D02*
X127063120Y-120245360D01*
X127825120Y-113336560D02*
X127825120Y-112980960D01*
X126605920Y-123623560D02*
X126605920Y-121947160D01*
X127469520Y-120804160D02*
X127469520Y-120423160D01*
X127164720Y-122353560D02*
X127164720Y-122150360D01*
X128053720Y-124131560D02*
X128053720Y-123979160D01*
X127215520Y-120677160D02*
X127215520Y-120296160D01*
X127774320Y-115317760D02*
X127774320Y-114987560D01*
X126834520Y-114987560D02*
X126834520Y-114250960D01*
X127139320Y-116003560D02*
X127139320Y-115749560D01*
X127063120Y-119305560D02*
X127063120Y-118848360D01*
X127444120Y-116409960D02*
X127444120Y-116130560D01*
X126758320Y-120448560D02*
X126758320Y-120016760D01*
X127367920Y-120067560D02*
X127367920Y-119711960D01*
X126936120Y-124131560D02*
X126936120Y-123953760D01*
X127139320Y-120194560D02*
X127139320Y-119838960D01*
X127748920Y-119889760D02*
X127748920Y-119508760D01*
X127037720Y-120575560D02*
X127037720Y-119889760D01*
X128002920Y-117857760D02*
X128002920Y-117603760D01*
X126478920Y-123877560D02*
X126478920Y-123572760D01*
X127444120Y-117425960D02*
X127444120Y-117171960D01*
X127875920Y-119813560D02*
X127875920Y-119457960D01*
X127977520Y-113844560D02*
X127977520Y-113590560D01*
X127596520Y-120854960D02*
X127596520Y-120473960D01*
X127647320Y-117857760D02*
X127647320Y-117603760D01*
X127977520Y-113184160D02*
X127977520Y-112828560D01*
X127342520Y-113844560D02*
X127342520Y-113590560D01*
X127469520Y-117425960D02*
X127469520Y-117171960D01*
X127748920Y-116511560D02*
X127748920Y-115520960D01*
X127977520Y-117857760D02*
X127977520Y-117603760D01*
X128104520Y-117857760D02*
X128104520Y-117603760D01*
X127317120Y-115368560D02*
X127317120Y-115063760D01*
X128383920Y-121362960D02*
X128383920Y-119889760D01*
X128028320Y-115165360D02*
X128028320Y-114200160D01*
X127266320Y-123877560D02*
X127266320Y-123217160D01*
X126428120Y-120270760D02*
X126428120Y-120194560D01*
X126859920Y-117857760D02*
X126859920Y-117603760D01*
X127698120Y-124131560D02*
X127698120Y-123953760D01*
X127088520Y-120600960D02*
X127088520Y-120245360D01*
X126961520Y-117425960D02*
X126961520Y-117171960D01*
X127012320Y-124131560D02*
X127012320Y-123953760D01*
X127799720Y-117425960D02*
X127799720Y-117171960D01*
X127774320Y-116511560D02*
X127774320Y-115520960D01*
X127469520Y-123090160D02*
X127469520Y-122607560D01*
X126275720Y-123674360D02*
X126275720Y-121972560D01*
X127494920Y-117857760D02*
X127494920Y-117603760D01*
X127240920Y-117857760D02*
X127240920Y-117603760D01*
X127723520Y-117425960D02*
X127723520Y-117171960D01*
X127494920Y-124131560D02*
X127494920Y-123953760D01*
X126961520Y-123877560D02*
X126961520Y-122302760D01*
X126453520Y-123852160D02*
X126453520Y-123547360D01*
X127139320Y-116282960D02*
X127139320Y-116028960D01*
X127469520Y-124131560D02*
X127469520Y-123953760D01*
X128104520Y-119153160D02*
X128104520Y-118264160D01*
X127748920Y-113387360D02*
X127748920Y-113031760D01*
X126631320Y-120372360D02*
X126631320Y-120092960D01*
X127215520Y-123877560D02*
X127215520Y-123166360D01*
X128485520Y-121362960D02*
X128485520Y-119889760D01*
X128079120Y-119178560D02*
X128079120Y-118213360D01*
X127621920Y-117857760D02*
X127621920Y-117603760D01*
X127875920Y-118416560D02*
X127875920Y-118162560D01*
X126809120Y-117425960D02*
X126809120Y-117171960D01*
X127215520Y-122074160D02*
X127215520Y-121820160D01*
X127012320Y-113844560D02*
X127012320Y-113590560D01*
X126961520Y-124131560D02*
X126961520Y-123953760D01*
X126783720Y-117857760D02*
X126783720Y-117603760D01*
X127850520Y-123623560D02*
X127850520Y-123445760D01*
X127444120Y-122302760D02*
X127444120Y-121820160D01*
X126834520Y-122023360D02*
X126834520Y-121820160D01*
X127139320Y-117425960D02*
X127139320Y-117171960D01*
X128002920Y-115190760D02*
X128002920Y-114200160D01*
X127723520Y-119889760D02*
X127723520Y-119534160D01*
X126809120Y-123826760D02*
X126809120Y-122150360D01*
X128053720Y-123826760D02*
X128053720Y-123648960D01*
X127850520Y-119838960D02*
X127850520Y-119457960D01*
X127190120Y-123877560D02*
X127190120Y-123140960D01*
X126885320Y-116206760D02*
X126885320Y-115851160D01*
X126351920Y-123750560D02*
X126351920Y-121972560D01*
X128079120Y-117857760D02*
X128079120Y-117603760D01*
X128180720Y-123877560D02*
X128180720Y-123775960D01*
X126834520Y-123852160D02*
X126834520Y-122175760D01*
X127012320Y-113260360D02*
X127012320Y-112930160D01*
X127317120Y-124131560D02*
X127317120Y-123953760D01*
X127240920Y-116333760D02*
X127240920Y-116079760D01*
X127875920Y-123648960D02*
X127875920Y-123471160D01*
X127266320Y-122124960D02*
X127266320Y-121820160D01*
X128002920Y-115724160D02*
X128002920Y-115419360D01*
X126910720Y-119153160D02*
X126910720Y-118238760D01*
X127647320Y-123877560D02*
X127647320Y-123598160D01*
X127799720Y-120956560D02*
X127799720Y-120016760D01*
X127139320Y-113844560D02*
X127139320Y-113590560D01*
X127901320Y-121007360D02*
X127901320Y-119965960D01*
X127825120Y-117425960D02*
X127825120Y-117171960D01*
X127977520Y-123420360D02*
X127977520Y-121820160D01*
X126656720Y-123674360D02*
X126656720Y-121997960D01*
X128307720Y-121362960D02*
X128307720Y-119889760D01*
X126732920Y-124131560D02*
X126732920Y-123826760D01*
X127367920Y-119432560D02*
X127367920Y-119153160D01*
X127063120Y-114352560D02*
X127063120Y-114276360D01*
X127850520Y-115774960D02*
X127850520Y-115495560D01*
X127494920Y-116409960D02*
X127494920Y-116155960D01*
X128028320Y-124131560D02*
X128028320Y-123953760D01*
X127164720Y-113844560D02*
X127164720Y-113590560D01*
X126682120Y-124080760D02*
X126682120Y-123775960D01*
X127012320Y-122201160D02*
X127012320Y-121997960D01*
X127418720Y-124131560D02*
X127418720Y-123953760D01*
X127545720Y-117857760D02*
X127545720Y-117603760D01*
X127215520Y-116308360D02*
X127215520Y-116054360D01*
X127418720Y-122277360D02*
X127418720Y-121820160D01*
X126910720Y-122099560D02*
X126910720Y-121896360D01*
X126986920Y-113234960D02*
X126986920Y-112904760D01*
X127164720Y-115317760D02*
X127164720Y-114987560D01*
X127164720Y-119381760D02*
X127164720Y-119026160D01*
X127825120Y-120981960D02*
X127825120Y-119991360D01*
X127113920Y-113844560D02*
X127113920Y-113590560D01*
X127672720Y-113463560D02*
X127672720Y-113107960D01*
X128129920Y-119127760D02*
X128129920Y-118289560D01*
X127926720Y-117857760D02*
X127926720Y-117603760D01*
X128256920Y-123699760D02*
X128256920Y-122023360D01*
X127266320Y-117857760D02*
X127266320Y-117603760D01*
X127113920Y-123877560D02*
X127113920Y-123039360D01*
X128104520Y-123547360D02*
X128104520Y-121870960D01*
X127215520Y-115978160D02*
X127215520Y-115724160D01*
X126529720Y-120321560D02*
X126529720Y-120143760D01*
X128002920Y-117425960D02*
X128002920Y-116333760D01*
X127901320Y-115266960D02*
X127901320Y-114835160D01*
X127266320Y-113488960D02*
X127266320Y-113158760D01*
X128206120Y-119661160D02*
X128206120Y-119280160D01*
X127113920Y-120194560D02*
X127113920Y-119838960D01*
X127418720Y-123090160D02*
X127418720Y-122607560D01*
X127494920Y-118797560D02*
X127494920Y-118162560D01*
X127063120Y-121921760D02*
X127063120Y-121820160D01*
X127139320Y-120626360D02*
X127139320Y-120270760D01*
X128155320Y-123598160D02*
X128155320Y-121921760D01*
X127317120Y-116359160D02*
X127317120Y-116105160D01*
X127723520Y-116511560D02*
X127723520Y-115520960D01*
X127393320Y-123090160D02*
X127393320Y-122607560D01*
X128028320Y-123471160D02*
X128028320Y-121820160D01*
X126834520Y-124131560D02*
X126834520Y-123920000D01*
X127799720Y-122658360D02*
X127799720Y-121820160D01*
X127444120Y-115368560D02*
X127444120Y-115089160D01*
X127748920Y-119407160D02*
X127748920Y-119076960D01*
X127190120Y-116308360D02*
X127190120Y-116054360D01*
X127850520Y-115292360D02*
X127850520Y-114911360D01*
X127190120Y-117857760D02*
X127190120Y-117603760D01*
X127799720Y-123572760D02*
X127799720Y-123394960D01*
X126936120Y-119203960D02*
X126936120Y-118213360D01*
X126986920Y-119254760D02*
X126986920Y-118213360D01*
X127799720Y-115317760D02*
X127799720Y-114962160D01*
X128129920Y-117857760D02*
X128129920Y-117603760D01*
X126326520Y-123725160D02*
X126326520Y-121972560D01*
X127037720Y-117857760D02*
X127037720Y-117603760D01*
X126656720Y-124055360D02*
X126656720Y-123750560D01*
X127317120Y-123877560D02*
X127317120Y-123267960D01*
X127825120Y-117857760D02*
X127825120Y-117603760D01*
X127266320Y-122455160D02*
X127266320Y-122251960D01*
X128587120Y-119457960D02*
X128587120Y-119076960D01*
X127317120Y-122175760D02*
X127317120Y-121820160D01*
X127088520Y-119330960D02*
X127088520Y-118924560D01*
X127164720Y-123877560D02*
X127164720Y-123115560D01*
X127571120Y-120854960D02*
X127571120Y-120473960D01*
X127317120Y-120092960D02*
X127317120Y-119737360D01*
X127494920Y-113844560D02*
X127494920Y-113260360D01*
X126961520Y-120550160D02*
X126961520Y-119915160D01*
X126961520Y-117857760D02*
X126961520Y-117603760D01*
X127190120Y-113844560D02*
X127190120Y-113590560D01*
X127317120Y-113539760D02*
X127317120Y-113209560D01*
X126910720Y-117425960D02*
X126910720Y-117171960D01*
X127723520Y-119407160D02*
X127723520Y-119102360D01*
X127799720Y-119864360D02*
X127799720Y-119483360D01*
X127596520Y-113844560D02*
X127596520Y-113590560D01*
X128561720Y-119483360D02*
X128561720Y-119102360D01*
X127367920Y-115368560D02*
X127367920Y-115089160D01*
X127571120Y-113539760D02*
X127571120Y-113209560D01*
X126961520Y-113844560D02*
X126961520Y-113590560D01*
X127088520Y-115292360D02*
X127088520Y-114885960D01*
X127494920Y-120804160D02*
X127494920Y-120448560D01*
X128129920Y-115012960D02*
X128129920Y-114250960D01*
X127494920Y-123267960D02*
X127494920Y-123242560D01*
X127240920Y-120677160D02*
X127240920Y-120321560D01*
X127698120Y-123877560D02*
X127698120Y-123648960D01*
X128053720Y-115114560D02*
X128053720Y-114200160D01*
X127774320Y-124131560D02*
X127774320Y-123953760D01*
X126885320Y-115089160D02*
X126885320Y-114200160D01*
X127875920Y-119356360D02*
X127875920Y-118975360D01*
X127113920Y-121972560D02*
X127113920Y-121820160D01*
X128358520Y-119584960D02*
X128358520Y-119203960D01*
X127494920Y-115368560D02*
X127494920Y-115089160D01*
X128206120Y-123648960D02*
X128206120Y-121972560D01*
X128129920Y-117425960D02*
X128129920Y-116384560D01*
X127240920Y-115978160D02*
X127240920Y-115698760D01*
X127825120Y-113844560D02*
X127825120Y-113590560D01*
X127799720Y-116536960D02*
X127799720Y-115495560D01*
X128129920Y-124131560D02*
X128129920Y-124055360D01*
X127621920Y-120880360D02*
X127621920Y-120499360D01*
X127672720Y-116486160D02*
X127672720Y-115546360D01*
X127190120Y-122048760D02*
X127190120Y-121820160D01*
X127088520Y-121947160D02*
X127088520Y-121820160D01*
X127037720Y-122226560D02*
X127037720Y-122023360D01*
X127520320Y-124131560D02*
X127520320Y-123953760D01*
X128079120Y-115089160D02*
X128079120Y-114174760D01*
X126478920Y-123496560D02*
X126478920Y-121820160D01*
X128002920Y-119762760D02*
X128002920Y-119381760D01*
X128536320Y-119483360D02*
X128536320Y-119102360D01*
X128053720Y-117857760D02*
X128053720Y-117603760D01*
X127215520Y-113844560D02*
X127215520Y-113590560D01*
X128307720Y-119610360D02*
X128307720Y-119229360D01*
X126504320Y-123902960D02*
X126504320Y-123598160D01*
X127469520Y-123877560D02*
X127469520Y-123420360D01*
X127113920Y-120626360D02*
X127113920Y-120270760D01*
X127748920Y-123877560D02*
X127748920Y-123674360D01*
X126936120Y-122124960D02*
X126936120Y-121921760D01*
X127113920Y-119356360D02*
X127113920Y-118949960D01*
X127520320Y-116435360D02*
X127520320Y-116155960D01*
X127596520Y-117425960D02*
X127596520Y-117171960D01*
X127698120Y-122963160D02*
X127698120Y-122734560D01*
X127621920Y-113844560D02*
X127621920Y-113590560D01*
X127672720Y-123013960D02*
X127672720Y-122709160D01*
X126859920Y-113844560D02*
X126859920Y-113590560D01*
X127393320Y-115927360D02*
X127393320Y-115647960D01*
X127926720Y-119788160D02*
X127926720Y-119432560D01*
X128180720Y-114860560D02*
X128180720Y-114428760D01*
X127520320Y-115368560D02*
X127520320Y-115089160D01*
X126885320Y-117857760D02*
X126885320Y-117603760D01*
X127190120Y-120169160D02*
X127190120Y-119813560D01*
X128028320Y-123801360D02*
X128028320Y-123623560D01*
X127647320Y-116486160D02*
X127647320Y-115571760D01*
X127469520Y-115901960D02*
X127469520Y-115622560D01*
X127088520Y-113336560D02*
X127088520Y-112980960D01*
X127926720Y-116587760D02*
X127926720Y-116308360D01*
X128256920Y-119635760D02*
X128256920Y-119254760D01*
X127850520Y-118416560D02*
X127850520Y-118162560D01*
X127317120Y-120727960D02*
X127317120Y-120346960D01*
X126961520Y-115190760D02*
X126961520Y-114225560D01*
X128333120Y-121362960D02*
X128333120Y-119889760D01*
X127545720Y-119991360D02*
X127545720Y-119610360D01*
X127571120Y-123090160D02*
X127571120Y-122632960D01*
X128231520Y-123674360D02*
X128231520Y-121997960D01*
X127647320Y-118416560D02*
X127647320Y-118162560D01*
X127418720Y-113844560D02*
X127418720Y-113311160D01*
X127647320Y-119432560D02*
X127647320Y-119127760D01*
X127342520Y-122455160D02*
X127342520Y-122353560D01*
X127621920Y-123064760D02*
X127621920Y-122658360D01*
X127621920Y-122480560D02*
X127621920Y-121820160D01*
X127698120Y-118416560D02*
X127698120Y-118162560D01*
X127266320Y-120702560D02*
X127266320Y-120321560D01*
X127774320Y-123877560D02*
X127774320Y-123699760D01*
X127672720Y-115368560D02*
X127672720Y-115063760D01*
X127952120Y-115216160D02*
X127952120Y-114225560D01*
X127825120Y-118416560D02*
X127825120Y-118162560D01*
X128028320Y-119737360D02*
X128028320Y-119381760D01*
X126936120Y-120524760D02*
X126936120Y-119940560D01*
X127901320Y-123877560D02*
X127901320Y-123826760D01*
X127240920Y-122429760D02*
X127240920Y-122226560D01*
X127494920Y-120016760D02*
X127494920Y-119635760D01*
X127215520Y-124131560D02*
X127215520Y-123953760D01*
X127901320Y-124131560D02*
X127901320Y-123953760D01*
X126504320Y-120321560D02*
X126504320Y-120143760D01*
X127621920Y-113488960D02*
X127621920Y-113158760D01*
X127672720Y-117857760D02*
X127672720Y-117603760D01*
X127113920Y-118391160D02*
X127113920Y-118289560D01*
X127063120Y-115266960D02*
X127063120Y-114835160D01*
X127723520Y-122886960D02*
X127723520Y-122836160D01*
X127012320Y-116232160D02*
X127012320Y-115800360D01*
X126580520Y-123979160D02*
X126580520Y-123674360D01*
X127596520Y-116460760D02*
X127596520Y-115571760D01*
X128409320Y-119559560D02*
X128409320Y-119178560D01*
X127367920Y-122226560D02*
X127367920Y-121820160D01*
X127113920Y-124131560D02*
X127113920Y-123953760D01*
X128002920Y-121058160D02*
X128002920Y-119915160D01*
X127063120Y-122251960D02*
X127063120Y-122048760D01*
X127317120Y-122455160D02*
X127317120Y-122302760D01*
X127215520Y-113438160D02*
X127215520Y-113107960D01*
X127596520Y-123877560D02*
X127596520Y-123547360D01*
X128155320Y-113844560D02*
X128155320Y-113590560D01*
X127113920Y-113361960D02*
X127113920Y-113006360D01*
X127190120Y-115343160D02*
X127190120Y-115012960D01*
X127901320Y-123344160D02*
X127901320Y-121820160D01*
X127139320Y-113387360D02*
X127139320Y-113031760D01*
X126783720Y-114860560D02*
X126783720Y-114403360D01*
X127774320Y-117857760D02*
X127774320Y-117603760D01*
X128079120Y-113844560D02*
X128079120Y-113590560D01*
X127571120Y-117425960D02*
X127571120Y-117171960D01*
X127520320Y-118797560D02*
X127520320Y-118162560D01*
X127952120Y-121032760D02*
X127952120Y-119940560D01*
X128079120Y-121083560D02*
X128079120Y-119889760D01*
X127748920Y-124131560D02*
X127748920Y-123953760D01*
X127240920Y-117425960D02*
X127240920Y-117171960D01*
X127139320Y-122328160D02*
X127139320Y-122124960D01*
X126859920Y-113133360D02*
X126859920Y-112777760D01*
X126910720Y-115114560D02*
X126910720Y-114200160D01*
X127952120Y-124131560D02*
X127952120Y-123953760D01*
X127190120Y-117425960D02*
X127190120Y-117171960D01*
X127545720Y-118797560D02*
X127545720Y-118162560D01*
X128053720Y-113844560D02*
X128053720Y-113590560D01*
X127520320Y-117425960D02*
X127520320Y-117171960D01*
X127240920Y-113463560D02*
X127240920Y-113133360D01*
X128002920Y-123445760D02*
X128002920Y-121820160D01*
X127494920Y-115901960D02*
X127494920Y-115622560D01*
X127774320Y-117425960D02*
X127774320Y-117171960D01*
X127850520Y-119356360D02*
X127850520Y-119000760D01*
X127672720Y-118416560D02*
X127672720Y-118162560D01*
X127342520Y-115952760D02*
X127342520Y-115673360D01*
X126707520Y-120423160D02*
X126707520Y-120042160D01*
X127139320Y-118340360D02*
X127139320Y-118314960D01*
X127164720Y-116308360D02*
X127164720Y-116054360D01*
X127393320Y-113844560D02*
X127393320Y-113285760D01*
X127342520Y-120092960D02*
X127342520Y-119711960D01*
X127113920Y-117425960D02*
X127113920Y-117171960D01*
X127393320Y-117425960D02*
X127393320Y-117171960D01*
X126936120Y-123877560D02*
X126936120Y-122277360D01*
X127850520Y-122810760D02*
X127850520Y-121820160D01*
X127393320Y-122455160D02*
X127393320Y-122404360D01*
X127393320Y-124131560D02*
X127393320Y-123953760D01*
X127799720Y-123242560D02*
X127799720Y-123064760D01*
X127164720Y-117857760D02*
X127164720Y-117603760D01*
X128256920Y-123877560D02*
X128256920Y-123852160D01*
X127088520Y-122277360D02*
X127088520Y-122074160D01*
X127952120Y-113844560D02*
X127952120Y-113590560D01*
X127164720Y-113387360D02*
X127164720Y-113057160D01*
X126529720Y-123928360D02*
X126529720Y-123623560D01*
X126631320Y-123648960D02*
X126631320Y-121972560D01*
X128079120Y-119711960D02*
X128079120Y-119356360D01*
X128256920Y-121362960D02*
X128256920Y-119889760D01*
X127469520Y-119432560D02*
X127469520Y-119153160D01*
X128282320Y-119610360D02*
X128282320Y-119254760D01*
X127367920Y-115927360D02*
X127367920Y-115673360D01*
X126986920Y-117857760D02*
X126986920Y-117603760D01*
X126859920Y-117425960D02*
X126859920Y-117171960D01*
X128637920Y-119432560D02*
X128637920Y-119051560D01*
X127469520Y-120016760D02*
X127469520Y-119661160D01*
X127393320Y-120753360D02*
X127393320Y-120397760D01*
X126859920Y-115038360D02*
X126859920Y-114200160D01*
X128053720Y-123496560D02*
X128053720Y-121820160D01*
X127850520Y-123293360D02*
X127850520Y-122912360D01*
X127850520Y-120981960D02*
X127850520Y-119991360D01*
X126885320Y-122074160D02*
X126885320Y-121870960D01*
X126758320Y-123775960D02*
X126758320Y-122099560D01*
X127901320Y-114352560D02*
X127901320Y-114250960D01*
X128688720Y-119407160D02*
X128688720Y-119026160D01*
X126809120Y-120473960D02*
X126809120Y-119991360D01*
X127621920Y-117425960D02*
X127621920Y-117171960D01*
X127977520Y-124131560D02*
X127977520Y-123953760D01*
X126224920Y-123623560D02*
X126224920Y-121972560D01*
X127825120Y-115317760D02*
X127825120Y-114936760D01*
X126885320Y-113158760D02*
X126885320Y-112803160D01*
X127647320Y-115368560D02*
X127647320Y-115063760D01*
X127444120Y-123090160D02*
X127444120Y-122607560D01*
X127698120Y-113844560D02*
X127698120Y-113590560D01*
X127748920Y-118416560D02*
X127748920Y-118162560D01*
X127698120Y-117425960D02*
X127698120Y-117171960D01*
X127063120Y-120219960D02*
X127063120Y-119864360D01*
X127139320Y-117857760D02*
X127139320Y-117603760D01*
X127850520Y-116562360D02*
X127850520Y-116282960D01*
X127698120Y-116486160D02*
X127698120Y-115546360D01*
X127799720Y-118416560D02*
X127799720Y-118162560D01*
X127342520Y-123877560D02*
X127342520Y-123293360D01*
X127901320Y-113260360D02*
X127901320Y-112904760D01*
X126809120Y-116181360D02*
X126809120Y-115876560D01*
X127926720Y-117425960D02*
X127926720Y-117171960D01*
X127647320Y-117425960D02*
X127647320Y-117171960D01*
X126859920Y-119076960D02*
X126859920Y-118340360D01*
X127139320Y-124131560D02*
X127139320Y-123953760D01*
X127012320Y-119280160D02*
X127012320Y-118238760D01*
X126707520Y-123725160D02*
X126707520Y-122048760D01*
X127952120Y-115749560D02*
X127952120Y-115444760D01*
X127926720Y-115241560D02*
X127926720Y-114758960D01*
X127164720Y-120651760D02*
X127164720Y-120296160D01*
X127545720Y-116435360D02*
X127545720Y-116181360D01*
X127342520Y-115368560D02*
X127342520Y-115089160D01*
X127571120Y-113844560D02*
X127571120Y-113590560D01*
X127215520Y-117425960D02*
X127215520Y-117171960D01*
X127596520Y-122455160D02*
X127596520Y-121820160D01*
X127596520Y-113514360D02*
X127596520Y-113184160D01*
X127926720Y-123699760D02*
X127926720Y-123521960D01*
X127240920Y-122988560D02*
X127240920Y-122709160D01*
X126986920Y-124131560D02*
X126986920Y-123953760D01*
X128104520Y-117425960D02*
X128104520Y-116359160D01*
X127063120Y-113311160D02*
X127063120Y-112980960D01*
X126402720Y-120270760D02*
X126402720Y-120194560D01*
X127520320Y-115876560D02*
X127520320Y-115597160D01*
X127875920Y-115774960D02*
X127875920Y-115470160D01*
X127367920Y-123877560D02*
X127367920Y-123318760D01*
X128307720Y-123750560D02*
X128307720Y-122074160D01*
X127240920Y-113844560D02*
X127240920Y-113590560D01*
X127723520Y-124131560D02*
X127723520Y-123953760D01*
X127901320Y-119330960D02*
X127901320Y-118949960D01*
X126732920Y-123750560D02*
X126732920Y-122074160D01*
X126910720Y-113184160D02*
X126910720Y-112828560D01*
X128079120Y-123877560D02*
X128079120Y-123674360D01*
X127901320Y-119813560D02*
X127901320Y-119432560D01*
X128028320Y-121083560D02*
X128028320Y-119889760D01*
X128434720Y-123877560D02*
X128434720Y-122201160D01*
X127723520Y-118416560D02*
X127723520Y-118162560D01*
X127926720Y-114428760D02*
X127926720Y-114250960D01*
X127291720Y-122150360D02*
X127291720Y-121820160D01*
X127774320Y-113361960D02*
X127774320Y-113006360D01*
X127444120Y-120042160D02*
X127444120Y-119661160D01*
X128053720Y-119737360D02*
X128053720Y-119356360D01*
X127952120Y-123725160D02*
X127952120Y-123547360D01*
X127698120Y-119915160D02*
X127698120Y-119534160D01*
X127418720Y-115368560D02*
X127418720Y-115089160D01*
X127037720Y-113844560D02*
X127037720Y-113590560D01*
X127342520Y-123064760D02*
X127342520Y-122632960D01*
X126961520Y-113209560D02*
X126961520Y-112879360D01*
X127139320Y-123877560D02*
X127139320Y-123064760D01*
X128129920Y-123877560D02*
X128129920Y-123725160D01*
X126783720Y-117425960D02*
X126783720Y-117171960D01*
X126885320Y-120499360D02*
X126885320Y-119965960D01*
X126910720Y-123877560D02*
X126910720Y-122251960D01*
X127799720Y-124131560D02*
X127799720Y-123953760D01*
X127063120Y-123877560D02*
X127063120Y-122404360D01*
X126555120Y-123953760D02*
X126555120Y-123648960D01*
X127647320Y-120880360D02*
X127647320Y-120499360D01*
X127799720Y-119381760D02*
X127799720Y-119051560D01*
X128180720Y-119661160D02*
X128180720Y-119305560D01*
X127444120Y-120778760D02*
X127444120Y-120423160D01*
X126936120Y-115165360D02*
X126936120Y-114225560D01*
X126428120Y-123826760D02*
X126428120Y-123521960D01*
X127901320Y-113844560D02*
X127901320Y-113590560D01*
X127952120Y-117857760D02*
X127952120Y-117603760D01*
X127012320Y-121870960D02*
X127012320Y-121820160D01*
X127545720Y-115368560D02*
X127545720Y-115089160D01*
X127545720Y-122404360D02*
X127545720Y-121820160D01*
X127621920Y-123877560D02*
X127621920Y-123572760D01*
X127875920Y-124131560D02*
X127875920Y-123953760D01*
X127952120Y-118543560D02*
X127952120Y-118162560D01*
X127469520Y-113844560D02*
X127469520Y-113285760D01*
X128180720Y-119000760D02*
X128180720Y-118416560D01*
X128409320Y-121362960D02*
X128409320Y-119889760D01*
X126809120Y-113844560D02*
X126809120Y-113590560D01*
X127266320Y-115343160D02*
X127266320Y-115038360D01*
X127418720Y-119432560D02*
X127418720Y-119153160D01*
X128053720Y-113133360D02*
X128053720Y-112777760D01*
X128002920Y-123775960D02*
X128002920Y-123598160D01*
X126986920Y-122175760D02*
X126986920Y-121972560D01*
X126885320Y-123877560D02*
X126885320Y-122226560D01*
X127215520Y-122404360D02*
X127215520Y-122201160D01*
X127367920Y-116384560D02*
X127367920Y-116105160D01*
X128028320Y-117857760D02*
X128028320Y-117603760D01*
X127926720Y-118467360D02*
X127926720Y-118162560D01*
X128104520Y-115038360D02*
X128104520Y-114174760D01*
X128383920Y-123826760D02*
X128383920Y-122150360D01*
X127571120Y-118797560D02*
X127571120Y-118162560D01*
X127647320Y-123420360D02*
X127647320Y-123242560D01*
X128104520Y-113844560D02*
X128104520Y-113590560D01*
X127215520Y-117857760D02*
X127215520Y-117603760D01*
X127113920Y-115292360D02*
X127113920Y-114936760D01*
X127342520Y-116359160D02*
X127342520Y-116105160D01*
X127952120Y-117425960D02*
X127952120Y-116308360D01*
X127545720Y-120829560D02*
X127545720Y-120448560D01*
X127494920Y-122353560D02*
X127494920Y-121820160D01*
X127367920Y-124131560D02*
X127367920Y-123953760D01*
X127037720Y-114428760D02*
X127037720Y-114250960D01*
X127418720Y-116384560D02*
X127418720Y-116130560D01*
X127698120Y-120905760D02*
X127698120Y-120524760D01*
X128104520Y-115673360D02*
X128104520Y-115393960D01*
X127266320Y-116333760D02*
X127266320Y-116079760D01*
X127240920Y-124131560D02*
X127240920Y-123953760D01*
X127088520Y-113844560D02*
X127088520Y-113590560D01*
X126783720Y-116155960D02*
X126783720Y-115876560D01*
X126478920Y-120296160D02*
X126478920Y-120169160D01*
X128002920Y-124131560D02*
X128002920Y-123953760D01*
X127164720Y-124131560D02*
X127164720Y-123953760D01*
X126605920Y-124004560D02*
X126605920Y-123699760D01*
X127291720Y-115368560D02*
X127291720Y-115063760D01*
X127825120Y-119838960D02*
X127825120Y-119483360D01*
X127037720Y-113285760D02*
X127037720Y-112955560D01*
X128460120Y-119534160D02*
X128460120Y-119153160D01*
X127444120Y-117857760D02*
X127444120Y-117603760D01*
X127190120Y-113412760D02*
X127190120Y-113082560D01*
X127545720Y-113844560D02*
X127545720Y-113590560D01*
X128282320Y-123725160D02*
X128282320Y-122048760D01*
X127875920Y-115266960D02*
X127875920Y-114885960D01*
X127291720Y-123039360D02*
X127291720Y-122658360D01*
X128358520Y-123801360D02*
X128358520Y-122124960D01*
X126834520Y-120473960D02*
X126834520Y-119991360D01*
X127164720Y-122023360D02*
X127164720Y-121820160D01*
X127393320Y-117857760D02*
X127393320Y-117603760D01*
X127596520Y-124131560D02*
X127596520Y-123953760D01*
X127571120Y-122429760D02*
X127571120Y-121820160D01*
X128409320Y-123877560D02*
X128409320Y-122175760D01*
X127393320Y-122251960D02*
X127393320Y-121820160D01*
X126682120Y-123699760D02*
X126682120Y-122023360D01*
X127291720Y-113514360D02*
X127291720Y-113184160D01*
X128282320Y-121362960D02*
X128282320Y-119889760D01*
X127850520Y-113844560D02*
X127850520Y-113590560D01*
X127875920Y-113844560D02*
X127875920Y-113590560D01*
X127875920Y-123318760D02*
X127875920Y-121820160D01*
X127596520Y-119965960D02*
X127596520Y-119584960D01*
X127825120Y-122709160D02*
X127825120Y-121820160D01*
X126377320Y-120245360D02*
X126377320Y-120219960D01*
X127596520Y-123064760D02*
X127596520Y-122632960D01*
X127520320Y-119991360D02*
X127520320Y-119635760D01*
X127774320Y-119864360D02*
X127774320Y-119508760D01*
X127875920Y-117857760D02*
X127875920Y-117603760D01*
X126910720Y-124131560D02*
X126910720Y-123953760D01*
X127748920Y-120931160D02*
X127748920Y-120550160D01*
X128155320Y-119076960D02*
X128155320Y-118340360D01*
X127571120Y-123877560D02*
X127571120Y-123521960D01*
X126580520Y-120346960D02*
X126580520Y-120118360D01*
X127901320Y-117425960D02*
X127901320Y-117171960D01*
X127952120Y-119788160D02*
X127952120Y-119407160D01*
X127190120Y-120651760D02*
X127190120Y-120296160D01*
X127367920Y-113844560D02*
X127367920Y-113590560D01*
X128104520Y-124131560D02*
X128104520Y-124029960D01*
X127469520Y-117857760D02*
X127469520Y-117603760D01*
X127748920Y-115343160D02*
X127748920Y-115012960D01*
X127672720Y-123877560D02*
X127672720Y-123623560D01*
X128002920Y-119254760D02*
X128002920Y-118162560D01*
X127342520Y-117857760D02*
X127342520Y-117603760D01*
X126580520Y-123598160D02*
X126580520Y-121921760D01*
X127621920Y-118797560D02*
X127621920Y-118162560D01*
X127901320Y-118441960D02*
X127901320Y-118162560D01*
X127520320Y-123293360D02*
X127520320Y-123242560D01*
X127291720Y-119407160D02*
X127291720Y-119127760D01*
X127774320Y-118416560D02*
X127774320Y-118162560D01*
X126910720Y-116206760D02*
X126910720Y-115825760D01*
X127850520Y-117857760D02*
X127850520Y-117603760D01*
X127418720Y-117425960D02*
X127418720Y-117171960D01*
X127977520Y-121058160D02*
X127977520Y-119915160D01*
X127723520Y-117857760D02*
X127723520Y-117603760D01*
X127088520Y-124131560D02*
X127088520Y-123953760D01*
X127545720Y-123877560D02*
X127545720Y-123496560D01*
X127291720Y-116359160D02*
X127291720Y-116079760D01*
X127139320Y-121997960D02*
X127139320Y-121820160D01*
X127545720Y-124131560D02*
X127545720Y-123953760D01*
X126859920Y-123877560D02*
X126859920Y-122201160D01*
X127850520Y-117425960D02*
X127850520Y-117171960D01*
X127621920Y-119432560D02*
X127621920Y-119153160D01*
X127469520Y-122328160D02*
X127469520Y-121820160D01*
X127520320Y-117857760D02*
X127520320Y-117603760D01*
X127342520Y-122201160D02*
X127342520Y-121820160D01*
X127952120Y-119305560D02*
X127952120Y-118822960D01*
X127850520Y-124131560D02*
X127850520Y-123953760D01*
X127977520Y-115724160D02*
X127977520Y-115444760D01*
X126605920Y-120372360D02*
X126605920Y-120092960D01*
X127240920Y-115343160D02*
X127240920Y-115038360D01*
X126885320Y-119127760D02*
X126885320Y-118289560D01*
X126885320Y-117425960D02*
X126885320Y-117171960D01*
X127342520Y-119432560D02*
X127342520Y-119127760D01*
X127520320Y-113844560D02*
X127520320Y-113234960D01*
X127164720Y-120169160D02*
X127164720Y-119813560D01*
X126986920Y-116232160D02*
X126986920Y-115800360D01*
X127012320Y-123877560D02*
X127012320Y-122353560D01*
X126783720Y-113057160D02*
X126783720Y-112701560D01*
X126936120Y-116206760D02*
X126936120Y-115825760D01*
X127748920Y-113844560D02*
X127748920Y-113590560D01*
X127571120Y-123344160D02*
X127571120Y-123242560D01*
X126402720Y-123801360D02*
X126402720Y-123496560D01*
X127494920Y-119432560D02*
X127494920Y-119153160D01*
X126986920Y-117425960D02*
X126986920Y-117171960D01*
X127596520Y-115368560D02*
X127596520Y-115089160D01*
X127977520Y-117425960D02*
X127977520Y-116333760D01*
X127698120Y-115343160D02*
X127698120Y-115038360D01*
X127240920Y-122099560D02*
X127240920Y-121820160D01*
X128460120Y-121362960D02*
X128460120Y-119889760D01*
X127291720Y-122455160D02*
X127291720Y-122277360D01*
X127672720Y-120905760D02*
X127672720Y-120524760D01*
X128510920Y-119508760D02*
X128510920Y-119127760D01*
X127545720Y-123090160D02*
X127545720Y-122607560D01*
X127698120Y-119407160D02*
X127698120Y-119127760D01*
X127469520Y-118797560D02*
X127469520Y-118162560D01*
X126783720Y-113844560D02*
X126783720Y-113590560D01*
X128180720Y-123623560D02*
X128180720Y-121947160D01*
X127850520Y-123877560D02*
X127850520Y-123775960D01*
X128079120Y-113107960D02*
X128079120Y-112752360D01*
X126504320Y-123521960D02*
X126504320Y-121820160D01*
X126961520Y-122150360D02*
X126961520Y-121947160D01*
X128155320Y-117425960D02*
X128155320Y-116384560D01*
X127977520Y-123750560D02*
X127977520Y-123572760D01*
X126732920Y-121896360D02*
X126732920Y-121820160D01*
X127520320Y-123090160D02*
X127520320Y-122607560D01*
X127672720Y-124131560D02*
X127672720Y-123953760D01*
X127266320Y-124131560D02*
X127266320Y-123953760D01*
X126834520Y-113107960D02*
X126834520Y-112752360D01*
X128206120Y-118924560D02*
X128206120Y-118492760D01*
X127799720Y-117857760D02*
X127799720Y-117603760D01*
X127647320Y-113844560D02*
X127647320Y-113590560D01*
X127520320Y-119432560D02*
X127520320Y-119153160D01*
X127418720Y-115927360D02*
X127418720Y-115647960D01*
X127037720Y-115241560D02*
X127037720Y-114784360D01*
X128155320Y-123877560D02*
X128155320Y-123750560D01*
X127063120Y-117857760D02*
X127063120Y-117603760D01*
X127088520Y-118441960D02*
X127088520Y-118289560D01*
X128129920Y-113844560D02*
X128129920Y-113590560D01*
X127164720Y-116003560D02*
X127164720Y-115724160D01*
X128079120Y-115698760D02*
X128079120Y-115393960D01*
X127063120Y-124131560D02*
X127063120Y-123953760D01*
X127266320Y-119407160D02*
X127266320Y-119102360D01*
X127672720Y-113844560D02*
X127672720Y-113590560D01*
X127545720Y-115876560D02*
X127545720Y-115597160D01*
X127037720Y-123877560D02*
X127037720Y-122378960D01*
X127215520Y-122937760D02*
X127215520Y-122759960D01*
X127825120Y-123877560D02*
X127825120Y-123750560D01*
X127139320Y-119356360D02*
X127139320Y-119000760D01*
X127418720Y-120778760D02*
X127418720Y-120397760D01*
X127875920Y-123877560D02*
X127875920Y-123801360D01*
X126656720Y-120397760D02*
X126656720Y-120067560D01*
X127799720Y-113844560D02*
X127799720Y-113590560D01*
X127291720Y-123877560D02*
X127291720Y-123242560D01*
X127926720Y-113844560D02*
X127926720Y-113590560D01*
X127291720Y-117857760D02*
X127291720Y-117603760D01*
X126783720Y-121972560D02*
X126783720Y-121820160D01*
X127774320Y-123547360D02*
X127774320Y-123369560D01*
X127647320Y-123039360D02*
X127647320Y-122658360D01*
X127494920Y-123877560D02*
X127494920Y-123445760D01*
X128053720Y-117425960D02*
X128053720Y-116359160D01*
X127875920Y-113285760D02*
X127875920Y-112930160D01*
X127723520Y-115343160D02*
X127723520Y-115038360D01*
X127266320Y-117425960D02*
X127266320Y-117171960D01*
X126910720Y-117857760D02*
X126910720Y-117603760D01*
X127545720Y-119432560D02*
X127545720Y-119153160D01*
X127393320Y-119432560D02*
X127393320Y-119153160D01*
X127825120Y-115774960D02*
X127825120Y-115495560D01*
X127596520Y-123369560D02*
X127596520Y-123242560D01*
X127977520Y-119762760D02*
X127977520Y-119407160D01*
X126707520Y-121896360D02*
X126707520Y-121820160D01*
X127647320Y-113488960D02*
X127647320Y-113133360D01*
X127063120Y-118543560D02*
X127063120Y-118264160D01*
X127774320Y-123217160D02*
X127774320Y-123090160D01*
X128333120Y-123775960D02*
X128333120Y-122099560D01*
X127139320Y-122632960D02*
X127139320Y-122480560D01*
X127926720Y-119330960D02*
X127926720Y-118899160D01*
X126809120Y-114936760D02*
X126809120Y-114301760D01*
X127748920Y-122582160D02*
X127748920Y-121820160D01*
X128485520Y-119508760D02*
X128485520Y-119127760D01*
X127037720Y-116257560D02*
X127037720Y-115774960D01*
X126377320Y-123775960D02*
X126377320Y-121972560D01*
X128028320Y-113158760D02*
X128028320Y-112777760D01*
X128028320Y-117425960D02*
X128028320Y-116333760D01*
X128079120Y-124131560D02*
X128079120Y-124004560D01*
X126809120Y-121997960D02*
X126809120Y-121820160D01*
X128155320Y-117857760D02*
X128155320Y-117603760D01*
X127596520Y-119432560D02*
X127596520Y-119153160D01*
X127621920Y-119940560D02*
X127621920Y-119584960D01*
X127215520Y-115343160D02*
X127215520Y-115012960D01*
X127063120Y-116257560D02*
X127063120Y-115774960D01*
X127418720Y-122455160D02*
X127418720Y-122429760D01*
X126783720Y-120448560D02*
X126783720Y-120016760D01*
X127571120Y-115876560D02*
X127571120Y-115597160D01*
X128129920Y-113057160D02*
X128129920Y-112701560D01*
X127266320Y-123013960D02*
X127266320Y-122683760D01*
X127926720Y-124131560D02*
X127926720Y-123953760D01*
X128002920Y-113844560D02*
X128002920Y-113590560D01*
X127494920Y-117425960D02*
X127494920Y-117171960D01*
X126809120Y-118924560D02*
X126809120Y-118492760D01*
X127901320Y-117857760D02*
X127901320Y-117603760D01*
X127571120Y-117857760D02*
X127571120Y-117603760D01*
X127113920Y-117857760D02*
X127113920Y-117603760D01*
X127190120Y-124131560D02*
X127190120Y-123953760D01*
X127621920Y-123394960D02*
X127621920Y-123242560D01*
X127596520Y-118797560D02*
X127596520Y-118162560D01*
X127520320Y-120829560D02*
X127520320Y-120448560D01*
X127545720Y-113565160D02*
X127545720Y-113234960D01*
X127088520Y-117857760D02*
X127088520Y-117603760D01*
X127952120Y-123394960D02*
X127952120Y-121820160D01*
X127266320Y-120118360D02*
X127266320Y-119762760D01*
X127164720Y-117425960D02*
X127164720Y-117171960D01*
X126783720Y-124131560D02*
X126783720Y-123880000D01*
X127367920Y-117857760D02*
X127367920Y-117603760D01*
X128104520Y-123877560D02*
X128104520Y-123699760D01*
X126758320Y-121947160D02*
X126758320Y-121820160D01*
X127901320Y-123674360D02*
X127901320Y-123496560D01*
X127875920Y-117425960D02*
X127875920Y-117171960D01*
X126758320Y-124131560D02*
X126758320Y-123850000D01*
X127190120Y-119381760D02*
X127190120Y-119051560D01*
X126936120Y-117425960D02*
X126936120Y-117171960D01*
X128383920Y-119559560D02*
X128383920Y-119178560D01*
X126529720Y-123547360D02*
X126529720Y-121870960D01*
X128460120Y-123877560D02*
X128460120Y-122226560D01*
X126783720Y-123801360D02*
X126783720Y-122124960D01*
X127926720Y-121032760D02*
X127926720Y-119940560D01*
X127317120Y-117857760D02*
X127317120Y-117603760D01*
X127317120Y-119432560D02*
X127317120Y-119127760D01*
X127748920Y-123521960D02*
X127748920Y-123344160D01*
X127139320Y-115317760D02*
X127139320Y-114962160D01*
X127647320Y-122505960D02*
X127647320Y-121820160D01*
X126809120Y-124131560D02*
X126809120Y-123902960D01*
X127825120Y-124131560D02*
X127825120Y-123953760D01*
X127901320Y-116562360D02*
X127901320Y-116282960D01*
X127037720Y-119305560D02*
X127037720Y-118264160D01*
X126682120Y-120397760D02*
X126682120Y-120067560D01*
X126834520Y-117857760D02*
X126834520Y-117603760D01*
D12*
%TO.C,SW3*%
X165750000Y-118500000D02*
X165750000Y-114000000D01*
X170250000Y-114000000D02*
X170250000Y-118500000D01*
%TO.C,SW1*%
X137250000Y-114000000D02*
X137250000Y-118500000D01*
X132750000Y-118500000D02*
X132750000Y-114000000D01*
D13*
%TO.C,ohw_logo*%
X132469900Y-122931800D02*
X133714500Y-122931800D01*
X130564900Y-124506600D02*
X130641100Y-124506600D01*
X130412500Y-123287400D02*
X131733300Y-123287400D01*
X133181100Y-120772800D02*
X133562100Y-120772800D01*
X130158500Y-123922400D02*
X131504700Y-123922400D01*
X132495300Y-123795400D02*
X133841500Y-123795400D01*
X130285500Y-122093600D02*
X131530100Y-122093600D01*
X130387100Y-121433200D02*
X133587500Y-121433200D01*
X132596900Y-122347600D02*
X134324100Y-122347600D01*
X129675900Y-122220600D02*
X131453900Y-122220600D01*
X132571500Y-124024000D02*
X133790700Y-124024000D01*
X132622300Y-122601600D02*
X134349500Y-122601600D01*
X130361700Y-121382400D02*
X133638300Y-121382400D01*
X129650500Y-122652400D02*
X131403100Y-122652400D01*
X132622300Y-122373000D02*
X134324100Y-122373000D01*
X132266700Y-123236600D02*
X133612900Y-123236600D01*
X130285500Y-123770000D02*
X131555500Y-123770000D01*
X132622300Y-122500000D02*
X134349500Y-122500000D01*
X131580900Y-120722000D02*
X132393700Y-120722000D01*
X130437900Y-123541400D02*
X131631700Y-123541400D01*
X132317500Y-121966600D02*
X133663700Y-121966600D01*
X130361700Y-123160400D02*
X131784100Y-123160400D01*
X131657100Y-120290200D02*
X132342900Y-120290200D01*
X132368300Y-123490600D02*
X133638300Y-123490600D01*
X129904500Y-122855600D02*
X131479300Y-122855600D01*
X132622300Y-124151000D02*
X132774700Y-124151000D01*
X133003300Y-124074800D02*
X133765300Y-124074800D01*
X130158500Y-123973200D02*
X131479300Y-123973200D01*
X130361700Y-121407800D02*
X133612900Y-121407800D01*
X133409700Y-124354200D02*
X133689100Y-124354200D01*
X132622300Y-122652400D02*
X134349500Y-122652400D01*
X133155700Y-124201800D02*
X133714500Y-124201800D01*
X130437900Y-121509400D02*
X133536700Y-121509400D01*
X131657100Y-120315600D02*
X132342900Y-120315600D01*
X132520700Y-122169800D02*
X134298700Y-122169800D01*
X132317500Y-123363600D02*
X133536700Y-123363600D01*
X130209300Y-121001400D02*
X131098300Y-121001400D01*
X132495300Y-122881000D02*
X133714500Y-122881000D01*
X130209300Y-123871600D02*
X131530100Y-123871600D01*
X132596900Y-124074800D02*
X132952500Y-124074800D01*
X133054100Y-120849000D02*
X133638300Y-120849000D01*
X130488700Y-121636400D02*
X133511300Y-121636400D01*
X129675900Y-122322200D02*
X131403100Y-122322200D01*
X132622300Y-122525400D02*
X134349500Y-122525400D01*
X130310900Y-124151000D02*
X130996700Y-124151000D01*
X131606300Y-120671200D02*
X132393700Y-120671200D01*
X132241300Y-123135000D02*
X133638300Y-123135000D01*
X130158500Y-123947800D02*
X131504700Y-123947800D01*
X131301500Y-124176400D02*
X131403100Y-124176400D01*
X132622300Y-122576200D02*
X134349500Y-122576200D01*
X131606300Y-120620400D02*
X132393700Y-120620400D01*
X132444500Y-123643000D02*
X133739900Y-123643000D01*
X129650500Y-122601600D02*
X131377700Y-122601600D01*
X133104900Y-124125600D02*
X133714500Y-124125600D01*
X130412500Y-124303400D02*
X130768100Y-124303400D01*
X130463300Y-123389000D02*
X131682500Y-123389000D01*
X132342900Y-123033400D02*
X133689100Y-123033400D01*
X130183900Y-121153800D02*
X133790700Y-121153800D01*
X129675900Y-122296800D02*
X131403100Y-122296800D01*
X130463300Y-120747400D02*
X130742700Y-120747400D01*
X130158500Y-121103000D02*
X133816100Y-121103000D01*
X132546100Y-123897000D02*
X133892300Y-123897000D01*
X131580900Y-120772800D02*
X132419100Y-120772800D01*
X131276100Y-120925200D02*
X132723900Y-120925200D01*
X132444500Y-122957200D02*
X133689100Y-122957200D01*
X130361700Y-121865000D02*
X133612900Y-121865000D01*
X130412500Y-123566800D02*
X131631700Y-123566800D01*
X130412500Y-121484000D02*
X133562100Y-121484000D01*
X132495300Y-123770000D02*
X133816100Y-123770000D01*
X132622300Y-122449200D02*
X134349500Y-122449200D01*
X130387100Y-123617600D02*
X131606300Y-123617600D01*
X130158500Y-121077600D02*
X133816100Y-121077600D01*
X131403100Y-120874400D02*
X132596900Y-120874400D01*
X132977900Y-120899800D02*
X133689100Y-120899800D01*
X129675900Y-122347600D02*
X131403100Y-122347600D01*
X130437900Y-121738000D02*
X133562100Y-121738000D01*
X132596900Y-122728600D02*
X134324100Y-122728600D01*
X130412500Y-121763400D02*
X133587500Y-121763400D01*
X130488700Y-123414400D02*
X131682500Y-123414400D01*
X132190500Y-121915800D02*
X133638300Y-121915800D01*
X129650500Y-122500000D02*
X131377700Y-122500000D01*
X130488700Y-123490600D02*
X131657100Y-123490600D01*
X130260100Y-124100200D02*
X131453900Y-124100200D01*
X130209300Y-124049400D02*
X131453900Y-124049400D01*
X130285500Y-120925200D02*
X130996700Y-120925200D01*
X132927100Y-120950600D02*
X133739900Y-120950600D01*
X132266700Y-121941200D02*
X133663700Y-121941200D01*
X129675900Y-122271400D02*
X131428500Y-122271400D01*
X132622300Y-122398400D02*
X134324100Y-122398400D01*
X132317500Y-123312800D02*
X133562100Y-123312800D01*
X130463300Y-121661800D02*
X133536700Y-121661800D01*
X131123700Y-121001400D02*
X133790700Y-121001400D01*
X130361700Y-120849000D02*
X130895100Y-120849000D01*
X132241300Y-123160400D02*
X133638300Y-123160400D01*
X131174500Y-120976000D02*
X132825500Y-120976000D01*
X129675900Y-122246000D02*
X131428500Y-122246000D01*
X130310900Y-121331600D02*
X133663700Y-121331600D01*
X130336300Y-123109600D02*
X131784100Y-123109600D01*
X132571500Y-123998600D02*
X133816100Y-123998600D01*
X132952500Y-120925200D02*
X133714500Y-120925200D01*
X129650500Y-122576200D02*
X131377700Y-122576200D01*
X130463300Y-124405000D02*
X130691900Y-124405000D01*
X130285500Y-123744600D02*
X131555500Y-123744600D01*
X129650500Y-122449200D02*
X131377700Y-122449200D01*
X130310900Y-123719200D02*
X131580900Y-123719200D01*
X131631700Y-120518800D02*
X132368300Y-120518800D01*
X132647700Y-124201800D02*
X132673100Y-124201800D01*
X132444500Y-122068200D02*
X133917700Y-122068200D01*
X132444500Y-123693800D02*
X133765300Y-123693800D01*
X131682500Y-120214000D02*
X132317500Y-120214000D01*
X131479300Y-120849000D02*
X132520700Y-120849000D01*
X131250700Y-124151000D02*
X131428500Y-124151000D01*
X130361700Y-121890400D02*
X131885700Y-121890400D01*
X130488700Y-123439800D02*
X131682500Y-123439800D01*
X130056900Y-122881000D02*
X131504700Y-122881000D01*
X131580900Y-120747400D02*
X132419100Y-120747400D01*
X133155700Y-124176400D02*
X133714500Y-124176400D01*
X133308100Y-124303400D02*
X133714500Y-124303400D01*
X130336300Y-123668400D02*
X131606300Y-123668400D01*
X132419100Y-123592200D02*
X133689100Y-123592200D01*
X130514100Y-124455800D02*
X130666500Y-124455800D01*
X130437900Y-123312800D02*
X131707900Y-123312800D01*
X132546100Y-123947800D02*
X133866900Y-123947800D01*
X132596900Y-124049400D02*
X133790700Y-124049400D01*
X130539500Y-124481200D02*
X130641100Y-124481200D01*
X133257300Y-120722000D02*
X133485900Y-120722000D01*
X129701300Y-122195200D02*
X131453900Y-122195200D01*
X132546100Y-122830200D02*
X133993900Y-122830200D01*
X131631700Y-120468000D02*
X132368300Y-120468000D01*
X132419100Y-123617600D02*
X133714500Y-123617600D01*
X132419100Y-122042800D02*
X133765300Y-122042800D01*
X130361700Y-123185800D02*
X131758700Y-123185800D01*
X130437900Y-121712600D02*
X133562100Y-121712600D01*
X133460500Y-124405000D02*
X133663700Y-124405000D01*
X130310900Y-123033400D02*
X131657100Y-123033400D01*
X129650500Y-122525400D02*
X131377700Y-122525400D01*
X132596900Y-122322200D02*
X134324100Y-122322200D01*
X132469900Y-123744600D02*
X133790700Y-123744600D01*
X132469900Y-122906400D02*
X133714500Y-122906400D01*
X129650500Y-122627000D02*
X131377700Y-122627000D01*
X132546100Y-122220600D02*
X134324100Y-122220600D01*
X132495300Y-123820800D02*
X133866900Y-123820800D01*
X132342900Y-123389000D02*
X133562100Y-123389000D01*
X133028700Y-120874400D02*
X133663700Y-120874400D01*
X131606300Y-120645800D02*
X132393700Y-120645800D01*
X130361700Y-123643000D02*
X131606300Y-123643000D01*
X130133100Y-122119000D02*
X131504700Y-122119000D01*
X133130300Y-120798200D02*
X133587500Y-120798200D01*
X130310900Y-123008000D02*
X131631700Y-123008000D01*
X130336300Y-123693800D02*
X131580900Y-123693800D01*
X131606300Y-120595000D02*
X132393700Y-120595000D01*
X129675900Y-122677800D02*
X131403100Y-122677800D01*
X130437900Y-124379600D02*
X130691900Y-124379600D01*
X132393700Y-123541400D02*
X133663700Y-123541400D01*
X129675900Y-122398400D02*
X131377700Y-122398400D01*
X130234700Y-120976000D02*
X131072900Y-120976000D01*
X132571500Y-122246000D02*
X134324100Y-122246000D01*
X132393700Y-123566800D02*
X133689100Y-123566800D01*
X133435100Y-124379600D02*
X133663700Y-124379600D01*
X132571500Y-122271400D02*
X134324100Y-122271400D01*
X132393700Y-122982600D02*
X133689100Y-122982600D01*
X130387100Y-120823600D02*
X130844300Y-120823600D01*
X130361700Y-121915800D02*
X131809500Y-121915800D01*
X132342900Y-123414400D02*
X133562100Y-123414400D01*
X129777500Y-122830200D02*
X131479300Y-122830200D01*
X130412500Y-123592200D02*
X131631700Y-123592200D01*
X132546100Y-122195200D02*
X134324100Y-122195200D01*
X133358900Y-124328800D02*
X133689100Y-124328800D01*
X130234700Y-121204600D02*
X133765300Y-121204600D01*
X133231900Y-124252600D02*
X133714500Y-124252600D01*
X130514100Y-120722000D02*
X130717300Y-120722000D01*
X130564900Y-120671200D02*
X130641100Y-120671200D01*
X132317500Y-123338200D02*
X133562100Y-123338200D01*
X132393700Y-122017400D02*
X133689100Y-122017400D01*
X131555500Y-120823600D02*
X132419100Y-120823600D01*
X132546100Y-123922400D02*
X133892300Y-123922400D01*
X132368300Y-123465200D02*
X133612900Y-123465200D01*
X130387100Y-123236600D02*
X131758700Y-123236600D01*
X131657100Y-120341000D02*
X132342900Y-120341000D01*
X130209300Y-121179200D02*
X133790700Y-121179200D01*
X129675900Y-122728600D02*
X131428500Y-122728600D01*
X130336300Y-121357000D02*
X133663700Y-121357000D01*
X129675900Y-122804800D02*
X131453900Y-122804800D01*
X131225300Y-120950600D02*
X132774700Y-120950600D01*
X130539500Y-120696600D02*
X130666500Y-120696600D01*
X132266700Y-123185800D02*
X133612900Y-123185800D01*
X132241300Y-123084200D02*
X133663700Y-123084200D01*
X130183900Y-121026800D02*
X133790700Y-121026800D01*
X130336300Y-121966600D02*
X131682500Y-121966600D01*
X132469900Y-122093600D02*
X134044700Y-122093600D01*
X130412500Y-121788800D02*
X133587500Y-121788800D01*
X132393700Y-123516000D02*
X133638300Y-123516000D01*
X131631700Y-120417200D02*
X132368300Y-120417200D01*
X132292100Y-123058800D02*
X133663700Y-123058800D01*
X132495300Y-122119000D02*
X134197100Y-122119000D01*
X133130300Y-124151000D02*
X133689100Y-124151000D01*
X132596900Y-122296800D02*
X134324100Y-122296800D01*
X130183900Y-122906400D02*
X131530100Y-122906400D01*
X132647700Y-124176400D02*
X132723900Y-124176400D01*
X130336300Y-124176400D02*
X130945900Y-124176400D01*
X130285500Y-122931800D02*
X131555500Y-122931800D01*
X130463300Y-121687200D02*
X133536700Y-121687200D01*
X130183900Y-124024000D02*
X131479300Y-124024000D01*
X131631700Y-120493400D02*
X132368300Y-120493400D01*
X132495300Y-122144400D02*
X134298700Y-122144400D01*
X132520700Y-123846200D02*
X133866900Y-123846200D01*
X130234700Y-123820800D02*
X131530100Y-123820800D01*
X129675900Y-122779400D02*
X131428500Y-122779400D01*
X130158500Y-123998600D02*
X131479300Y-123998600D01*
X130463300Y-123516000D02*
X131657100Y-123516000D01*
X132520700Y-123871600D02*
X133892300Y-123871600D01*
X132571500Y-122754000D02*
X134324100Y-122754000D01*
X130463300Y-123363600D02*
X131707900Y-123363600D01*
X130387100Y-121814200D02*
X133612900Y-121814200D01*
X130183900Y-121128400D02*
X133816100Y-121128400D01*
X131580900Y-120798200D02*
X132419100Y-120798200D01*
X133536700Y-124481200D02*
X133587500Y-124481200D01*
X130336300Y-123058800D02*
X131707900Y-123058800D01*
X130310900Y-120899800D02*
X130971300Y-120899800D01*
X130437900Y-123338200D02*
X131707900Y-123338200D01*
X132368300Y-123008000D02*
X133689100Y-123008000D01*
X130285500Y-121280800D02*
X133714500Y-121280800D01*
X131657100Y-120264800D02*
X132342900Y-120264800D01*
X130437900Y-124354200D02*
X130717300Y-124354200D01*
X133511300Y-124455800D02*
X133612900Y-124455800D01*
X132571500Y-122779400D02*
X134298700Y-122779400D01*
X131631700Y-120442600D02*
X132368300Y-120442600D01*
X130336300Y-120874400D02*
X130920500Y-120874400D01*
X132622300Y-122627000D02*
X134349500Y-122627000D01*
X132622300Y-124100200D02*
X132876300Y-124100200D01*
X132520700Y-122855600D02*
X133816100Y-122855600D01*
X133485900Y-124430400D02*
X133638300Y-124430400D01*
X130488700Y-121585600D02*
X133485900Y-121585600D01*
X132622300Y-124125600D02*
X132825500Y-124125600D01*
X131657100Y-120366400D02*
X132342900Y-120366400D01*
X130387100Y-123211200D02*
X131758700Y-123211200D01*
X131606300Y-120569600D02*
X132393700Y-120569600D01*
X130336300Y-121992000D02*
X131657100Y-121992000D01*
X133333500Y-120671200D02*
X133435100Y-120671200D01*
X129828300Y-122169800D02*
X131479300Y-122169800D01*
X133257300Y-124278000D02*
X133714500Y-124278000D01*
X130387100Y-124227200D02*
X130869700Y-124227200D01*
X132469900Y-123719200D02*
X133790700Y-123719200D01*
X131326900Y-120899800D02*
X132647700Y-120899800D01*
X129675900Y-122703200D02*
X131403100Y-122703200D01*
X130463300Y-121560200D02*
X133511300Y-121560200D01*
X133079500Y-124100200D02*
X133739900Y-124100200D01*
X130310900Y-122068200D02*
X131555500Y-122068200D01*
X130310900Y-121306200D02*
X133689100Y-121306200D01*
X130361700Y-123135000D02*
X131784100Y-123135000D01*
X132622300Y-122423800D02*
X134349500Y-122423800D01*
X132114300Y-121890400D02*
X133638300Y-121890400D01*
X132622300Y-122550800D02*
X134349500Y-122550800D01*
X129650500Y-122550800D02*
X131377700Y-122550800D01*
X132622300Y-122474600D02*
X134349500Y-122474600D01*
X130412500Y-124278000D02*
X130793500Y-124278000D01*
X130260100Y-121255400D02*
X133714500Y-121255400D01*
X132546100Y-122804800D02*
X134146300Y-122804800D01*
X130412500Y-120798200D02*
X130818900Y-120798200D01*
X129980700Y-122144400D02*
X131504700Y-122144400D01*
X131606300Y-120544200D02*
X132368300Y-120544200D01*
X130310900Y-122957200D02*
X131555500Y-122957200D01*
X130234700Y-124074800D02*
X131453900Y-124074800D01*
X130387100Y-121839600D02*
X133612900Y-121839600D01*
X130488700Y-121611000D02*
X133485900Y-121611000D01*
X130183900Y-121052200D02*
X133816100Y-121052200D01*
X129675900Y-122423800D02*
X131377700Y-122423800D01*
X132342900Y-121992000D02*
X133663700Y-121992000D01*
X129675900Y-122373000D02*
X131403100Y-122373000D01*
X130260100Y-123795400D02*
X131555500Y-123795400D01*
X132292100Y-123287400D02*
X133587500Y-123287400D01*
X132292100Y-123262000D02*
X133587500Y-123262000D01*
X130412500Y-123262000D02*
X131733300Y-123262000D01*
X130361700Y-124201800D02*
X130920500Y-124201800D01*
X130412500Y-124252600D02*
X130844300Y-124252600D01*
X132444500Y-123668400D02*
X133739900Y-123668400D01*
X130412500Y-124328800D02*
X130742700Y-124328800D01*
X133206500Y-120747400D02*
X133536700Y-120747400D01*
X132596900Y-122703200D02*
X134324100Y-122703200D01*
X130463300Y-121534800D02*
X133511300Y-121534800D01*
X132266700Y-123211200D02*
X133612900Y-123211200D01*
X132368300Y-123439800D02*
X133587500Y-123439800D01*
X130310900Y-122042800D02*
X131580900Y-122042800D01*
X130437900Y-120772800D02*
X130793500Y-120772800D01*
X131657100Y-120391800D02*
X132342900Y-120391800D01*
X131580900Y-120696600D02*
X132393700Y-120696600D01*
X131174500Y-124125600D02*
X131428500Y-124125600D01*
X130310900Y-122017400D02*
X131606300Y-122017400D01*
X130183900Y-123897000D02*
X131504700Y-123897000D01*
X130336300Y-123084200D02*
X131758700Y-123084200D01*
X132596900Y-122677800D02*
X134349500Y-122677800D01*
X130310900Y-122982600D02*
X131606300Y-122982600D01*
X130488700Y-123465200D02*
X131657100Y-123465200D01*
X130336300Y-121941200D02*
X131733300Y-121941200D01*
X133206500Y-124227200D02*
X133714500Y-124227200D01*
X131352300Y-124201800D02*
X131403100Y-124201800D01*
X133104900Y-120823600D02*
X133612900Y-120823600D01*
X130260100Y-120950600D02*
X131022100Y-120950600D01*
X130209300Y-123846200D02*
X131530100Y-123846200D01*
X129650500Y-122474600D02*
X131377700Y-122474600D01*
X132571500Y-123973200D02*
X133841500Y-123973200D01*
X133282700Y-120696600D02*
X133460500Y-120696600D01*
X130412500Y-121458600D02*
X133587500Y-121458600D01*
X131682500Y-120239400D02*
X132317500Y-120239400D01*
X132241300Y-123109600D02*
X133663700Y-123109600D01*
X130285500Y-124125600D02*
X131047500Y-124125600D01*
X130234700Y-121230000D02*
X133739900Y-121230000D01*
X132876300Y-120976000D02*
X133765300Y-120976000D01*
X131834900Y-120188600D02*
X132088900Y-120188600D01*
X130488700Y-124430400D02*
X130666500Y-124430400D01*
X129675900Y-122754000D02*
X131428500Y-122754000D01*
D11*
%TO.C,D2*%
X130420000Y-109262000D02*
X129580000Y-109262000D01*
X129580000Y-107738000D02*
X130420000Y-107738000D01*
D10*
%TO.C,REF\u002A\u002A*%
X131750000Y-106750000D02*
X131750000Y-110250000D01*
X131750000Y-110250000D02*
X128250000Y-110250000D01*
X132350000Y-110850000D02*
X127650000Y-110850000D01*
X127650000Y-106150000D02*
X132350000Y-106150000D01*
X128250000Y-110250000D02*
X128250000Y-106750000D01*
X132350000Y-106150000D02*
X132350000Y-110850000D01*
X127650000Y-110850000D02*
X127650000Y-106150000D01*
X128250000Y-106750000D02*
X131750000Y-106750000D01*
D12*
%TO.C,SW2*%
X146250000Y-118500000D02*
X146250000Y-114000000D01*
X150750000Y-114000000D02*
X150750000Y-118500000D01*
%TO.C,SW5*%
X160500000Y-124750000D02*
X156000000Y-124750000D01*
X156000000Y-120250000D02*
X160500000Y-120250000D01*
%TD*%
D14*
%TO.C,P2*%
X138460000Y-106460000D03*
D15*
X141000000Y-106460000D03*
D14*
X138460000Y-109635000D03*
D15*
X142016000Y-111540000D03*
X139984000Y-111540000D03*
D14*
X143540000Y-106460000D03*
X143540000Y-109635000D03*
%TD*%
M02*
