%TF.GenerationSoftware,KiCad,Pcbnew,6.0.0*%
%TF.CreationDate,2022-06-11T19:07:52+02:00*%
%TF.ProjectId,cowdin-3c-esp-ui,636f7764-696e-42d3-9363-2d6573702d75,1*%
%TF.SameCoordinates,Original*%
%TF.FileFunction,Legend,Bot*%
%TF.FilePolarity,Positive*%
%FSLAX46Y46*%
G04 Gerber Fmt 4.6, Leading zero omitted, Abs format (unit mm)*
G04 Created by KiCad (PCBNEW 6.0.0) date 2022-06-11 19:07:52*
%MOMM*%
%LPD*%
G01*
G04 APERTURE LIST*
%ADD10C,0.101600*%
%ADD11C,0.076200*%
%ADD12C,0.150000*%
%ADD13C,0.127000*%
%ADD14C,0.120000*%
%ADD15C,0.100000*%
G04 APERTURE END LIST*
D10*
%TO.C,C9*%
X150772142Y-99223000D02*
X150808428Y-99186714D01*
X150844714Y-99077857D01*
X150844714Y-99005285D01*
X150808428Y-98896428D01*
X150735857Y-98823857D01*
X150663285Y-98787571D01*
X150518142Y-98751285D01*
X150409285Y-98751285D01*
X150264142Y-98787571D01*
X150191571Y-98823857D01*
X150119000Y-98896428D01*
X150082714Y-99005285D01*
X150082714Y-99077857D01*
X150119000Y-99186714D01*
X150155285Y-99223000D01*
X150844714Y-99585857D02*
X150844714Y-99731000D01*
X150808428Y-99803571D01*
X150772142Y-99839857D01*
X150663285Y-99912428D01*
X150518142Y-99948714D01*
X150227857Y-99948714D01*
X150155285Y-99912428D01*
X150119000Y-99876142D01*
X150082714Y-99803571D01*
X150082714Y-99658428D01*
X150119000Y-99585857D01*
X150155285Y-99549571D01*
X150227857Y-99513285D01*
X150409285Y-99513285D01*
X150481857Y-99549571D01*
X150518142Y-99585857D01*
X150554428Y-99658428D01*
X150554428Y-99803571D01*
X150518142Y-99876142D01*
X150481857Y-99912428D01*
X150409285Y-99948714D01*
%TO.C,U1*%
X161580571Y-106032714D02*
X161580571Y-106649571D01*
X161544285Y-106722142D01*
X161508000Y-106758428D01*
X161435428Y-106794714D01*
X161290285Y-106794714D01*
X161217714Y-106758428D01*
X161181428Y-106722142D01*
X161145142Y-106649571D01*
X161145142Y-106032714D01*
X160383142Y-106794714D02*
X160818571Y-106794714D01*
X160600857Y-106794714D02*
X160600857Y-106032714D01*
X160673428Y-106141571D01*
X160746000Y-106214142D01*
X160818571Y-106250428D01*
%TO.C,C11*%
X137422142Y-113760142D02*
X137458428Y-113723857D01*
X137494714Y-113615000D01*
X137494714Y-113542428D01*
X137458428Y-113433571D01*
X137385857Y-113361000D01*
X137313285Y-113324714D01*
X137168142Y-113288428D01*
X137059285Y-113288428D01*
X136914142Y-113324714D01*
X136841571Y-113361000D01*
X136769000Y-113433571D01*
X136732714Y-113542428D01*
X136732714Y-113615000D01*
X136769000Y-113723857D01*
X136805285Y-113760142D01*
X137494714Y-114485857D02*
X137494714Y-114050428D01*
X137494714Y-114268142D02*
X136732714Y-114268142D01*
X136841571Y-114195571D01*
X136914142Y-114123000D01*
X136950428Y-114050428D01*
X137494714Y-115211571D02*
X137494714Y-114776142D01*
X137494714Y-114993857D02*
X136732714Y-114993857D01*
X136841571Y-114921285D01*
X136914142Y-114848714D01*
X136950428Y-114776142D01*
D11*
%TO.C,D1*%
X141562428Y-118044714D02*
X141562428Y-117282714D01*
X141381000Y-117282714D01*
X141272142Y-117319000D01*
X141199571Y-117391571D01*
X141163285Y-117464142D01*
X141127000Y-117609285D01*
X141127000Y-117718142D01*
X141163285Y-117863285D01*
X141199571Y-117935857D01*
X141272142Y-118008428D01*
X141381000Y-118044714D01*
X141562428Y-118044714D01*
X140401285Y-118044714D02*
X140836714Y-118044714D01*
X140619000Y-118044714D02*
X140619000Y-117282714D01*
X140691571Y-117391571D01*
X140764142Y-117464142D01*
X140836714Y-117500428D01*
D10*
%TO.C,U2*%
X165080571Y-118232714D02*
X165080571Y-118849571D01*
X165044285Y-118922142D01*
X165008000Y-118958428D01*
X164935428Y-118994714D01*
X164790285Y-118994714D01*
X164717714Y-118958428D01*
X164681428Y-118922142D01*
X164645142Y-118849571D01*
X164645142Y-118232714D01*
X164318571Y-118305285D02*
X164282285Y-118269000D01*
X164209714Y-118232714D01*
X164028285Y-118232714D01*
X163955714Y-118269000D01*
X163919428Y-118305285D01*
X163883142Y-118377857D01*
X163883142Y-118450428D01*
X163919428Y-118559285D01*
X164354857Y-118994714D01*
X163883142Y-118994714D01*
%TO.C,C2*%
X134372142Y-120623000D02*
X134408428Y-120586714D01*
X134444714Y-120477857D01*
X134444714Y-120405285D01*
X134408428Y-120296428D01*
X134335857Y-120223857D01*
X134263285Y-120187571D01*
X134118142Y-120151285D01*
X134009285Y-120151285D01*
X133864142Y-120187571D01*
X133791571Y-120223857D01*
X133719000Y-120296428D01*
X133682714Y-120405285D01*
X133682714Y-120477857D01*
X133719000Y-120586714D01*
X133755285Y-120623000D01*
X133755285Y-120913285D02*
X133719000Y-120949571D01*
X133682714Y-121022142D01*
X133682714Y-121203571D01*
X133719000Y-121276142D01*
X133755285Y-121312428D01*
X133827857Y-121348714D01*
X133900428Y-121348714D01*
X134009285Y-121312428D01*
X134444714Y-120877000D01*
X134444714Y-121348714D01*
%TO.C,C3*%
X166917102Y-112772142D02*
X166953388Y-112808428D01*
X167062245Y-112844714D01*
X167134817Y-112844714D01*
X167243674Y-112808428D01*
X167316245Y-112735857D01*
X167352531Y-112663285D01*
X167388817Y-112518142D01*
X167388817Y-112409285D01*
X167352531Y-112264142D01*
X167316245Y-112191571D01*
X167243674Y-112119000D01*
X167134817Y-112082714D01*
X167062245Y-112082714D01*
X166953388Y-112119000D01*
X166917102Y-112155285D01*
X166663102Y-112082714D02*
X166191388Y-112082714D01*
X166445388Y-112373000D01*
X166336531Y-112373000D01*
X166263960Y-112409285D01*
X166227674Y-112445571D01*
X166191388Y-112518142D01*
X166191388Y-112699571D01*
X166227674Y-112772142D01*
X166263960Y-112808428D01*
X166336531Y-112844714D01*
X166554245Y-112844714D01*
X166626817Y-112808428D01*
X166663102Y-112772142D01*
%TO.C,R3*%
X135294714Y-109123000D02*
X134931857Y-108869000D01*
X135294714Y-108687571D02*
X134532714Y-108687571D01*
X134532714Y-108977857D01*
X134569000Y-109050428D01*
X134605285Y-109086714D01*
X134677857Y-109123000D01*
X134786714Y-109123000D01*
X134859285Y-109086714D01*
X134895571Y-109050428D01*
X134931857Y-108977857D01*
X134931857Y-108687571D01*
X134532714Y-109377000D02*
X134532714Y-109848714D01*
X134823000Y-109594714D01*
X134823000Y-109703571D01*
X134859285Y-109776142D01*
X134895571Y-109812428D01*
X134968142Y-109848714D01*
X135149571Y-109848714D01*
X135222142Y-109812428D01*
X135258428Y-109776142D01*
X135294714Y-109703571D01*
X135294714Y-109485857D01*
X135258428Y-109413285D01*
X135222142Y-109377000D01*
%TO.C,C7*%
X166772142Y-97932897D02*
X166808428Y-97896611D01*
X166844714Y-97787754D01*
X166844714Y-97715182D01*
X166808428Y-97606325D01*
X166735857Y-97533754D01*
X166663285Y-97497468D01*
X166518142Y-97461182D01*
X166409285Y-97461182D01*
X166264142Y-97497468D01*
X166191571Y-97533754D01*
X166119000Y-97606325D01*
X166082714Y-97715182D01*
X166082714Y-97787754D01*
X166119000Y-97896611D01*
X166155285Y-97932897D01*
X166082714Y-98186897D02*
X166082714Y-98694897D01*
X166844714Y-98368325D01*
%TO.C,C14*%
X152567102Y-107522142D02*
X152603388Y-107558428D01*
X152712245Y-107594714D01*
X152784817Y-107594714D01*
X152893674Y-107558428D01*
X152966245Y-107485857D01*
X153002531Y-107413285D01*
X153038817Y-107268142D01*
X153038817Y-107159285D01*
X153002531Y-107014142D01*
X152966245Y-106941571D01*
X152893674Y-106869000D01*
X152784817Y-106832714D01*
X152712245Y-106832714D01*
X152603388Y-106869000D01*
X152567102Y-106905285D01*
X151841388Y-107594714D02*
X152276817Y-107594714D01*
X152059102Y-107594714D02*
X152059102Y-106832714D01*
X152131674Y-106941571D01*
X152204245Y-107014142D01*
X152276817Y-107050428D01*
X151188245Y-107086714D02*
X151188245Y-107594714D01*
X151369674Y-106796428D02*
X151551102Y-107340714D01*
X151079388Y-107340714D01*
%TO.C,C15*%
X169539857Y-107522142D02*
X169576142Y-107558428D01*
X169685000Y-107594714D01*
X169757571Y-107594714D01*
X169866428Y-107558428D01*
X169939000Y-107485857D01*
X169975285Y-107413285D01*
X170011571Y-107268142D01*
X170011571Y-107159285D01*
X169975285Y-107014142D01*
X169939000Y-106941571D01*
X169866428Y-106869000D01*
X169757571Y-106832714D01*
X169685000Y-106832714D01*
X169576142Y-106869000D01*
X169539857Y-106905285D01*
X168814142Y-107594714D02*
X169249571Y-107594714D01*
X169031857Y-107594714D02*
X169031857Y-106832714D01*
X169104428Y-106941571D01*
X169177000Y-107014142D01*
X169249571Y-107050428D01*
X168124714Y-106832714D02*
X168487571Y-106832714D01*
X168523857Y-107195571D01*
X168487571Y-107159285D01*
X168415000Y-107123000D01*
X168233571Y-107123000D01*
X168161000Y-107159285D01*
X168124714Y-107195571D01*
X168088428Y-107268142D01*
X168088428Y-107449571D01*
X168124714Y-107522142D01*
X168161000Y-107558428D01*
X168233571Y-107594714D01*
X168415000Y-107594714D01*
X168487571Y-107558428D01*
X168523857Y-107522142D01*
%TO.C,P1*%
X156222325Y-121144714D02*
X156222325Y-120382714D01*
X155932040Y-120382714D01*
X155859468Y-120419000D01*
X155823182Y-120455285D01*
X155786897Y-120527857D01*
X155786897Y-120636714D01*
X155823182Y-120709285D01*
X155859468Y-120745571D01*
X155932040Y-120781857D01*
X156222325Y-120781857D01*
X155061182Y-121144714D02*
X155496611Y-121144714D01*
X155278897Y-121144714D02*
X155278897Y-120382714D01*
X155351468Y-120491571D01*
X155424040Y-120564142D01*
X155496611Y-120600428D01*
%TO.C,C12*%
X151567102Y-112172142D02*
X151603388Y-112208428D01*
X151712245Y-112244714D01*
X151784817Y-112244714D01*
X151893674Y-112208428D01*
X151966245Y-112135857D01*
X152002531Y-112063285D01*
X152038817Y-111918142D01*
X152038817Y-111809285D01*
X152002531Y-111664142D01*
X151966245Y-111591571D01*
X151893674Y-111519000D01*
X151784817Y-111482714D01*
X151712245Y-111482714D01*
X151603388Y-111519000D01*
X151567102Y-111555285D01*
X150841388Y-112244714D02*
X151276817Y-112244714D01*
X151059102Y-112244714D02*
X151059102Y-111482714D01*
X151131674Y-111591571D01*
X151204245Y-111664142D01*
X151276817Y-111700428D01*
X150551102Y-111555285D02*
X150514817Y-111519000D01*
X150442245Y-111482714D01*
X150260817Y-111482714D01*
X150188245Y-111519000D01*
X150151960Y-111555285D01*
X150115674Y-111627857D01*
X150115674Y-111700428D01*
X150151960Y-111809285D01*
X150587388Y-112244714D01*
X150115674Y-112244714D01*
%TO.C,C18*%
X170272142Y-119260142D02*
X170308428Y-119223857D01*
X170344714Y-119115000D01*
X170344714Y-119042428D01*
X170308428Y-118933571D01*
X170235857Y-118861000D01*
X170163285Y-118824714D01*
X170018142Y-118788428D01*
X169909285Y-118788428D01*
X169764142Y-118824714D01*
X169691571Y-118861000D01*
X169619000Y-118933571D01*
X169582714Y-119042428D01*
X169582714Y-119115000D01*
X169619000Y-119223857D01*
X169655285Y-119260142D01*
X170344714Y-119985857D02*
X170344714Y-119550428D01*
X170344714Y-119768142D02*
X169582714Y-119768142D01*
X169691571Y-119695571D01*
X169764142Y-119623000D01*
X169800428Y-119550428D01*
X169909285Y-120421285D02*
X169873000Y-120348714D01*
X169836714Y-120312428D01*
X169764142Y-120276142D01*
X169727857Y-120276142D01*
X169655285Y-120312428D01*
X169619000Y-120348714D01*
X169582714Y-120421285D01*
X169582714Y-120566428D01*
X169619000Y-120639000D01*
X169655285Y-120675285D01*
X169727857Y-120711571D01*
X169764142Y-120711571D01*
X169836714Y-120675285D01*
X169873000Y-120639000D01*
X169909285Y-120566428D01*
X169909285Y-120421285D01*
X169945571Y-120348714D01*
X169981857Y-120312428D01*
X170054428Y-120276142D01*
X170199571Y-120276142D01*
X170272142Y-120312428D01*
X170308428Y-120348714D01*
X170344714Y-120421285D01*
X170344714Y-120566428D01*
X170308428Y-120639000D01*
X170272142Y-120675285D01*
X170199571Y-120711571D01*
X170054428Y-120711571D01*
X169981857Y-120675285D01*
X169945571Y-120639000D01*
X169909285Y-120566428D01*
%TO.C,C10*%
X148739857Y-97272142D02*
X148776142Y-97308428D01*
X148885000Y-97344714D01*
X148957571Y-97344714D01*
X149066428Y-97308428D01*
X149139000Y-97235857D01*
X149175285Y-97163285D01*
X149211571Y-97018142D01*
X149211571Y-96909285D01*
X149175285Y-96764142D01*
X149139000Y-96691571D01*
X149066428Y-96619000D01*
X148957571Y-96582714D01*
X148885000Y-96582714D01*
X148776142Y-96619000D01*
X148739857Y-96655285D01*
X148014142Y-97344714D02*
X148449571Y-97344714D01*
X148231857Y-97344714D02*
X148231857Y-96582714D01*
X148304428Y-96691571D01*
X148377000Y-96764142D01*
X148449571Y-96800428D01*
X147542428Y-96582714D02*
X147469857Y-96582714D01*
X147397285Y-96619000D01*
X147361000Y-96655285D01*
X147324714Y-96727857D01*
X147288428Y-96873000D01*
X147288428Y-97054428D01*
X147324714Y-97199571D01*
X147361000Y-97272142D01*
X147397285Y-97308428D01*
X147469857Y-97344714D01*
X147542428Y-97344714D01*
X147615000Y-97308428D01*
X147651285Y-97272142D01*
X147687571Y-97199571D01*
X147723857Y-97054428D01*
X147723857Y-96873000D01*
X147687571Y-96727857D01*
X147651285Y-96655285D01*
X147615000Y-96619000D01*
X147542428Y-96582714D01*
%TO.C,C5*%
X167577000Y-111522142D02*
X167613285Y-111558428D01*
X167722142Y-111594714D01*
X167794714Y-111594714D01*
X167903571Y-111558428D01*
X167976142Y-111485857D01*
X168012428Y-111413285D01*
X168048714Y-111268142D01*
X168048714Y-111159285D01*
X168012428Y-111014142D01*
X167976142Y-110941571D01*
X167903571Y-110869000D01*
X167794714Y-110832714D01*
X167722142Y-110832714D01*
X167613285Y-110869000D01*
X167577000Y-110905285D01*
X166887571Y-110832714D02*
X167250428Y-110832714D01*
X167286714Y-111195571D01*
X167250428Y-111159285D01*
X167177857Y-111123000D01*
X166996428Y-111123000D01*
X166923857Y-111159285D01*
X166887571Y-111195571D01*
X166851285Y-111268142D01*
X166851285Y-111449571D01*
X166887571Y-111522142D01*
X166923857Y-111558428D01*
X166996428Y-111594714D01*
X167177857Y-111594714D01*
X167250428Y-111558428D01*
X167286714Y-111522142D01*
%TO.C,C16*%
X162839857Y-100272142D02*
X162876142Y-100308428D01*
X162985000Y-100344714D01*
X163057571Y-100344714D01*
X163166428Y-100308428D01*
X163239000Y-100235857D01*
X163275285Y-100163285D01*
X163311571Y-100018142D01*
X163311571Y-99909285D01*
X163275285Y-99764142D01*
X163239000Y-99691571D01*
X163166428Y-99619000D01*
X163057571Y-99582714D01*
X162985000Y-99582714D01*
X162876142Y-99619000D01*
X162839857Y-99655285D01*
X162114142Y-100344714D02*
X162549571Y-100344714D01*
X162331857Y-100344714D02*
X162331857Y-99582714D01*
X162404428Y-99691571D01*
X162477000Y-99764142D01*
X162549571Y-99800428D01*
X161461000Y-99582714D02*
X161606142Y-99582714D01*
X161678714Y-99619000D01*
X161715000Y-99655285D01*
X161787571Y-99764142D01*
X161823857Y-99909285D01*
X161823857Y-100199571D01*
X161787571Y-100272142D01*
X161751285Y-100308428D01*
X161678714Y-100344714D01*
X161533571Y-100344714D01*
X161461000Y-100308428D01*
X161424714Y-100272142D01*
X161388428Y-100199571D01*
X161388428Y-100018142D01*
X161424714Y-99945571D01*
X161461000Y-99909285D01*
X161533571Y-99873000D01*
X161678714Y-99873000D01*
X161751285Y-99909285D01*
X161787571Y-99945571D01*
X161823857Y-100018142D01*
%TO.C,C4*%
X167567102Y-115022142D02*
X167603388Y-115058428D01*
X167712245Y-115094714D01*
X167784817Y-115094714D01*
X167893674Y-115058428D01*
X167966245Y-114985857D01*
X168002531Y-114913285D01*
X168038817Y-114768142D01*
X168038817Y-114659285D01*
X168002531Y-114514142D01*
X167966245Y-114441571D01*
X167893674Y-114369000D01*
X167784817Y-114332714D01*
X167712245Y-114332714D01*
X167603388Y-114369000D01*
X167567102Y-114405285D01*
X166913960Y-114586714D02*
X166913960Y-115094714D01*
X167095388Y-114296428D02*
X167276817Y-114840714D01*
X166805102Y-114840714D01*
%TO.C,DISP1*%
X160437714Y-95484714D02*
X160437714Y-94722714D01*
X160256285Y-94722714D01*
X160147428Y-94759000D01*
X160074857Y-94831571D01*
X160038571Y-94904142D01*
X160002285Y-95049285D01*
X160002285Y-95158142D01*
X160038571Y-95303285D01*
X160074857Y-95375857D01*
X160147428Y-95448428D01*
X160256285Y-95484714D01*
X160437714Y-95484714D01*
X159675714Y-95484714D02*
X159675714Y-94722714D01*
X159349142Y-95448428D02*
X159240285Y-95484714D01*
X159058857Y-95484714D01*
X158986285Y-95448428D01*
X158950000Y-95412142D01*
X158913714Y-95339571D01*
X158913714Y-95267000D01*
X158950000Y-95194428D01*
X158986285Y-95158142D01*
X159058857Y-95121857D01*
X159204000Y-95085571D01*
X159276571Y-95049285D01*
X159312857Y-95013000D01*
X159349142Y-94940428D01*
X159349142Y-94867857D01*
X159312857Y-94795285D01*
X159276571Y-94759000D01*
X159204000Y-94722714D01*
X159022571Y-94722714D01*
X158913714Y-94759000D01*
X158587142Y-95484714D02*
X158587142Y-94722714D01*
X158296857Y-94722714D01*
X158224285Y-94759000D01*
X158188000Y-94795285D01*
X158151714Y-94867857D01*
X158151714Y-94976714D01*
X158188000Y-95049285D01*
X158224285Y-95085571D01*
X158296857Y-95121857D01*
X158587142Y-95121857D01*
X157426000Y-95484714D02*
X157861428Y-95484714D01*
X157643714Y-95484714D02*
X157643714Y-94722714D01*
X157716285Y-94831571D01*
X157788857Y-94904142D01*
X157861428Y-94940428D01*
%TO.C,C8*%
X168772142Y-97932897D02*
X168808428Y-97896611D01*
X168844714Y-97787754D01*
X168844714Y-97715182D01*
X168808428Y-97606325D01*
X168735857Y-97533754D01*
X168663285Y-97497468D01*
X168518142Y-97461182D01*
X168409285Y-97461182D01*
X168264142Y-97497468D01*
X168191571Y-97533754D01*
X168119000Y-97606325D01*
X168082714Y-97715182D01*
X168082714Y-97787754D01*
X168119000Y-97896611D01*
X168155285Y-97932897D01*
X168409285Y-98368325D02*
X168373000Y-98295754D01*
X168336714Y-98259468D01*
X168264142Y-98223182D01*
X168227857Y-98223182D01*
X168155285Y-98259468D01*
X168119000Y-98295754D01*
X168082714Y-98368325D01*
X168082714Y-98513468D01*
X168119000Y-98586040D01*
X168155285Y-98622325D01*
X168227857Y-98658611D01*
X168264142Y-98658611D01*
X168336714Y-98622325D01*
X168373000Y-98586040D01*
X168409285Y-98513468D01*
X168409285Y-98368325D01*
X168445571Y-98295754D01*
X168481857Y-98259468D01*
X168554428Y-98223182D01*
X168699571Y-98223182D01*
X168772142Y-98259468D01*
X168808428Y-98295754D01*
X168844714Y-98368325D01*
X168844714Y-98513468D01*
X168808428Y-98586040D01*
X168772142Y-98622325D01*
X168699571Y-98658611D01*
X168554428Y-98658611D01*
X168481857Y-98622325D01*
X168445571Y-98586040D01*
X168409285Y-98513468D01*
%TO.C,R2*%
X142844714Y-120623000D02*
X142481857Y-120369000D01*
X142844714Y-120187571D02*
X142082714Y-120187571D01*
X142082714Y-120477857D01*
X142119000Y-120550428D01*
X142155285Y-120586714D01*
X142227857Y-120623000D01*
X142336714Y-120623000D01*
X142409285Y-120586714D01*
X142445571Y-120550428D01*
X142481857Y-120477857D01*
X142481857Y-120187571D01*
X142155285Y-120913285D02*
X142119000Y-120949571D01*
X142082714Y-121022142D01*
X142082714Y-121203571D01*
X142119000Y-121276142D01*
X142155285Y-121312428D01*
X142227857Y-121348714D01*
X142300428Y-121348714D01*
X142409285Y-121312428D01*
X142844714Y-120877000D01*
X142844714Y-121348714D01*
%TO.C,C6*%
X167567102Y-116772142D02*
X167603388Y-116808428D01*
X167712245Y-116844714D01*
X167784817Y-116844714D01*
X167893674Y-116808428D01*
X167966245Y-116735857D01*
X168002531Y-116663285D01*
X168038817Y-116518142D01*
X168038817Y-116409285D01*
X168002531Y-116264142D01*
X167966245Y-116191571D01*
X167893674Y-116119000D01*
X167784817Y-116082714D01*
X167712245Y-116082714D01*
X167603388Y-116119000D01*
X167567102Y-116155285D01*
X166913960Y-116082714D02*
X167059102Y-116082714D01*
X167131674Y-116119000D01*
X167167960Y-116155285D01*
X167240531Y-116264142D01*
X167276817Y-116409285D01*
X167276817Y-116699571D01*
X167240531Y-116772142D01*
X167204245Y-116808428D01*
X167131674Y-116844714D01*
X166986531Y-116844714D01*
X166913960Y-116808428D01*
X166877674Y-116772142D01*
X166841388Y-116699571D01*
X166841388Y-116518142D01*
X166877674Y-116445571D01*
X166913960Y-116409285D01*
X166986531Y-116373000D01*
X167131674Y-116373000D01*
X167204245Y-116409285D01*
X167240531Y-116445571D01*
X167276817Y-116518142D01*
%TO.C,C13*%
X137822142Y-120260142D02*
X137858428Y-120223857D01*
X137894714Y-120115000D01*
X137894714Y-120042428D01*
X137858428Y-119933571D01*
X137785857Y-119861000D01*
X137713285Y-119824714D01*
X137568142Y-119788428D01*
X137459285Y-119788428D01*
X137314142Y-119824714D01*
X137241571Y-119861000D01*
X137169000Y-119933571D01*
X137132714Y-120042428D01*
X137132714Y-120115000D01*
X137169000Y-120223857D01*
X137205285Y-120260142D01*
X137894714Y-120985857D02*
X137894714Y-120550428D01*
X137894714Y-120768142D02*
X137132714Y-120768142D01*
X137241571Y-120695571D01*
X137314142Y-120623000D01*
X137350428Y-120550428D01*
X137132714Y-121239857D02*
X137132714Y-121711571D01*
X137423000Y-121457571D01*
X137423000Y-121566428D01*
X137459285Y-121639000D01*
X137495571Y-121675285D01*
X137568142Y-121711571D01*
X137749571Y-121711571D01*
X137822142Y-121675285D01*
X137858428Y-121639000D01*
X137894714Y-121566428D01*
X137894714Y-121348714D01*
X137858428Y-121276142D01*
X137822142Y-121239857D01*
%TO.C,R1*%
X152344714Y-99273000D02*
X151981857Y-99019000D01*
X152344714Y-98837571D02*
X151582714Y-98837571D01*
X151582714Y-99127857D01*
X151619000Y-99200428D01*
X151655285Y-99236714D01*
X151727857Y-99273000D01*
X151836714Y-99273000D01*
X151909285Y-99236714D01*
X151945571Y-99200428D01*
X151981857Y-99127857D01*
X151981857Y-98837571D01*
X152344714Y-99998714D02*
X152344714Y-99563285D01*
X152344714Y-99781000D02*
X151582714Y-99781000D01*
X151691571Y-99708428D01*
X151764142Y-99635857D01*
X151800428Y-99563285D01*
%TO.C,C17*%
X164989857Y-97722142D02*
X165026142Y-97758428D01*
X165135000Y-97794714D01*
X165207571Y-97794714D01*
X165316428Y-97758428D01*
X165389000Y-97685857D01*
X165425285Y-97613285D01*
X165461571Y-97468142D01*
X165461571Y-97359285D01*
X165425285Y-97214142D01*
X165389000Y-97141571D01*
X165316428Y-97069000D01*
X165207571Y-97032714D01*
X165135000Y-97032714D01*
X165026142Y-97069000D01*
X164989857Y-97105285D01*
X164264142Y-97794714D02*
X164699571Y-97794714D01*
X164481857Y-97794714D02*
X164481857Y-97032714D01*
X164554428Y-97141571D01*
X164627000Y-97214142D01*
X164699571Y-97250428D01*
X164010142Y-97032714D02*
X163502142Y-97032714D01*
X163828714Y-97794714D01*
%TO.C,C1*%
X146117102Y-124272142D02*
X146153388Y-124308428D01*
X146262245Y-124344714D01*
X146334817Y-124344714D01*
X146443674Y-124308428D01*
X146516245Y-124235857D01*
X146552531Y-124163285D01*
X146588817Y-124018142D01*
X146588817Y-123909285D01*
X146552531Y-123764142D01*
X146516245Y-123691571D01*
X146443674Y-123619000D01*
X146334817Y-123582714D01*
X146262245Y-123582714D01*
X146153388Y-123619000D01*
X146117102Y-123655285D01*
X145391388Y-124344714D02*
X145826817Y-124344714D01*
X145609102Y-124344714D02*
X145609102Y-123582714D01*
X145681674Y-123691571D01*
X145754245Y-123764142D01*
X145826817Y-123800428D01*
%TO.C,C9*%
X149865000Y-96200000D02*
X149865000Y-96800000D01*
X151135000Y-96800000D02*
X151135000Y-96200000D01*
D12*
%TO.C,U1*%
X164500000Y-115500000D02*
X164200000Y-115500000D01*
X157500000Y-108500000D02*
X157800000Y-108500000D01*
X164500000Y-108500000D02*
X164500000Y-108800000D01*
X157500000Y-115500000D02*
X157500000Y-115200000D01*
X164500000Y-108500000D02*
X164200000Y-108500000D01*
X157500000Y-108500000D02*
X157500000Y-108800000D01*
X157500000Y-115500000D02*
X157800000Y-115500000D01*
X164500000Y-115500000D02*
X164500000Y-115200000D01*
X158607609Y-109206000D02*
G75*
G03*
X158607609Y-109206000I-401609J0D01*
G01*
D10*
%TO.C,C11*%
X137865000Y-113950000D02*
X137865000Y-114550000D01*
X139135000Y-114550000D02*
X139135000Y-113950000D01*
D13*
%TO.C,D1*%
X140275000Y-114400000D02*
X139675000Y-115000000D01*
X139675000Y-114400000D02*
X139675000Y-115600000D01*
X142325000Y-115600000D02*
X142325000Y-114400000D01*
%TO.C,U2*%
X165008000Y-124159000D02*
X163992000Y-124159000D01*
X165008000Y-124667000D02*
X165008000Y-124159000D01*
X166405000Y-119333000D02*
X162595000Y-119333000D01*
X162722000Y-124667000D02*
X162595000Y-124667000D01*
X166405000Y-119333000D02*
X166405000Y-124667000D01*
X162595000Y-124667000D02*
X162595000Y-119333000D01*
X163992000Y-124159000D02*
X163992000Y-124667000D01*
X166405000Y-124667000D02*
X162722000Y-124667000D01*
D10*
%TO.C,C2*%
X134865000Y-120450000D02*
X134865000Y-121050000D01*
X136135000Y-121050000D02*
X136135000Y-120450000D01*
%TO.C,C3*%
X170800000Y-112365000D02*
X170200000Y-112365000D01*
X170200000Y-113635000D02*
X170800000Y-113635000D01*
%TO.C,R3*%
X134135000Y-109550000D02*
X134135000Y-108950000D01*
X132865000Y-108950000D02*
X132865000Y-109550000D01*
%TO.C,C7*%
X167135000Y-96300000D02*
X167135000Y-95700000D01*
X165865000Y-95700000D02*
X165865000Y-96300000D01*
%TO.C,C14*%
X155200000Y-107885000D02*
X155800000Y-107885000D01*
X155800000Y-106615000D02*
X155200000Y-106615000D01*
%TO.C,C15*%
X166200000Y-107885000D02*
X166800000Y-107885000D01*
X166800000Y-106615000D02*
X166200000Y-106615000D01*
D14*
%TO.C,P1*%
X143100000Y-118650000D02*
X154900000Y-118650000D01*
X143100000Y-118650000D02*
X143100000Y-116650000D01*
X154900000Y-116650000D02*
X154900000Y-118650000D01*
X143100000Y-116650000D02*
X154900000Y-116650000D01*
D10*
%TO.C,C12*%
X154800000Y-111265000D02*
X154200000Y-111265000D01*
X154200000Y-112535000D02*
X154800000Y-112535000D01*
%TO.C,C18*%
X170635000Y-123300000D02*
X170635000Y-122700000D01*
X169365000Y-122700000D02*
X169365000Y-123300000D01*
%TO.C,C10*%
X148800000Y-94865000D02*
X148200000Y-94865000D01*
X148200000Y-96135000D02*
X148800000Y-96135000D01*
%TO.C,C5*%
X170800000Y-110615000D02*
X170200000Y-110615000D01*
X170200000Y-111885000D02*
X170800000Y-111885000D01*
%TO.C,C16*%
X164830000Y-100762000D02*
X165670000Y-100762000D01*
X165670000Y-99238000D02*
X164830000Y-99238000D01*
%TO.C,C4*%
X170200000Y-115385000D02*
X170800000Y-115385000D01*
X170800000Y-114115000D02*
X170200000Y-114115000D01*
D15*
%TO.C,DISP1*%
X169250000Y-93640000D02*
X169250000Y-90640000D01*
X147250000Y-93640000D02*
X147250000Y-90640000D01*
D10*
%TO.C,C8*%
X169135000Y-96300000D02*
X169135000Y-95700000D01*
X167865000Y-95700000D02*
X167865000Y-96300000D01*
%TO.C,R2*%
X140365000Y-120450000D02*
X140365000Y-121050000D01*
X141635000Y-121050000D02*
X141635000Y-120450000D01*
%TO.C,C6*%
X170800000Y-115865000D02*
X170200000Y-115865000D01*
X170200000Y-117135000D02*
X170800000Y-117135000D01*
%TO.C,C13*%
X138365000Y-120450000D02*
X138365000Y-121050000D01*
X139635000Y-121050000D02*
X139635000Y-120450000D01*
%TO.C,R1*%
X151365000Y-96200000D02*
X151365000Y-96800000D01*
X152635000Y-96800000D02*
X152635000Y-96200000D01*
%TO.C,C17*%
X163800000Y-95365000D02*
X163200000Y-95365000D01*
X163200000Y-96635000D02*
X163800000Y-96635000D01*
%TO.C,C1*%
X149300000Y-123365000D02*
X148700000Y-123365000D01*
X148700000Y-124635000D02*
X149300000Y-124635000D01*
%TD*%
M02*
